<mxfile host="app.diagrams.net" modified="2024-03-26T05:21:04.853Z" agent="Mozilla/5.0 (Macintosh; Intel Mac OS X 10_15_7) AppleWebKit/537.36 (KHTML, like Gecko) Chrome/123.0.0.0 Safari/537.36" etag="rG0nUze8TYSV2BOAy59k" version="24.1.0" type="device">
  <diagram name="Page-1" id="NAv69wrhPS9b_LGFUJ95">
    <mxGraphModel dx="1071" dy="649" grid="1" gridSize="10" guides="1" tooltips="1" connect="1" arrows="1" fold="1" page="1" pageScale="1" pageWidth="850" pageHeight="1100" math="0" shadow="0">
      <root>
        <mxCell id="0" />
        <mxCell id="1" parent="0" />
        <mxCell id="9VbOGjLz4lz3ZA4R7f49-9" value="Visualisierung" style="rounded=0;whiteSpace=wrap;html=1;fillColor=#dae8fc;verticalAlign=top;strokeColor=#6c8ebf;spacingLeft=0;spacing=4;align=center;" parent="1" vertex="1">
          <mxGeometry x="720" y="40" width="160" height="360" as="geometry" />
        </mxCell>
        <mxCell id="9VbOGjLz4lz3ZA4R7f49-1" value="Modelling" style="rounded=0;whiteSpace=wrap;html=1;fillColor=#dae8fc;verticalAlign=top;strokeColor=#6c8ebf;spacingLeft=0;spacing=4;align=center;" parent="1" vertex="1">
          <mxGeometry x="560" y="40" width="160" height="360" as="geometry" />
        </mxCell>
        <mxCell id="t2k2UjqAHbA6nQ_ANtjL-2" value="Data Collection" style="rounded=0;fillColor=#dae8fc;verticalAlign=top;strokeColor=#6c8ebf;labelPosition=center;verticalLabelPosition=middle;align=center;spacing=4;whiteSpace=wrap;html=1;spacingRight=0;spacingLeft=0;spacingBottom=0;" parent="1" vertex="1">
          <mxGeometry x="120" y="40" width="160" height="360" as="geometry" />
        </mxCell>
        <mxCell id="t2k2UjqAHbA6nQ_ANtjL-4" value="Database" style="rounded=0;whiteSpace=wrap;html=1;fontFamily=Helvetica;fontSize=11;fillColor=#d5e8d4;strokeColor=#82b366;align=center;verticalAlign=top;" parent="1" vertex="1">
          <mxGeometry x="280" y="40" width="120" height="360" as="geometry" />
        </mxCell>
        <mxCell id="t2k2UjqAHbA6nQ_ANtjL-5" value="Frontend Server" style="rounded=0;whiteSpace=wrap;html=1;fillColor=#ffe6cc;verticalAlign=top;strokeColor=#d79b00;spacingLeft=0;spacing=4;align=center;" parent="1" vertex="1">
          <mxGeometry x="1040" y="40" width="160" height="360" as="geometry" />
        </mxCell>
        <mxCell id="t2k2UjqAHbA6nQ_ANtjL-6" value="Backend Server" style="rounded=0;whiteSpace=wrap;html=1;fillColor=#dae8fc;verticalAlign=top;strokeColor=#6c8ebf;spacingLeft=0;spacing=4;align=center;" parent="1" vertex="1">
          <mxGeometry x="880" y="40" width="160" height="360" as="geometry" />
        </mxCell>
        <mxCell id="t2k2UjqAHbA6nQ_ANtjL-8" value="Data Preparation" style="rounded=0;fillColor=#dae8fc;verticalAlign=top;strokeColor=#6c8ebf;labelPosition=center;verticalLabelPosition=middle;align=center;spacing=4;whiteSpace=wrap;html=1;spacingRight=0;spacingLeft=0;spacingBottom=0;" parent="1" vertex="1">
          <mxGeometry x="400" y="40" width="160" height="360" as="geometry" />
        </mxCell>
        <mxCell id="t2k2UjqAHbA6nQ_ANtjL-9" style="edgeStyle=none;shape=connector;rounded=0;orthogonalLoop=1;jettySize=auto;html=1;labelBackgroundColor=default;strokeColor=default;fontFamily=Helvetica;fontSize=11;fontColor=default;endArrow=classic;" parent="1" source="t2k2UjqAHbA6nQ_ANtjL-54" target="t2k2UjqAHbA6nQ_ANtjL-61" edge="1">
          <mxGeometry relative="1" as="geometry" />
        </mxCell>
        <mxCell id="t2k2UjqAHbA6nQ_ANtjL-14" style="edgeStyle=none;shape=connector;rounded=0;orthogonalLoop=1;jettySize=auto;html=1;labelBackgroundColor=default;strokeColor=default;fontFamily=Helvetica;fontSize=11;fontColor=default;endArrow=classic;" parent="1" source="t2k2UjqAHbA6nQ_ANtjL-64" target="t2k2UjqAHbA6nQ_ANtjL-28" edge="1">
          <mxGeometry relative="1" as="geometry" />
        </mxCell>
        <mxCell id="t2k2UjqAHbA6nQ_ANtjL-17" style="edgeStyle=none;shape=connector;rounded=0;orthogonalLoop=1;jettySize=auto;html=1;labelBackgroundColor=default;strokeColor=default;fontFamily=Helvetica;fontSize=11;fontColor=default;endArrow=classic;" parent="1" source="t2k2UjqAHbA6nQ_ANtjL-18" target="t2k2UjqAHbA6nQ_ANtjL-54" edge="1">
          <mxGeometry relative="1" as="geometry" />
        </mxCell>
        <mxCell id="t2k2UjqAHbA6nQ_ANtjL-18" value="" style="outlineConnect=0;dashed=0;verticalLabelPosition=bottom;verticalAlign=top;align=center;html=1;shape=mxgraph.aws3.internet_2;fillColor=#D2D3D3;gradientColor=none;fontFamily=Helvetica;fontSize=11;fontColor=default;" parent="1" vertex="1">
          <mxGeometry x="40" y="100" width="60" height="40" as="geometry" />
        </mxCell>
        <mxCell id="9VbOGjLz4lz3ZA4R7f49-5" style="rounded=0;orthogonalLoop=1;jettySize=auto;html=1;" parent="1" source="t2k2UjqAHbA6nQ_ANtjL-21" target="t2k2UjqAHbA6nQ_ANtjL-25" edge="1">
          <mxGeometry relative="1" as="geometry">
            <mxPoint x="586.6666666666667" y="200" as="targetPoint" />
          </mxGeometry>
        </mxCell>
        <mxCell id="qfl5n_piH4ilOluIckPt-27" style="edgeStyle=none;rounded=0;orthogonalLoop=1;jettySize=auto;html=1;strokeColor=default;align=center;verticalAlign=middle;fontFamily=Helvetica;fontSize=11;fontColor=default;labelBackgroundColor=default;endArrow=classic;" edge="1" parent="1" source="t2k2UjqAHbA6nQ_ANtjL-21" target="t2k2UjqAHbA6nQ_ANtjL-37">
          <mxGeometry relative="1" as="geometry" />
        </mxCell>
        <mxCell id="t2k2UjqAHbA6nQ_ANtjL-21" value="&lt;font style=&quot;font-size: 10px;&quot;&gt;db_entsoe&lt;/font&gt;" style="rounded=0;whiteSpace=wrap;html=1;fontFamily=Helvetica;fontSize=11;fontColor=default;" parent="1" vertex="1">
          <mxGeometry x="420" y="80" width="120" height="80" as="geometry" />
        </mxCell>
        <mxCell id="t2k2UjqAHbA6nQ_ANtjL-25" value="&lt;font style=&quot;font-size: 10px;&quot;&gt;ARIMA-Model&lt;/font&gt;" style="rounded=0;whiteSpace=wrap;html=1;" parent="1" vertex="1">
          <mxGeometry x="580" y="184.67000000000002" width="120" height="80" as="geometry" />
        </mxCell>
        <mxCell id="t2k2UjqAHbA6nQ_ANtjL-27" value="" style="group" parent="1" vertex="1" connectable="0">
          <mxGeometry x="1060" y="184.67000000000002" width="120" height="80" as="geometry" />
        </mxCell>
        <mxCell id="t2k2UjqAHbA6nQ_ANtjL-28" value="&lt;font style=&quot;font-size: 10px;&quot;&gt;Front-End&lt;/font&gt;" style="rounded=0;whiteSpace=wrap;html=1;fontFamily=Helvetica;fontSize=11;fontColor=default;" parent="t2k2UjqAHbA6nQ_ANtjL-27" vertex="1">
          <mxGeometry width="120" height="80" as="geometry" />
        </mxCell>
        <mxCell id="t2k2UjqAHbA6nQ_ANtjL-125" value="" style="shape=image;verticalLabelPosition=bottom;labelBackgroundColor=default;verticalAlign=top;aspect=fixed;imageAspect=0;image=https://upload.wikimedia.org/wikipedia/commons/thumb/f/fa/Microsoft_Azure.svg/1200px-Microsoft_Azure.svg.png;" parent="t2k2UjqAHbA6nQ_ANtjL-27" vertex="1">
          <mxGeometry width="30" height="30" as="geometry" />
        </mxCell>
        <mxCell id="t2k2UjqAHbA6nQ_ANtjL-36" value="" style="group" parent="1" vertex="1" connectable="0">
          <mxGeometry x="740" y="80" width="120" height="80" as="geometry" />
        </mxCell>
        <mxCell id="t2k2UjqAHbA6nQ_ANtjL-37" value="&lt;font style=&quot;font-size: 10px;&quot;&gt;plot_historic&lt;/font&gt;" style="rounded=0;whiteSpace=wrap;html=1;" parent="t2k2UjqAHbA6nQ_ANtjL-36" vertex="1">
          <mxGeometry width="120" height="80" as="geometry" />
        </mxCell>
        <mxCell id="t2k2UjqAHbA6nQ_ANtjL-38" value="" style="shape=image;verticalLabelPosition=bottom;labelBackgroundColor=default;verticalAlign=top;aspect=fixed;imageAspect=0;image=data:image/png,iVBORw0KGgoAAAANSUhEUgAAAMgAAADHCAYAAABcDhxLAAAKrWlDQ1BJQ0MgUHJvZmlsZQAASImVlwdUU9kWhs+96SGhJYQiJfQmvQWQEkILRZAOohKSAIEQYiCg2JXBERxRVERAUVQUUXAsgIwFEcXCoFgQ64AMAso4WBAVy7vAIszMW++99fZaZ+3v7uzzn33OuidrXwDIihyxWAgrApAuypKE+XnRY2Lj6LhBgAY0QAQQcOVwM8XM0NAggNiM/7t96EbyELtrMan177//V1Pi8TO5AEChCCfyMrnpCJ9GxkuuWJIFAGofEtfPyRJPchvCVAlSIMI9k5w8zSOTnDjFaDCVExHGQpgKAJ7E4UiSASDRkTg9m5uM6JA8EbYW8QQihMUIu6enZ/AQPoGwCZKDxEiT+ozEv+gk/00zUabJ4STLeHovU4b3FmSKhZzl/+dx/G9LF0pn1jBCBilF4h+GeGXkzHrSMgJlLEqcHzLDAt5U/hSnSP0jZ5ibyYqbYR7HO1A2Vzg/aIaTBL5smU4WO2KG+Zk+4TMsyQiTrZUkYTFnmCOZXVeaFimLp/DZMv3clIjoGc4WRM2f4cy08MDZHJYsLpGGyerni/y8Ztf1le09PfMv+xWwZXOzUiL8ZXvnzNbPFzFnNTNjZLXx+N4+szmRsnxxlpdsLbEwVJbPF/rJ4pnZ4bK5WcgLOTs3VHaGqZyA0BkGLJABhMiQADoIQp68AcjiL8ua3AgrQ7xcIkhOyaIzkRvGp7NFXMu5dFtrWzsAJu/r9OvwjjZ1DyHajdmYsBIAJ0QJnjsb4+4CoKkIAMWB2ZjRPuTZAoAWTa5Ukj0dm7pLGORfQAFQgTrQBvrABFgAW+AIXIEn8AEBIAREgFiwGHBBCkhHKs8BK8E6kA8KwVawE5SBSnAAHAHHwUnQCM6BS+AquAlug/vgMegFA+AVGAUfwAQEQTiIDFEgdUgHMoTMIVuIAblDPlAQFAbFQglQMiSCpNBKaANUCBVDZdB+qAb6GToLXYKuQ13QQ6gPGobeQp9hFEyCqbAWbARbwQyYCQfCEfAiOBleCufCefAWuBSugo/BDfAl+CZ8H+6FX8FjKICSQ9FQuigLFAPFQoWg4lBJKAlqNaoAVYKqQtWhmlHtqLuoXtQI6hMai6ag6WgLtCvaHx2J5qKXolejN6PL0EfQDeg29F10H3oU/Q1DxmhizDEuGDYmBpOMycHkY0ow1ZgzmCuY+5gBzAcsFkvDGmOdsP7YWGwqdgV2M3YPth7bgu3C9mPHcDicOs4c54YLwXFwWbh83G7cMdxF3B3cAO4jXg6vg7fF++Lj8CL8enwJ/ij+Av4OfhA/QVAkGBJcCCEEHmE5oYhwkNBMuEUYIEwQlYjGRDdiBDGVuI5YSqwjXiE+Ib6Tk5PTk3OWWyAnkFsrVyp3Qu6aXJ/cJ5IyyYzEIsWTpKQtpMOkFtJD0jsymWxE9iTHkbPIW8g15MvkZ+SP8hR5S3m2PE9+jXy5fIP8HfnXCgQFQwWmwmKFXIUShVMKtxRGFAmKRoosRY7iasVyxbOKDxTHlChKNkohSulKm5WOKl1XGlLGKRsp+yjzlPOUDyhfVu6noCj6FBaFS9lAOUi5QhmgYqnGVDY1lVpIPU7tpI6qKKvYq0SpLFMpVzmv0ktD0YxobJqQVkQ7SeumfVbVUmWq8lU3qdap3lEdV5uj5qnGVytQq1e7r/ZZna7uo56mvk29Uf2pBlrDTGOBRo7GXo0rGiNzqHNc53DnFMw5OeeRJqxpphmmuULzgGaH5piWtpafllhrt9ZlrRFtmrandqr2Du0L2sM6FB13HYHODp2LOi/pKnQmXUgvpbfRR3U1df11pbr7dTt1J/SM9SL11uvV6z3VJ+oz9JP0d+i36o8a6BgEG6w0qDV4ZEgwZBimGO4ybDccNzI2ijbaaNRoNGSsZsw2zjWuNX5iQjbxMFlqUmVyzxRryjBNM91jetsMNnMwSzErN7tlDps7mgvM95h3zcXMdZ4rmls194EFyYJpkW1Ra9FnSbMMslxv2Wj52srAKs5qm1W71TdrB2uh9UHrxzbKNgE2622abd7amtlybctt79mR7Xzt1tg12b2xN7fn2++173GgOAQ7bHRodfjq6OQocaxzHHYycEpwqnB6wKAyQhmbGdecMc5ezmuczzl/cnF0yXI56fKnq4VrmutR16F5xvP48w7O63fTc+O47Xfrdae7J7jvc+/10PXgeFR5PPfU9+R5VnsOMk2ZqcxjzNde1l4SrzNe4ywX1ipWizfK28+7wLvTR9kn0qfM55mvnm+yb63vqJ+D3wq/Fn+Mf6D/Nv8HbC02l13DHg1wClgV0BZICgwPLAt8HmQWJAlqDoaDA4K3Bz+ZbzhfNL8xBISwQ7aHPA01Dl0a+ssC7ILQBeULXoTZhK0Maw+nhC8JPxr+IcIroijicaRJpDSyNUohKj6qJmo82ju6OLo3xipmVczNWI1YQWxTHC4uKq46bmyhz8KdCwfiHeLz47sXGS9atuj6Yo3FwsXnlygs4Sw5lYBJiE44mvCFE8Kp4owlshMrEke5LO4u7iueJ28Hb5jvxi/mDya5JRUnDSW7JW9PHk7xSClJGRGwBGWCN6n+qZWp42khaYfTvgujhfXp+PSE9LMiZVGaqC1DO2NZRpfYXJwv7l3qsnTn0lFJoKQ6E8pclNmURUUaow6pifQHaV+2e3Z59secqJxTy5SWiZZ1LDdbvmn5YK5v7qEV6BXcFa0rdVeuW9m3irlq/2podeLq1jX6a/LWDKz1W3tkHXFd2rpf11uvL17/fkP0huY8rby1ef0/+P1Qmy+fL8l/sNF1Y+WP6B8FP3Zustu0e9O3Al7BjULrwpLCL5u5m2/8ZPNT6U/ftyRt6SxyLNq7FbtVtLV7m8e2I8VKxbnF/duDtzfsoO8o2PF+55Kd10vsSyp3EXdJd/WWBpU27TbYvXX3l7KUsvvlXuX1FZoVmyrG9/D23NnrubeuUquysPLzPsG+nv1++xuqjKpKDmAPZB94cTDqYPshxqGaao3qwuqvh0WHe4+EHWmrcaqpOap5tKgWrpXWDh+LP3b7uPfxpjqLuv31tPrCE+CE9MTLnxN+7j4ZeLL1FONU3WnD0xVnKGcKGqCG5Q2jjSmNvU2xTV1nA862Nrs2n/nF8pfD53TPlZ9XOV90gXgh78L3i7kXx1rELSOXki/1ty5pfXw55vK9tgVtnVcCr1y76nv1cjuz/eI1t2vnrrtcP3uDcaPxpuPNhg6HjjO/Ovx6ptOxs+GW062m2863m7vmdV2443Hn0l3vu1fvse/dvD//fld3ZHfPg/gHvT28nqGHwodvHmU/mni89gnmScFTxaclzzSfVf1m+lt9r2Pv+T7vvo7n4c8f93P7X/2e+fuXgbwX5BclgzqDNUO2Q+eGfYdvv1z4cuCV+NXESP4fSn9UvDZ5ffpPzz87RmNGB95I3nx/u/md+rvD7+3ft46Fjj37kP5hYrzgo/rHI58Yn9o/R38enMj5gvtS+tX0a/O3wG9Pvqd//y7mSDhTrQAKGXBSEgBvDwNAjgWAchsA4sLpfnrKoOlvgCkC/4mne+4pcwTgUAsAkZ4AhKwFoBLxRohXQPxkSxThCWA7O9mY6X2n+vRJwyJfLPsm+0nQXb1pLfiHTffwf6n7nx5MqtqDf/p/AdpSA1ZTFoxgAAAAlmVYSWZNTQAqAAAACAAFARIAAwAAAAEAAQAAARoABQAAAAEAAABKARsABQAAAAEAAABSASgAAwAAAAEAAgAAh2kABAAAAAEAAABaAAAAAAAAAJAAAAABAAAAkAAAAAEAA5KGAAcAAAASAAAAhKACAAQAAAABAAAAyKADAAQAAAABAAAAxwAAAABBU0NJSQAAAFNjcmVlbnNob3QvIi3/AAAACXBIWXMAABYlAAAWJQFJUiTwAAAC3WlUWHRYTUw6Y29tLmFkb2JlLnhtcAAAAAAAPHg6eG1wbWV0YSB4bWxuczp4PSJhZG9iZTpuczptZXRhLyIgeDp4bXB0az0iWE1QIENvcmUgNi4wLjAiPgogICA8cmRmOlJERiB4bWxuczpyZGY9Imh0dHA6Ly93d3cudzMub3JnLzE5OTkvMDIvMjItcmRmLXN5bnRheC1ucyMiPgogICAgICA8cmRmOkRlc2NyaXB0aW9uIHJkZjphYm91dD0iIgogICAgICAgICAgICB4bWxuczpleGlmPSJodHRwOi8vbnMuYWRvYmUuY29tL2V4aWYvMS4wLyIKICAgICAgICAgICAgeG1sbnM6dGlmZj0iaHR0cDovL25zLmFkb2JlLmNvbS90aWZmLzEuMC8iPgogICAgICAgICA8ZXhpZjpVc2VyQ29tbWVudD5TY3JlZW5zaG90PC9leGlmOlVzZXJDb21tZW50PgogICAgICAgICA8ZXhpZjpQaXhlbFhEaW1lbnNpb24+Mjg4MDwvZXhpZjpQaXhlbFhEaW1lbnNpb24+CiAgICAgICAgIDxleGlmOlBpeGVsWURpbWVuc2lvbj4xODAwPC9leGlmOlBpeGVsWURpbWVuc2lvbj4KICAgICAgICAgPHRpZmY6UmVzb2x1dGlvblVuaXQ+MjwvdGlmZjpSZXNvbHV0aW9uVW5pdD4KICAgICAgICAgPHRpZmY6WFJlc29sdXRpb24+MTQ0LzE8L3RpZmY6WFJlc29sdXRpb24+CiAgICAgICAgIDx0aWZmOllSZXNvbHV0aW9uPjE0NC8xPC90aWZmOllSZXNvbHV0aW9uPgogICAgICAgICA8dGlmZjpPcmllbnRhdGlvbj4xPC90aWZmOk9yaWVudGF0aW9uPgogICAgICA8L3JkZjpEZXNjcmlwdGlvbj4KICAgPC9yZGY6UkRGPgo8L3g6eG1wbWV0YT4Ki8YBaQAAQABJREFUeAHtnQdgZUd19897eurSrrb34sW94F5wATsBQgs1CQnFlNAMJHQCfKEmGDBgB0OooRgwECAESAIJHWzAGPdet3m9vWi1q6733vf7n7nz9KTV7mql+6SnXY307p07d+7MOWfOmXOmZwqFQtGmXUUoAG0tk8mYKJzJFC1DLvliuNfU5Py5v7/XOvo7bUf/Xtu4Z4MNEFnxdMlksrageb4taphlzbkmq8/VW4H0BvIDluOutD2i4k+7ilAgV5FUpxN1CsDfhjxYkT/Y2QrcBwr9tql7hz3YvsZuaH/Q7uf+UOcWe7C3wwb4KosgqcbKE7+G+wAJHFfXbMc1L7ZTZx9jj59zoh0/+2hrq2slBhlMu4pSIDOtQSpH3yLMXUQspAkKxYLdsf0++69Hf2/X7bjHVve22458j95aHZqggbsERE5sn0/u0hF9pJMnJdVmc9Ak57etsucuPs+evvwJnrbyCdqECNMuVQpMC0hK5CzApFm4WSaUzJ6MRAN/LabUhj0b7fP3/4d9fcvNtnOg15qzORcAj+P6IgAhYdDX5S6kNmhI5RC2Hky3OmI+ue0Ye9+pr7DlM5agmfKYXTUIitIokHcWQeNrmWL8TbuxUWBaQMZGt32+kjBINjKZAu/E+kXb3rPL/mv9b+wza/7Pbu3bbS3ZWmvhrUyt8bjI8F2FATujaa696Zjn2JOXnI8wSmykgXSVUATByHpbZTw5HrnfTgtISmUfzKnQfjDMqRu23mafeehH9vPdD6NVqN1h1gEYN81Ww0AiiG01tXbpovPtFUf/uS2iUR+chCO0fabNr7EX8rSAjJ12Q77MIxRix3yhz6554Id2+eofWb9aFVTme4mZw6P3oY4f8umYHyRs/aQpBdGH2fWMtqPsQ6e91pa0LESbhbaPtMi0BhkziW1aQMZOu+TLYFph9dumzq129b3ftn/fcpP1IA60CKyPWLX4u/FLRBrHnV9IIOgHsy4eZbb10TbJYHKd17LErjj11XZ020qJjuXUMCoZXdH0CmlMXw9OgWkBOTiN9onh7XBndxSE2h4Ix3Wb/mhXPvgDu37PI9TYoYEMy7pYiEXVMonmldg0Dad0o4vdwtIcS+pn2odOfKH9yeJzXXuoF41gNI1gBQ5vk5R/HVOZvg+nwLSADKfIKJ7zGswTf8FwEobvPPy/9s/3f9e253tdY8iuUpdsFAwlKX9agqH0hrvA7ph4vJB/UW2rffKUl9lFi8+2fjRLjYQEEdVojGJMm13DKTjy87SAjEyXA4a6zoDbO/v22JfQGh9Z87/Wi8Q0wngar5ATG0pIdJ9Ipzw7EIQGVMbcXKP9y0mX2sVLzrWarIYdg5hKv7mA+/NEQjf18poWkEMsM5lU4qttXTvsqnu/Zdds+oOLROy6lamjulrtj2DQHGIG44gu0ZQISIuo16wLCOZnau3yE//Gnr38YssiJDL6FEdm17Q7OAWmqXRwGhEjsLpf4a5eBvvee+tn7NMbb/BR8NAgV0JBOMSCcVR8VMmnFEmMLychlbA0c2+ni/kDD3yPbuc7MLNqvHcriFG5yRe0nn88fRlCgWkNMoQc+z74AKAHa1JIxrYzj+q9t33Ort12jzXUBD2ha7D9q4/RJDTC4aj6NvvX0y6z0+edQAiYyMYCXEGsn9okUcB4nHYJBaY1yEFYQUyj+lgMtA3h+Kc7v2Lf3XEfo9Y1tC9Cs7efO3XzQVKanNcOFebUncz9esWtn7Ibt97ugqCZxnLeCyezsTrBnxyileU6LSBlxNi/V7VrjX30rq/Zf8BgtV75akxD4hPNr/1/PdlvJAotCMm2gS57NzhoBnE2q5ZSEHzBFxrtkw1p9eU/LSCjKJMeZt1efuvn7Kubb7JuOEmdpXX8evlWplU9/n7u1WiixO5moTlAz9YtXdvsg3d/zXYwT0yml7qqa+CCIOaKNe3KKVDlAhL1vu7Rr/owPlOsKuQR3fA4MW6MH96XTAylSloxPd01Rb2PqSPffPhH9olHr8dQzzEt3RglD2aXzCoJiLp2axGPmDJBVeMkuKKXYBR8NQj4/+16kE6Gz9vOnp3gC9yBFCFmQgPFrkZ8HMgJvFS1gHjB+UiCGDcwcIEC1ZTywMz7Mw1i0cZ7YIIwSKYwGIY0BtdSihmC4OkehETmR9Zu2naXfYrZuOqVEpNp6ojmU0UxreN50NDiocqcYNMISC0/+WVYNYLXF7bdYZ+47zvWM9AdNIkEnApBplaYmayZY5F+fHiEuqoWEBWW13AqWpUuBaYwecMy1jj6MHLphW/F/BIGFTbswU0CIEPJnRLTTzUpHv/Gp2TQY4U58oG7r7UH+7uIXcCUkjnFqkDi6RO5IG7BX63X4TBqfKSGGcCfo5v622t/4rgUXPwDXQenokQsqxWzysNV1QLiPE1heo2uUpZ0+I0mM5PwikXqRoUPdzGM6GJlFbimWqjWd2mI6eiRTGI+Skxxld+u3l321tu/gM2+mQaudE9YMiuTRZMPp7KTRmlifEQm4icf/rHPIxN9onNSx4cj/K42XJU5MaxYWdytKRGwOCXWn+9m1VwvmqDfevp3WHffXjYv4D7QsS/84ngGxTRDr652pjXkZhEnb011C3huhTFAm7Rrsw0IRM5NKc+OWOr+lID8cN2v7OcsjS3yvg9GkomiRnkdmqYHgGRaTUUxURUjM1FO5tZ9bBjx5ju/aNc0tNlJrHnXe2nS4S5WIsI5+ofESSodhbmoqdyGRNCDvt43dJ9oVRQwSQISWMvNJJEsoZkIL+u+UOyzvnyndXSts53dD1lH93rb3fOIdfZv4bfLSaxv1B7Zl9yDheA+jyChi3GLVl8zw3I19dZSt9DqcjOtqXaWNSI8rfULbH7r6ZhQObt+1/2IFHOaEr2jaeVZpYFwhAZ5wKGKynJUoAhqrX9Xe0qkmQUh12NC/tM937Crz3i9zW2Y6ziqUFxzEy/PRzVEFg217kVOJqs2lJBTOkFLO7G9QPna220uLETzis4j86DPPL0gTP6YPHtiflE8lRn3yCD6foLdJAmIiC2yBFrJKwL35vfYlj232sbdf7QdXfdZd387gqLlRoobtEmOZavR+VKH+HCwe1J2itZf6PJfVz+9OPypEHTNoHVOX/RSWzr36dZJiNIfCGB6+0OqbBDqg2VYve8lHGE1ovgUbUjv3G0d6+x2BkCftOwiyqZg7d099HL12tbeXtvQ3287uruZYjNg7b19vjVRD/6dAyzXgiASmbbanDXltCyMmcSNjdZYX2vz6hpsIeGz6+utrb7O2hrqwwArkcT6LkTeUxJMWxWRl4MqSd5mYQwfjD3SBERE9J8IJQpDjA3tN9qdm6+1DjRFvtjr5OMF7yXDobbTc/gy+MZ6HVyCqkKSC+2UAaar9xe0tCn0+nQBWhN+9WAJysPBCTfh04hHGqCXimd7vt/OZKHVqhnLrAjjf+Suu+07W7fbVgSjf6CP94iAV2jSB8MpEZ+VMn42i3CpUXwYW0IzM1drzbU1dhyCcmpTs50xu81OnjvbVuCvr8VY5dO8m7b+Cekk5UJ4LCECJ8VNigYJpAyN3iK1+X1bvmd3bfk25KUmSf5Uy8mplklI7/d0qBTSDrWVUiRnlSe+lvrFevJu4JkE7CVcjdrDxQlzFXo3Hs34rQPxl89/rL3vpJdaC6bmW2651a5eux6FDaNLHpwqEELEcV3hnjI5SZ5VyyvxrC74k1q/i03uutA0NNzsoY4O+x/bZrZWUTJ2TnOzXbJgvj2J30mzZ9mcBkaZYvuTNKSZDslKIH7abkIERAxXXhOE8QeWofZtsDs2fsUe6bjJ8VIcxU1I7GHyy6kYysM9cJwX5RZS1hVTo6aJCYhq0PNEAXbjExMFiMaZ2SR/HuknMDS5cguMeFpdi71q+RPtxUc/jU6QGnvPnXfa1Y9sIEJSJUTilwRDqYzgPHFF5ke7IZRUQlv/JPlOHSfRJuN+Y1en3fjww/bRdevscS0t9pT5C+wpixfayQhLnU8ETb/MR4D+gEEVFxDVzKGRF+xKVdUycfb2Pmo3rPsoYw0PA6AmbwQXyJoQl6BIbr2NcULMNK6DIiI4a2saUfmzPZ+Yl7p1K06kNFA5QBqiZnQa/9F2QReznekHTnm5nbvgFMthFr351tvsExKOpOaP8b0OEUUiQUovhnn0XsJRiocnZlwKSwL0HPPRpE+I/9s9e+y3HXvs4+vX22sWLrQ3nnCczWttQaEkA7eKz+cZ797XgKart2FApP9Y8VxU++aoLUqGEv6egR32x0c+5cKhAgv2rYinWJGq4XkwLD6nRwSVkwigu8o2hwZpzM3wDFSH1pHlgYciPWpVX4SbpsNoekw/2IqKz2X70m+c/4924cIzaXgX7R/+eIt9Ys063ujtMKcE9BuNGx5v+HNM4wDh7f199mE0ykW/+KX9YPVa2oR5N3dVyRbhnTzCPXqAYoZjv1dcQCT4KiA50aWf7tubH/m0bd57p4e46DjB9kc1fVkZJ3YosQQmR12u2RpqqbWS8D5Akok11Z30cw+19DzaFW8/6sn2QdaFLGhaaDt7u+3dt99lH5PmyFWcFUZHRhEfpnmQDoKX3Xa7feC2O+nql3iLU2R9CJtSqY0uzXHEqrz1EPuyQarA6O09m75lj+z+PUhSRzsxhPZE1glDqSXTSkIswjfVzvG7RNrHWHinUfMo4EO/nBpPwquXWvjchjn2vhNfYOctOA37nrnImC4fuONuu3rDCGbVZKOmOgm+2U2l9eG16+zm9t32b+ecZYtamikNdQlLmCeGayag2ohSb7a542Z7cMePQE1yObmCIR5QOaiXJJh/dEnWzk8EZJD81S4cwmEk57iBYQHheMKM5fa5s95klyw5j9kDtdbbn7c3YVZdvXZtQHSkBCYzLBkbcRkAjp+277KX/uFG9jjWmFgAOZSZP1b0UnEBkZxLc2hk/KHtP8QvSziwnbb6lwuFHPweMEEX5RhzVQ+apqSI8M5cXAJxAnQTBNIhZSNYwxyxQYFWAgUgVw9ca7bOXr/sYvv0mW+wY9hILo+w7Onrt3ffwUzeDY+E3ipXoUSOhFACk+lE7qDSAxRO/oz9cneHvfP2OxgnY+IPsKrxrm5gLUnQoHMceE4b9MqbWFBeE+Ee2X2jbdnL3CYwUMGG5mLa6Bx6eoInCkJLvbbsHEwjeMsCBl9VhU+8I+gkJLLLhYemx/RxPTrXYu867nn2DI5IyEpjg5g6Hv75jrvsqvLeqij/8U6cSXcRlnhPAPr3rVut9pbb7AvnnGE5Bh810q7Gu+RJ61wq4SquQVR0UvP3b/s+yPR4UVaLcIikUThkq9dx9kYRbTdVnCZ2xK1N62EQ33II+E+sn2dfZF7V82iQ55hGIhz7GLB784232lUyq1ysqlfw96W/pIBQyujrj26wrz60Ggz4g6/EX8JvimoQdAWIbWi/gblVD9Puils4B3z3JcTEhkQW0YyfJiYw1tZol9vK1ESVwCxMvZfWAGZq09ms8XjO/DPtjcf/pc1rmudnhkjwO/p67MN33WP/8sg6agTpEbmpg6fDqsKSSY7m+MS69XbRogV2bFsbQTKv9C6YxsIsTVcBDSJo9fMy893O17f/xtshykwCE956lEm/iE1kntTVNPNrHYSnmoBMoBJIYu/hrL0TrdGKpnj30c+1d53yEhcOUVm9PTm454MIx0cfoc2h6SMuTEmCU+3mZVK0e7q6OHdlg68JculwnqpMgVVEQIK68yaUdfVvt03M0M3SYHS1CB7DC3hyywkTEJgkINIglamHxo+haKa2W5g4GaDsE7QIwPmN8+w/zn6bveCYP7dGBjvlVKv2M/Hw72+82a5cszYE6IVq4eoqAEF1YCd4408xQe7aDRttYAAeoxKQmxJtkNCbEIZxgpBkbWfnQ4yGylKWwEQ8q6eEYBe0Ghok1xo0iFScXPWA6OAIThmomucslpCgaF39Cxacbl85+8124twTfLGXpvGoh6e9t9/exSDbJ6U5tG3JYeUydgfT73/KGImmnnhhiUAVcKlSzgsHIFW/qbaTULSz4KlYVHEGV2V850BJmJtq56Llon0eoa2eu+jWCU3b8GhN+VxMqiuOeba9mzMKVzJNXZrESU489Rp+kCnrVz2yPjGrqgePVCBRJUYD/cubtqBNkrlawr8CLvVuXhcAauQMI6EDTGXf3bPeyy2CLz2iOB6vAgiNJUlNlmuuWwSxBVUCaQR4LAlW4BtVODOAbT0wPq5uhl3B0QYXLD7HxzYEqnZvl0bRWMebbrrFPrU+aXNUE6FTowsYUwncs7sdC6XbZjU3uX2Sam2fwJqygKioKBFuam9o8dGe3k0Arz56tIrw4nUwwlKj1rgTEjzNdfPc1MIb3KQyVtDBERTd1TWu8Y4XzDrG3nr8X9ljZx9reRY6aRWkqK0Bs92s9lOD3IXDp6zzpT6eVFwCOVO/Ylrd3dll62iwtzU3On+lngcJpiwgpKhGIJKgMd7egR5m7rKG3AuJsCosKIEmrSYBEdSBo7hNolPlojUbqljE3Wp7NNBF/vqVT7IXP+ZpNrthZqhsmKbuG1xAWAnQ5XfKrNqAOglC4yhUIc3HTVonC4jRCfFAV7edWiq39JFNVUC0qD8wGKyGjdzVu9G7eatRMGIhibFq+NOmDUM0mwph0lygo/SIujdmM3/qQye+yJ6x4mKEJrG5VWciB0WWw9ImtzdjVn2StRRDhGPS4J+gjOl82LGX+VlUyKrktLFE2i5VAVFvkLcxXFB0AtMm7GIPAe5J5bj90k21tbRHLsuWcCUBJ3oFiL1fIIa9UNYSDrmnzlxlb2Lg7/R5JwWtUQIMWjPPor1vgL1276G3SsIhK7w66ezIpHVx0oAn7ZBHu7uohJn+WgnpAN5UBUT4h1pYQpGl/bGRQmWct0pViOgsAW6rX0Tto80DIPoE8JfyVTbxjrfkFKbz1Ou5/+2yi+1vH/MM1m5g/qkBxxel1klC0w/RW/UvMqvUA+eNvFJSh7+Hgc+OPmaeUYY12kRQxEvZpSogbsMDrHpTNIK7p+8RGo86QHJwq56U4R9XcmI56bzmBrpJM9IgoRUyrkQP8LHKTz9fxkvm3Tw086zZX6r7NWBZUBi20wePea696NhnESYdRxsD4VVNmdWmCETSWMdbMas07WKIWSWklMnh7ISjHA31DWhQLQarq1AlnKqAiN1CYWqdcYEGum+3FpCpwqubMRBXG8aJ8SQgkfaVAFd6VfTRqFABhlf+CtOzBESFcS5jGm8+9rl2/oIz6AVk4joFL60s4ZCGKORZSEStKbPqE97mKDOrDnfBgD7uhKcXFPsnMwkzbmCXvE31lq6AYMN7GVH43X0d1jewp2rNK1FRsEq7aQwksGElxUP5hZ4pnSci8dBqRU0XCcJRtBctPMteR3tjcctC1xy+T7BzAl8CrKArIiiXIxxX+ThHWW+VEDrinIYS2ASPiiSY9s59qVIhVQFRIaqic0ZgDCTvU0xShTfVxNSNmqtpYIrJjNC5QOolESl50slSRdePBhjAo71+NW9YplWdlykj30c/y15y/POgmZY7QUd+6sKVP4spUYCwGnx9+803IxzrCIxtDk+AWEeQK5VNxjrRIN1091qmsSIESFVAAtzh2j2w1zeclrBUr9Ms3hbfozcYKoI1oX4KYJel5qnq6DZneHLR/o11iMGxjQvsH455ll2y+DyEA5Ehe+3J5VOMiC2jT43Q3awEvFzTR2KbQ2CqRjoSnROWS2IShw4MJ0jq1EhVQEJxCXBpEjQIm1BXaw9WpGStNourZRIHTCjdl6aThtBajXCmyGDq2j2yEeH4y/mn2xsYFV/euoRYhIrhRT5gcU2sZ6eluXBcKbMqDgKmC2qaaE9MWupxhFiVJkOqAlJOGQccCa84BuWZHqJf4DUwzT1MUtRmp+mSoweTaAYFKdHTGnEd+tkMYbayFec/r3qaXXbCX2LisXSUvyEVCd+5wAKgzKt3scHCla45pH+m3SAFonjoHv2Db9PwpcsRwyGqDMzDcxnjc+g6bfQ5WByuAxfLrFG9lJZrRTj6SbAfTaDt6HRc9JK6NvvYyc+zZy69AObXclg1wIcRikdVkO2YVR+mQf7xaFalCl1aWE5mOmmW1sh4VFZARs6zakI1hbIxNxd4xKQQW3yaIs3VfSve13kivQyYPmfuSfZ3bKRwEhMOZT8PtntC1pEwAkEn0n7o7nvtyjh9pMq1cYR9Qu9JxTKsekkVhMoKiEq6ktCPgxQBrAxzsBCQRDbSADWmEVAPnY95Dsp8zdLH29tZDtvChtFuORMx7MihnqpB00nfqfP2HTfflphVSW/VOHA9bD+FWDJf1Rspugeap4ttBQQEMIFWwHr1GXzpQp1KatIaWcZApEEEr4ydsTsVlHAWc6u45Fcf1Kr6NnvDCS+wv2KHkYzWhGusKKGPxELCot05QhFnmDrR6xssfCyaVeWdB05UPoouckX5c/QfzvdIBwjYkstx9kitH+pTG7r+UsU8VQHx7jbnMh2aWeeDcAPJVj+pQp1CYuo+rWWQUGvR6UglRbF2mYjEQjiEvDRFXSlJWJhma3864yj7++P/ws6cdzJ5kDpmUmxvSDCChaBGvCRGg14Fu/Ke++yK2Fsls0rvBJbDkzzzGBzPUdoUMPx1EutwvjVQydUxJpTNiOoqw3RdqgKiwtfcIZVnrW+j02gD/fTfBE5IF/Jxp0afVbZ8o4Zh3CUkDsEpulS9jjarQThevvA8e/+pf2sNdU1hfIOCHJZDSJ1AzauqocHe3rnbvsk6a2OHc81U9Z/UjFx5D4ISkkMblZy8MbwUeJh6SmgXfJqOT90B90pM6E1VQHyyXyIMOXYxqfHj06qzkFQ517OTuwYK4cTkNx5YmWOFObSKNsYrWdh06dFPpwu5HuHAeBOz7y8Hspapp3PK5zS32CfOPtNW795t67t6bBtTuR9gleAWRoq7GTHemc9zjiM1pYCPAqHOBTnNcpRfQqN3pQjyH6YOnI+qq+U4OfVIOtKpI5qqgEiDxOl+9ZyzkZP5Io1SGdjHSYwwiq6tfgKLyegpcwnfKSR6xeby61ful2nVh9Y4v3W5vYOBv7PnneibRLs2TRL125AMSGSIQ/NgIfzZ0iVmSxa7YPXRNulEu2gp7V4O09QBmjvRLqvZ0WMLK+l28Hukp8fuoN2yA+HhI4ADOt3lRHj/+YMHhUvEqCxoqnldexZsJkTLCc2hpZcaNqkKiKAKmwkXEI46a6xtsx2wk9vbvCsvltCMTQ2PQ05IglzH/rVhN0UJMSHDTRZSDYSnfYA/TDLUl/EYZaaLwIC7YM6XzD/VPnDaq2xWvTbAVkskiwY9oEQkMFP7lTUuSxYV9kKOBVCaYTSPwy+zGUZSkvRU6YRp8KJ3yG37nk5bxyYG6/Z22f17Oux6BGcXv42cVLuN8RTr1ynvOEmh8lOHgdIrFQoe+QVyKUwfxED59+PiN7qPJv5+kjmkYGlL6oFmdloUnTWJsxI2VqoCElgHNEV4fs0cJyDzIgpDpHuwxg+JHClHBj4Yqzk3z+EMM568dIfkoxAtXhKRxLhieznFl+D0kcYMlsO+76g/tVce+5ykC1dUGMQ5cFz4bjRXh0L0ww2HyDtByFMuCpKi6pCfpTNabNnMVrsgEhkoetA4u9E8O7hvYPvRdRxEs4ONDjaz0cFDmHBrEJpOtE0HAr5b88DEZJ6+7p4NQCgnHgRMDCt/KA/XewHk9+T7St6AdW5dLlREgqMCLlUBiQSM6m5GvRYiKQtEHQSiuVwBPA45SbFxa/1iZ3bXHAIuFq5S41HlLOglGJomosagpqeLIbtlUjUvsjeyduPiRWfS4Nfkdf0J1Vha8U5gCs5TS4RHyUlbh7z0Bq0iBtfdQ1mVyFnl87HR56N8juONZgNT1TKJlLU63Dto2+xlbYmOFNjFfRMCs0EChCBtw4x7FMG6oZfTnTTNQD8JTyKgTiuHhTQdMOWdOH+OD5W6kwkwNdVJu1IFl9ElzRxTFZBAItU4NDmhZ1vz0a5BwryiQMdBJkoTjUNPS3A0cKKUdIGzlMq+PJmkkBWmX2eI5ay3c6DX/mrOsfaBx77CVsxYCs/oY5lpiW7Us773sMpxi+8BANMrV8mGzwYgY6+SCBdu6v4UOHGUR4xUx9iBZhbrDPOaRkS/jbdJ7aW4Sosztvzeg3bZ1N5h6zhk82F+D9LuuaWn27ow3dYgVHv45TkuLZhu4KydJNx8wy9HWslFnnSc0nT6FmxOI4uT8VeKyuMUEMe+hLQrYyAtsh2NrPTZjats+cxzbX377yB3Ele1mBeGUIrfR/TicynJFD0xv8G8WhtoEDsTBzPCYyQguEJJIBSR1H2rZcTzcvV26bLH26uYMjKD7XdUgw/qDWoFnlW7hmZFzCtFNMqTYh22cpcTBso7CLyucsk9ASN2weulSihM0gxVlgQjuDAFRqP7OjSzjkG4WfPn2on8YhSN5+zGRNuNdtmMgDzIfSeC8yjaZwfa535pHyZk7hnIWzu1vBY0uQaKWXhKZbQpeaMn5lT6YF+PoiLJbZytnoenKtHFq0zHJyDCA1XtpSHGx0UU2dWM9Q61dtqiV3qUtbt/A9943cY3xEoixqIsfeeppH9xUMk05lObbeREKRg8BvBGmkCbTCiulsRG5yzD2vqVnPP3Trb7fOrSC6mF2eQBp89dcxBdd+E2mKZHqdhF+USMIkkFj0xG1wgOSEBQVwmFO4+Ej7u+dxEvwe2BHi2WjdMlfJmEm81ks7YZTQ22lJAz+UlACwiCuqG7aM/sRqt0ICztCNB2TDUXIjoNtiJIW7mvp210nzSPCw/EEx8l9YsTMCBHqgmwjqDiESSne23OliDAGefBUEX4uxQv4xMQQamVbfTRq8pUT4IKpti93Yp3fNKsd4c1nPpmO2/FWyy7PmsP7/pVqLW8uoq1XSDBIOYpYleWVOQJBcnka21YyuCc9g7Rm8R5pMBGuupRnQy72MHw6a1L7WNnvM6WsWaccdvkbfyQVDwZMeZg2ET6yrMtwZIAEN8NgS0GepyR4S5F4cOSvwypwVkBBFKmWUyrBn71UGgWbQNraXHBCVlgUyAMvj0qcTVmJAHaRK/bGky3dexvdTPjPqsJ24nwPErPW68EiIrWecx73oBC5pscrDejrs7aqKiUb5AueDFlNw4BkQjzUw0AATUa7Pcdd1v+9iutsOMuXqPGc5+2zJnvsTOXvY7YeVuLuaWaSQT3AiOJkYifMp6CNHESzIK1+FY/EhC9CRDoqif91EPVB4CNCMjrlpxr7z35hTTqZ4IuFQARJwJmwJgQN0ibcWTnhRnoIuUbJhBKI4eKUCESKBmFtUQoYIa3trbakhmtdpYt9IxVbw7QcbAbE01CspHfw4zxbOnotG20ezYTfqe0Ehqqo3/Anj5rls1tlCaPHDUO+Pfz6TgEBBZJOEXC4RPuHvkfy9/7b2w/vh1KIc1EKWy6wXIPft1yJ73eTl2MuQUga9uv41qjSscZTWFBZOSrnItMrd4f78GS9nOIQp4BngIFWGPHNM611TXr7E3HPNOeTpujpTYMeirmyPVpSGMqXiNd0oI9LBkuT1UMnNT83CQ0OpY9mLTKNZS7OgdydBzMRWjmZ1rteML/hC8LtGW0nl8dBl38dqFd1H29oqnJmmiDyLRTmhriSdtxXLbAGo0jWimmkFftQID6zxlGK9z7Zcvf9zVC1ckY4kp+nJ0E/LnvtcyKpyBIdB2uu9LW7voN76hPVN0ooscVIYNTVtGfBI3zph1FAnMPFHrswpVvtVVzgAccoqmgDNSQldvTt5cC6bF5jXP8WUIh6CJMSYXp76bqRah29+Vt2x5tcBpq+wTZQZScHhHrWCrxHqMNf/bU4kunWex6VgkEmoeyINeEqsHnPXJ8Ka4M00cCn8UyknlcRKvLyFU6DQyjz5/ZQGJhP2PPLAHHoR5nQY1Og4hIBdoZaoSGXAPy8uc7rHj3v1p+9f+IxAK79E6vFabekPydn7Da5sWWmf1YO2f5GzzO+vbfg6TYttyFFAKOSVrlr8foV0pA79Dl2CSuMdc2YkpxTs/M+labaa1DBMhRH/GrqRXoxakLvx/fvd2+8sctZbuWUl6y93mtuitcJhu/wEkBiuCXwIl5s6iipx8325516jyb2SCrRD1aMuGozBAOlfl43OgERFLoDSERDgLS05ORedKx2vJ3fNTym28BBgAS0QV/mRORpSCse6cN3PMZy53zYcvVz7DTFr+CwKKt2XkdNYXACDWJysTLhXslnAS2Psd5hLmgGQ6Ux3DtcqC4U+md8FI5wkG2oBUbHi7q9jCCKauMr+QCoyTa5OMmjogu+AVnlsq1QDv+23dts7s377UXnrnQTl7SQktXggE/OS/6JX58yPdRC5g3ttycgoA1bMjfsdYGbvx/lt9yc0LV/eQdgQSjwpZbrXjfv1EI7KZeO9vOXfYmO2rW413gomS5LJLU+NDaF5ZBvaTzCLFdGSQ8mItq/WDxptp7KYhMcizbuatm2otOmUdnUTCNs4nFrYpNZVD6Heh5+Dt9N1JYeXqH6h+WXs5NLTX6VeWZ3b6t2z7yy/V23YO7aIvInE6Hg0YpIJJGgUF0Se3O+yz/h3+wwq6HeCRMsEBY1xR4R3QOL917D/y7FR7+DlFIk27Wc5a/0VbOunBQFSobf+sVWHhI5RqKWn3mmqBYxxiIzLvDVQgORDIZtUW0RBatIZPyL86cb5esbHOlUuBZlFIxeLzEr7JVWOlX/lzuj3FGCovvxnIfll4ejhH8kmf91D7f1TtgV13/qH335i3WS9sqDTeygEjdysFA+gXtK5sO/+ZfW/53b7RC+1qeaSohOF47g8D+XHileMSkAAp3f8aKW2/ywsllG+z0pa+yZW3ngWhYehoLoaz+8qSVwvicIKXrFuGQxRjqnvGlOBW/VqXgCoS7tIkeXnj2Qjt6TqMzWqS/XlXvL3QHRfgkzPL3IS1fummzfeGGjZwdon1kKGcJkipwHvR8KG5kAVEKMqcgoMY5VOtKGApbb7aBW66wQveu8I5oAkouAhqehl8jWIHFiz17rEh7xHp2kG7Bza1zlr8Zc+sJICELcjDdyMbjV5lOKvLL+BysUE8Oh/PIePYygw46IVb0kBZZNqvBLsWGl8SIKaaCZo28F0stlukAOPzk/p32+d9ttP7+wDkSEg1Sejs5fjCK+/4FBKLp9KIwSxLpk3Dc+O5EOCLDjyKHkaKAQH77PVZASDR+IrHWATZnY26taLuAR2mm+GHJEwPGdJdoav8QEbFJ09zdl07aYwKoij4SrbUm5ZyVM+ylp813Rjr0unZyERIju1EFLjXw7QAmws9Xt9vHf77O9nQHcysjLXKIYO5HQGRakZS3OxCSTb+2gT+804o9QXP4tOlDzqoMMk87a/k1P7LCA9eSF+0aGFZTP2RurWg7F8UlTRIYWAUon5tyZckcqlc9GxrAbKqf7/Z1SPVQUzlc48tkMXvO6fPtacfOxr6fongCd+im1p4DGfvZ2t32yes3cBrugFcCh8q2+xEQsSN1LhsJmDTHrZhVPe3U6kTnVegmVJyxudDDIZsQSb/vy/Ru/c7rdiWuKehnL38TDfeLaJMw9oJzeeI+HjMrlHcwH5rqZpGoTEhPfvoCBaKppVmxf33WQjt2XtgtfaqQSMIt2L2cYRj1bgl2zdP69dp2+8LvdV6meDpGGl2xw/ESOZLnY7U3So1yatriznsxq/7Ril07yUxZkwGZK2MN/o3L+edcWOlWuOdzZnvXe94ygmppuJ+3/C3euyUuDjnjwzMoJIJC73Q/uAux2OqHWby1rJXXQJInfPBPj4gYqoREEPHP/JZae/HpC5heoynvgcqxDDxatVEEoGRlaPgm1vjiE8FaI57G/zPMrS/Qw9VDmwSbyN9pcq3PITwAPlCAZJQS3OfdtE4p/Dvvsn6ZVd3tIffyRJxo5QGH6Od78bVuEvvCzocsf/dnLcM0lNiIyrJC7/Qlr7Ll9G55d2zygX+DXyAH1JXIwZ2+E1m0Dr0uyyxTKDoVGqIHxyzlGNBFLHDqslZ7OY12bYjg3JfcAv1TznO8yYXCdX4SXySc5T7vtiawDj77j/t22Hdu2WI9fVrQBzcQHuJ71BEvoTUs8cN5PpK47q2MkH/MCnsetSJdgGKsVF1MTndBScb59T9hPtfn8QelJmltqJ1rZy17gx1Fwz3v5laA0wE9RIA8K/Dw/boQkiBih5jIYRw9dIVCfgilBrt+f3byXHvW8XOcmXLikVBUU4YKKnOZWmqii83UJvkBU2tupF3i7VGeXUgUcT/O47mJRUzV1MxCZkbuZ62w7W6oRS2rFMbCkfvJUMHKw9OE5ioQZ1ZMuvz9X7f8hv/z56Q8fOfDc1a+jS7gCxwKFxH/Rur0AJgpi30c00wYRdeZIN6e2uf9kRsgesMvoYFLJSm/yuUvz1hoZy1qcbNEtD9Uik8mRWUlxK6eaG209+ftmj9utm0dTLBVswIshfv+nEx+XIihWqT4wDfoXfoxQXoVyBHNnv0lcqjhYfOAhNQl4OhFQWsU7v0i01hWk6RaFwGCLFuEnrbk1Zhb5yLEqg9CuGKMVGAjhXk24KfDcmqYrOi0OVTAD+P4opn/IIzMEtFYDDazscZecMYCm9OQcxt/SpGA8o5tEt3VRtF6lA17++zjv1pvuzqZyAWqzi9+SWiQ+IWrRuvdaQpxccvvLX8XA3i4IaxXYmJ/lcKFTIelGTVJsX2Nm3fqN9B+g4JDyDUl5tYKerdkbkXhETCDDXXFDoU7EpBqnDXVLvAYEhDvjRsp4hEYFttk0hzyBzKKymYnLm6xv6Vnq4aXXhMTqPZqML3LuKnK6CbI9BMOcrrrWXjcvLnTvv7HTdY/QIWgSkHY8NIrTnkSwQgCJu7s3sZEwi8RLbb/BxNW4pV23nfthMfUevQmK951NdDSzQtoGR9MDA3s81a8HXPrQi+ouD4mCHMoPKJDCF2HOoUI52YERHefInMg3Tr08yPiKSiOYHKImSQMXonw8CcnzLG/pk2iedfikKxecg8iJP/UcMJL7J6j+/cXtEV+v4ZOKJx4QiPt0WwPA+Rudqrdwbnm2P75Xfc7QxJ3wp3MOAHpALAYv//B71hh/f/wiEmFxHubgfe6n7ZYg4kceik1QxH5j1viUyL7OL1T2jpRyiNymdYg+5BpSIDTLKlEtJ782ay5OGdpK2RUQQQyakvgqeRUeUbB7x0o2Ldv3Wab23vFDYEt4jUwIwIj06pzi+Uf+jYilNTYkyEhzvyiNh7XcxwQzyrF4u6HKQ8UnQuD3mbZLGwOvVt/Zyvp3YqDifoslFVQ/MMLTehrMuTMxiW8kn1NyLQGGU6mIc+ip0ikyku9Wq2NObsUU2t+E5vkRR4peYZ8WrUP5WIg7fdQe7d9g8mNLjVA7StKQbqkQYRpcc33YMRHqKlDr++kYEdB+P6qZB4Lpbh3EysRrwLqHvE/ESgoXmpOVX1Nqz3uqHd4F7C/0mt5XEy8aP0pXPTMLnysItScL6UfXCzl+Dx9L6eAqCNzSv+SA5Ft1fwmu+xxi8MDzyVSln9Yxf5Y4tIiMqe0r++PH2q361bvdmQcHyrjiFe2SNujsOb7tFyS/YUiJSYByUHGTTJHYAubb7bCbVeg3boDAuqClCiowGgpnk7v1rK2x1GA0dzi2/A6SUTKUwVctJn1bNnDgfOyQT0wiTF9G5kCKA1orXqTtRcUjp5FuAuObmMQcQGzEgggXMGivly1k9ZRAE61X6MYaHHsf965zXbuDVObnNGEDI5Nn+6y4t5t+AIjlVWvIcYEXgV8REDZevcyhTOw9n+tsPaHNNYJlCBQCjGuzhg8e9nraZM8jt6I0Lull3rvZpUS4kk7mbQ0zAc9VkMmYVHd+uP0ZUQKlCotJ3iw1LX68GknzbULl3O+fCiOZAdCma2B9iMmVkWBgQeCQNcC9IM7e+y2DeyvoBfgENun2cKOO3203JkvvKkiNASroGX+zP3XMCUFYVaIF5akhPqNAspxmtUFR/0jc7fOd+YXjo6nF5a+UAdAwWbUr6CLL6x/V7JKZtqNngJOVzhIdGusr7HnMz6ylDXtqre87iWC0330SVZFTI2PqKv3pw/sYmdI8Qq8kdQM2WLnempmWEhY88bvVQF2BCIUSKFrB+2Rj1mxbyfyoiIB4NjD5UVWZKr8ZT6YqPAgWIolxIJQtTQswg+OStqrCvfpadqNggKiZBgXCPeVcxrsdecvthlMalS4L8ASD40irWqKIrw0DnLf9m5bzfiIhMPZg/Cs9XU4tjJnJDRun1cT9A6LRJr2yPZ7k/YIh8FIRrxYQnF47xZT5c9a+nqE5HxMqoGkoFRgmsXbxBjI4EYNoYYQaabdoVIg1q4qgtNXzrSXMB1FZoo6H525DjXBSY4fhD7DURB5+29WIkoOophni/17A3iRV+J9koEenr3MJPWy5df93Aqrv0VJqHgkHLEBKcAzbOnTZhcd9W7aJOf7+2BgaTantvqZTZhiSYHE7z1o+jJKCriWoL2qbl+NSKsMnnTiHLuY3VFCCQT6jjK5qoimnRBkOWk9yZ2b9trmXYyLSEpwVMua2zQ1nDfa2Zqy8OC3WAJ8AyWBgDijB/gjUhIbN7dm0nBPzK069sJqyM3yxrreB+0TiOCP05cxUUAmbB2Hjag9cszsBj+vfKpRVbMOxUqa7fsou0yu3sWhQWIt55JEUsZEnUn4SOuKtboxf+fVLOTa7nZvQCUA40JCCTWgLc6kd0uDif2FXmq7ejRIY2JberMdfxCVSUDjsMlS7KMm4ZK2evu7C5fYzDpmZThrTR0Uw2yAwAvaA3j1ti7pFGcrhhSmDpO4uaTqCX1Y2MEiq5veb0Wdwz4cBd7r2IJ6tve5cNV77MR5z0BQLuRDDYQqMr1i/s1Uq+uqgOmG0VrsI9NE9Dx2UbNddt5iDjZVnTyFHLBLEwqXRpBZu73HVx4Kg6zVcYBd4njvLt6Tx6q5qd73qfIweZGtvAtb/0j375fptJKQUG8JQxd47l5CYfzj9KWvtWMX/EWChytUH0GdYspzksoBWkPT+AunGPOMRAQNrM6dsM+WNMkFx8yypx/Ppg/QPwpJvE8SAgfNVgPP4nn9algguK27301FhWYzdUw+AzHVzkIkzkE5aKqTFQHhEJwOK/KdZ5fG4ubfEUBI0p4K76VFwq+GwUEOZU6epUX0U6xpd0AKIBh5JvQVGBsQve756X1241dvsAF2MNScpbAZm9gq8I8a7vWs0f1Ltg46fm4jh+SEisrXl4RoB8xu8l7C+7CDOEI8s6uHeYDBxOC5SfNqAtMJQO/urWpkBskojWIcU5C/42r26+qgPcKcAY2NDHMq3GmBGEaUUTyqpy9Dz6H28e3jTI6bvvIH+9U//cJ+ffUv6ERUx3pgKmcuhEHWq+g8d0adve7CpYyPsOA10TTUSVXrvD8T2MX2EhINHEaJyGbaTuRJURKnl1OoclUxFfeypcsNb2HfLg7ucRQjMtP38VBAi+iiK7BUtZeZr7UcLX3rNbfaLz76U+va3e0WrZtakhJpFfhHv6PmNdnfX7CEg4p0jrm/iklV3b2c3eUXKtFlM3NOoX+r3qVHgWG9eHxd/XdpERVkftttHODDcl16rNxmrH7Qqx5C5xOYHa6gM6RoHev2OPfUQO87v32n/f6z19sA5ogsKbfi4Sy1PdymR0ouOHqm/flxsxLTpbrRLZMJ1yCOFCBnM42LLLvgbCwTNvoFQSmT8sjVjRYFE0uRQius5RCfjb9FyJlv5Y12Na7081KudlSqED4ZGmqoZqz90d1M82EyqGsJNAVb59z69VvtN5/+daBvYkrlNZfJGUvMZfbMU+bbiXObfFNpIaji8vEsPVSLA6fwh3mFbzbzzMIgqIQ9xzT3ZU/F1hRTATxadUqxUwKsCF/s72FN/VVW5FgGd+pW0Xu9nHZjoADikdBu4z0bQwXKcySnBOfWr9xsP8Pc6sb8KtCgV2Wk+ohX/LI2qyVnr8XUWtYSJjUKiAJtmpjGGIBK/RPBKjaRQdmHgM9lYZj20RKMPg6SWfwEy7YdFSQbHKeSC4QOyKjKKuxlT68/votVkhspIL1NsFepTbtDooDaFqKsKNe+ia1n/WtCFBAefJeQu751u/3uc5hbaBiXDtcmxEmEZdXcBns9QjKLQUQvEr3Xa0+vCi4AFTpy0CBM5V/a1kBvnMQFk1FgZuqarWbV8+gE5hEmcwJUAdyjAUE1nMMLtUMvCu2RnQ+GTejYqTFMxNbL0aQ2HaecAurBcjaG0XevYRY1NNSWs2JspznPqk+LfUW77Wu32HWf+Q1Hmusb/wpeUmtEZkvGzmBS41+cMtctXnUHB+HzqJN+EYxB7UlAinb0giY3K8Uzkgi67LAtFz7OMq0rQHyKMRPgFrUVuQRAfm4yF/MbfsmmDz/mIVn/oRf+Vnc5Dwje6euIFFBXrpyOweh8lEmtPGqgVqH6ab5oFJQsG//d+uWb7edX/MS6O0LvlphO4qK2iJYoPJGdUc5b3uq1tMwzuXB176RcPH9Hk03mEI4VnJh7HD1wcnoH/LzlP9O0xGpW/jk4aSZNIILH0sUTKD1Vn8fhExIBcgl5cYD2CJtiF3dqh0ga8EJDwu+N9mhHVjtik0zqoAxs745O69nDDFdxOs6vXEQ9p6DIybPWd9/5rTvst5hbfV3ss4yAaZBRcaQ1ZjXl7FWsZz8aE8YH4kJyMRXuE+8iB4jj5b+QM1IWzqxLnlxACPVYaJKjnmO5OSe6RnFjkXAfWU+kfeLBP3iOonGJzkl076oG9gKTGQdueDMbcO9khzxK0QVESDnCB0/8CI8hBaJKZe+2PdbX2Yv5JEoTGAnO3VmDe2AvTBR2T7/9a7fabz/762CyS8WQhgYMld5iTrJ6yyXLbQY7NSpAKxHVZHdNNAn0dlS4DKAZ5zXW2nOZBSCVFzWc1xG+aRt1bCaH7XXGOyzTyMIiMRHYe208CYCPJ0vJghei9vvas42Zv1diJ+8tFQKYBfzGk8kR8K3XIxCrmwHBAeYnBWkYGXFZuRIAMZz3bn35Fvv5R35ivR1MHdcLvRMjYq4tZyXiC9hjSw1hbYotmyXPu7iP7sg5VCYUsJwvJPta0zK7mS2NBG/iEBChJPnnDmdlZp1s2RNehjqt9SjSIMMMrvht1d5VEO6EJ7u15B/5lRXW/SdtFTBRbeY4J3Gmb/ulgDemqWx6WIraxz623is4yDul79R4V52UWGQertnUd3zzNjTJ9daPcPlnXCQ8stSewq7xj6fh3kfXsDhM3+ZQIyMkX8qnUh7BrrX1T9IkS4AT+0Q4gAsAsRMzNKJ8f948tuPKZ1p24TkereoGdYDqYE7qWkhKsF246c0auPsLnBPMzpGar0V4aD4q1rTbLwWoSbPU8l17ghbYXweOU5GLBMU5C/qLwhp9V+/W9Z+/znI5bRtNGAKitkoLYw2vYGr8yjYmNZKPGNI3bdsvMJV5IZD72J/3+Y+dZyuYYCnnxpOrTxd6ZKQGe5Dp4769Jz1AGY4HyJ74ahruoVsusJuQdlL4vejU8PSq7xLALIOLgIFeG/gd7ZG96wKeqvNEhNJPz6pLpl2kgJhWs3n3bmEiKH9llkeM4nfFK7UhIHXpGb/21FLv1k8/8n+Yaj1UxnmfBawDbGZizvzDxUttMbW3tAr/SsmvlboItqjplJNK/HknzqaHjeXYeonTYLnbg9xoHyWQ6e7hkEJBbcdb9sz3Waahle8cZX9fqiZC9BBW5VfXIurJYhCxoJ0aezl+2oUBvFSyCWGqHI2JBw+rQoN/e7YyB8sb6IAwAq2cFcr4IbJUAFgmFebWN2RuXWe9XZhqSaWk6fKPWdhkf03DuI7xk9AwHiGDlDGPOQjks9m5/sXnLPJ6UrIpM9LfJ5GiMO0Dgo4eyS4612qkSXwfOgQHxKQ41BeeJLPPd9Ua4PCi5vOP3mCFh75D1aCp8dIaQkj1iMil37SLFPBjARCQ7h1d9AKKTvHNwe/ir6BV8MmEwoy5nblbv//cdZZlc3Lvcic9MeCTjpttl6xssy7i7JchD57lQWMIJhnYWmJbROBnNdTYy89d5HsOZ3iW3IpPQp2p2IPaxh/KL0VSyTCBMbviqVaz6ql8xl9swJBCNLfKv6l2f6i5OJ/u4W9bfuPvkA2KwzWJiiUQpNpxmEj41P2aZ1Ji1zZWbDpnOQeNCgTJkyjqzCbB0qcE3oK59TMGE/v2Mq6iCpdXGnx/6XkL7Qz2/dUiK0WvhBMs6hJQj1srvPzGi5b5XsMOo+AjU8Hj5l5iUR1YYBkdzXCeX/bEy1ybMNToCSipfTSIUq5iJ/BUQ6iRWOhlkdUtH6DRfg+oQAK9mHZDKKAaPsuGcD2Mf/RxItOhkkhMJ6db9IsDNX3ljmsZJ2EwsbeTqUDSLiQ+k0b7G56w1JbNGFx64QmM9zKsaCWSM5mt+wbmhp3NoKC0pMOVSOXw8+FHFhCYJkOj3ZlHWqNxvuXO/qBlZx8PssigZ4qISMrkj+p3GDDjxS3N7x1/FRAAC2zt1Dhw+8cRFu3UmKxCLJVkmjlP3bTEzHt37KGblp5N0HAajhad+EFyd9ZwXoFFE3Prt/Ru1ah3i3BN81jOFI+Xnb2IMyRDV7B465DyHAE2ja+EGWFoKtKVInwRWxRddOxsZ13xg7p2vftZqiOoj1JKIwtI6bU8fCShqGuxmvM+ZJm5LLAqd+I2MHQClIdXoR9ISwWthmNxx71WfPBaiALZvD1ShUBPMkidTDPp72GQkBJWPThWJzaRcz4R4/OLc7d60CQ1BOQH8nbWilYWWc12gfFxq/DZmK7KUsdYR6NNA4AvPm2BPZH0feNARZAFcQB34LfJh2o6abJZtpn5Wmf+P8vMOT7UusIW9RgUCLkpwynjAB7NkX/w21bkdK3B9siUQaCygEIeFW9few+j6NrGdfyFq/TchPGkqLX5u/3rt9nvPnMdA5F9/q6eWv6vOVrhccsS82ccWLpdoGImvwbSfRXa6bmn02PG2I7wkdno7dID5DEqAQnST1RSzM5YZTUXfQpz6zgSZ3BRJhh6LOiQ8RPxALCm/kqwW77X+m/8JyvseiAISeq5TNEEIY1Ks50jAXxXExeXceAi6SBBv+kiH/ykRVa3qU3y+d8y6SEcTTGTOVFvvmSZHcXmD+NxYu6oIF7GyVjPVHcyKsWNHr1T4n6RZ2Q3KgERMhlEv0ij3RtvbBWUO+8jlllwhqtKKgJcFJLBjEQHp8VgUPX4ACz0okCwYh+bYl/ui6yCqVUGdZm3eoCvPCRQxTSYt3vjbjfL1ZY9GDMdECoYUWaVknFTLaFrYqGzMvEm+9nHf+q9WwWslVa6YC89e6E3qKN5Jl4+CD8PAUFZNNCOesWZC+0p7B8sDtX30VT0tBI4hnxY9jBKASEp9WhJW7i9zmPLUssxkJhd/qeenDKXcxBipsldAO3z87j7CR8W39MdFjY8vfI4+/hHymsI5gwi7rzfCg98FYDUU6fxkeSX4KU0jygHvfNs9dPx6K5Q7iAvkozLkWZkdnGq2IObO83iuP2aW+y3mFu9dAFLa521YoY964S5Yb5WWfyRwJDwySk98YYmQM5GyN7AdqjPOW2e1WJWeV5cNNXF2+LOzx7q3450GcImI0UYMSxi2bSQ3q0PWM1JfwtQaBdA8FpZqQpg7spewO/zU/hI70YII2jf74elWR5nH7++HyENwRgEG4/U/eofWn7tf4MLNirPhOLC1b1H2CXvo+gslKK8xXSx2NMig6cXyQu9tZ2IDyZ+/nrLsTyXXmZ7/lkL7IIlrV7w88EAACOaSURBVC4kylfztWqIqvIsd6G3SoLBO97PZbuhtz5+mT3hWO2qwh8q0Dewi1+OEpmxCYggIwMHEmbKHvdSqz3znVbTOCtArspXIiqqEkuCU5W/BMYwYxlw1Wi//UqzLTeDHqRRoR3BrpedznsYJBQpKlFPiLr6iaEjqeW/mcHEX175M+tXw50Yb/nT5eyv3OT8Jr4qEEnflTvF87UlsNxCNoh468XLXQMhc859zopuJ5Z/dXD/2AUEjHwchDwyMr+WP81y53/csksuYnCRxpUwFhYAJen1H2HSMEN+eqew0cYpjxu/GcddQCpvwesi38vO3pt+5uCrsETew86Bq695cPz2j922NTuSnUrK4hzkm7KYB/WKsmJcJemMiAfQfEzi5i/d4r1b3cwkbuXY6ZfQyJ7FIiuVSVI1D0lf3fZK46xFLfaeJ6+0M+gudm1CmOIrLwlRyI3bKJ0WbI/NRQ0ChuoG9lpm1olWg8mV3XKTWdcGzHnHNuExJ0egiLzuBHDpIfErDCdKOcrcpQ4xgFWre/ug9E1ZHP/o0C5ONuVTAgGP8Fr8hJAnDTyn6aElW4WxwVGkUiPCC4qb7BTfplUsoJfUzFQUvgaER5Fk55ptVB7Br2cvkhKtCBinU67q9o1CEtMPQoC5xQRHzUP507c9yU5nLftzTp5rn7hho7XQnojO0wCmXsZQnnRUm72SLU/ntOgcd/ELbQ0iFNTWEEZJWPx2NPexC0hMHYKLf0su22DZpRezDegey3RwnFU9c+wbWhixQavIpFEB+QdlH4kyTh2hi9MrUa0sioePeBlVpBG/PHjgaGE4eEqTGqOctr2sjbnlLut+7zes9omnWP0bn+8a38eBBKSXBXfKqn3DLophX3MmLVxUcirm6JwtxAL+gndUsLfQu6Ue1PNfeZE955R59hAm36/W7fYR8bBc16yeiuzZJ822S3X0ghoujm+SMHiUxCmpHGJ+o7mPX0DKcwE5ny7czRrmb3yUTRNuoberzTIz5zJ9nsbSLFZszVnIneOY2zhQs6kFAWoAQ84uZ+VfqMgChXy9CQTKqJYT5YTvcMFS3mNAuhzkkf3KLyHwyBGmTqjICcPIgNSamL5rfmS9X/wJEzZ3WXYxO/t3MxGRzd0kIMI4yFIog/bVuwgJdFD4RJFEGkSDe8oZ450R91uswOKrCy67yF5zwWLrYHf5WzhsU8BqLcnfML7xRLpxHXa+kcUs5Z8oRjxjd+kKiOCQGu/ca/2/ZHS6n31yB9Y5ZdUrFJZsitLEo0CycxCeufOtZsFS7kspsBUIE4I0d5FlZs+3LAu2UD2Op38D5hrR93Qi9iQ3pOQmqhTJdko4aQDRqH0HWuOL1vcdzBbNv4CDQhsydKA42ZyWxKVs+phe0rWlq1T/qMgiyeWtlHONAhzR9IKb3C9zK4Np9UTMrZcwPrLp5+utmec3MKC4ipWAUR68KgA39XbJYBmvS1dARGXGSYq7twAXqAk7cbb/65L8BDlEKGyjhtrCziO330kXH3tzKbyF3opGVjQ2U7tJ+8ydYzULlwXNs/RoNNI8KzY0oHnqOZkTzdPQ7Hl6SSp954ZY0vshD9EcqP28PmyCRQtwLdx+n3Vf/lUb+M0aVolin1MbM/3B0XRKuXRAOtFFr/huDzuZ9DCL1233hCCjtnrHQUBpD8EkJ79AciFhguMtX8LcYtrc415+oV3+9FU2A1yamZmrytdn5bpEeOE6DrF30hMb4yVdAQFQAVXcg+3K1PiE2gnGAK4Ck2NniyAs+DWbkykG2Fl6g8YhjQ6mo+/meOrCBpg/YwPSl/6DOhzimW3jRNXWVsu20q3chqaR1pmH1pmBCTeX805aGTWto83TgLCpDRQ3jwuSGuDxBir5Jczheeu9YIxhXlqB4IO1p3BQWHKP8T1IF3DzV8l3Ma2QQbpXtGlgggCP157KT+Ugbu7utL7//pX1Xv1jK9AjJdoVWd/hzuGS4SVgE4zwuolMWBeTFAe6BvfCctIlKPsHlboAtsgeiyJmKTylJW794s0u4I97zYXWyECgRt19JaLjE7Dxq/glwW08oKYqIEJGJlaRxnlgtHIY/e0grFFYFBz98a3XBAgD/+703rtiaZahaQqb2URg8xbfiXsfZhSv1HEmBZonM2+h1cxbYpn5K83mL0SwCKMNlJ2zGJlpCuRTfDkxm5tv8ms0XSVF/RlLSwUg89FZyoHGH3CKUbxUS5ykdzFxvJVwohMwS3sOTtkXnPx37LbeK79mvV/+PTQjc8EvGsqV8U5kPOEbhUU1smbx9rEbiaMdvqo4OjGbEtkAmf+EzAF2Xe/67l227JwVduzFxwaoCRRKunh8D1VAeJJvrC5VAfG2Aa2r4t72UHAqEKdwQG7UQA4XGP+QNEZKRjTwH5doA/Qy4PfIZiuu3cAJt39AK7HjkjZOxnTLtNAx0DzTbMYsdm5ZQPsHAULrZBY+xjsUinX1xE3MN0y4IUR2EEIN7LgqX5cZvVD+YlYB65eyu8Iq4CI9oJfvo6v88Rce3Wrd7/6C9f/0XtfQrrFj3JHAiGXkYBORcuvbGWbx5jglap8KbKQ0KhkGXKqERGoJwgADiJ1b9gTt6ZUW79AYLiQpw5GqgAStgYDs0T6uYCSCH6hg0kJGebgw4nHLjju1qx/pYPSO0VHmtSpTJ4o7Ed5taDh72PJ311h/mfmWUfunRaabBGgud3rf5s2x7Cz1ws2j942et+YZtHs4TlqClFPCKj3nrHD3Gl3Gjh4Jd6FN3hOWqpNgoD2c1uBfVBfuj6637k98zwprwDO+G02mAhWgI6R7d3aWTJ0JKcMDwCha6icBcD+4bn2AMRqesci9Ma52U6kcCE/LpSsggkqmSg+9V2JYZ560QN1fOirZsndJth4mCjrDcle4m266y3ZTzZiEKw7touKudhegQmbD4Ds38ygamF0L+62ZcZ75HDo0ZwH3ZWif5ZadJwEK5lsGwcowFuRO+YsGSr8EkIIIS6NAvVolbYRcsxl6Pv0t6/3cr6C/RgjIw987EDyP7PytC5rMScgAHbRwaY+2+oFe5bsMjpxC5UMFoyvomBXl1uFbEYGiyhT4Q1ssRkjvnrKAADmbRrNPjJdPAFNcWElH+l7KSR4lP+HKOj7rLqaMTtygCMktBof4SbhXWUTwRgaFoM753TRemfnLIA+4woj8Mq1oniZ61FrRLk10IMxB+yygrUP7J7vwKO4rrCjzToOl0YTj2LtB7aL8pAkkSInTc7lz2ImnuwuYXgIPnQ0FzMnud/+b9f8fG3UnByGV8HYilCc01E9qJBdaH0paApHvy3sj3ZlvaPRJeXIY/ZJkD9pd2xkHwalovB1FWCVcygKi8oORxDjV7pzhAFKE35/zdyoB/WIkaRKYV796GF5O5g2bGxRVMdhms4cQIJluWtcvbSX7WD1vmG/SNFl62WzOPMJmM+5Dz9sihGjZCcTHHHRhPFBpSyiUqeLkrf8XN1jPx39g+dseQfj4XtN75ErwhscDXWPUkGsiINswsVxw4tsDpVDZdw5XAK6UUc/2rpJfryTYlRDolAUEUNkqiA70ALwYaxhiJaymrAecIs9EIRMuUvVuwiEY8b1MKzc1uW1FeLZugx6rAxNLwEQbBCg7d7Y1voWJnisf6xWMt12G0QcR9Oi6qr4vshKy70vfw6z6iRW3Y9LSCeEG+bDvRvOo9Bh+dbDV2JcG6WknTUD0lvFoEpngOAOdA5iDdL7IDCRvgVoJl7KAACrao9iF+pMZIAYoZ6JKYFAtaTqeIKzSEt7R4zRIHp3hiKCRbAlOYlZl5jL9pm0BYWje4aaVksJ5kvqGfAobN1nPVd+03mv/EMZ79NIXRPC+zErzD0dzESiegWrhrHVyAI42nHYURvP9RMcB1gGOpd6+bqfNP0rb4wqBygCRroCISQSozAv5+Q+Ul+dwd7GEHOlBZCPq4sBIHy9Qnvv72bnyBGt4GUdOMOApgkk/DHExOe6aODjwhzus96rvss/wmtAdLYlQHM3NkNPnidefR3Mp+0ZHqGmQsJ8DcKraQcs8QiIXhLsy0KYrIM4EABp7jpzwh1palUG04ql6a5FchvF3Kd8oHCKHesPoKZJwNL71arqPGf0PtUlIQHFdiLgrvvwMkPZ983+s5/If0NZJmDc26hUn5iv/ITj/TN/IPFS54fe9sJgQqPZktTqHrCQZPO1H844X/nQFRAXZzy58ezVNBNAcgeol8niJN+T7IWgmD7qJA104Eg6mqSDa1Bx/ojW88eNhbKX8vSdKXHqnxKDaA6C4a7f1fPLfGRX/FW9JIEnKhSfmG+/+/egvEcTyL3q3dlm+h72ZJchV6SYOrlQFRH3VYgbvxSrh4IFVSeaKAxUbuaWKAlpIcxyPWfXq9zGWskTGNG2SpDcsAcg3NZNw8Bu4/S7r+ci3bOD6h6nlEY6onccoECPi7GUVRIXRINu9qSPY9epIcCkc8asjIjBVAYlWRmlAzmmeZklOsTKRRo3VvUwYbGY3q978L0FzCB0xfbmTYEig+PX/50+t+2PfZ+oIGlkmhE/yJHJMVlo6BUeWDqb3jiGA7Y+2U4SSmmotu4mDK1UB2aesVPYpFeI+aVddQGSoeAdAecVkYjbak7kT0BxvvIqBxERzSDg0fzs6OFV/trcTc+q71vPRnwQelWqWsEWNpE9S5JEIZpHOFe3D27EZDUKgh0fYqvE+AQCmKiBuYomQsfCOGOGI3EOJRdxj4blwFKwG4ah/1fvYj4YGuZYCMOKtqKwE929Ui8ukKtx5H2Mb/2n9/3sXQoFESC0rLf0iPUPnDQFpOXQH6UtzaafDTgYJ1RFZzU6w1kgrQx7RTmapTrNK26UqICrDoo5y0zJad0B+xDlwTgrOmVptjhOOt8Y3XRk0h+ghoeHnU+nRDD6PiOf+X/+OVX/ftMIaLRdIhEPxo2DIXxEnvaXSYwkJUzj6dvRg+aWsptKEGxLXsJpw1jJtQh14LJiEaWYS0kpVQDzJXC3zkdikwQl+hAiI8xa4Cl0xv6sD3dVbpa5ctTnQHAwEsu0ZzQlqbHqpMghBXNjU++UfWtcV32ehH0Xi6YQCqjQdg1golzACs2n1drIHAF/zGmGovnuWafh1rPspUAGFmQcRk3RhTVlAEuZQ/7yYxGtSlfZh7kooqpB4kJBgqsisanj1exkE5Aw8X1KMcJQqjmAOFNett55Pfc/6vstmdYWkOMrLWnRUZZ66WRXKRKArO5+wgZ3VvprpMFPANc7XWh05MNA/dPI5ciEwtWu6AiJKc2KurxMXiKL+4eiilhgRNwlH3nLHH0eD/GOsJ1kGHcKeXt4TpcoDs0pT5/t/+Qfrfs/XrbBa61PKnNMtIZ5o6lt8iAvK4lTEW7TtG9q92VP5vMaHQPN8WSlyQbwrNE7IliFpOhVgLX36LTMC3J62EKh4yaaJxcHTUo+ShERONbycHqUU4P+a44+3hrd9MhkEZGSBmtkLUHH13z9g/d/5iXX/43eYt5aohiQZJTXEefj+Xg6JOaaHgEUoI7VDOh9iPwGlRJDADe/HlHRFP2qdD49FJ1gpj0rAmq6ACEgGvTJNbQF0UVq9MIebU0lEtIY0yDGrNAj4KplVC4iiObKQQAXotOC+YZP1fur71vv9G2gRIxyKUPFG+P4LwMESfADS3dHDPCz24nXhF8NFJPf//eS84YTaZbMcukBWrt4NXuW9WE4s+vYzs2fjheoq/BJ3TA4pK5Kr8PLqVZxF4QhHHyE/zhrf+FFWGWJWsfFDWPJLkzeJk7/pVut+/7csf+uG0D6TcKlgJ9EJFXeAsXf7XuvTJEXMP7fp47squ+tw0Zna9C5xoqD25q2ES1mDACK1YXY2U7fphvP1CXFqRCWgn6w0y3laTI4iqDmOrty3f4oFUOCuLYVoi7nwEDfDCHjfL35r3e/6qhW1I0sUDAlWYpZNFiqeLwIsE6WLdej9rNsPeywCPi9LAjSpAJZlDpx17N7eOJf90KBr0HaCVGo4fSFJV0CcoihrttbxKRRZ1jcoTL8p68pZpAwRBevXn/RWveo9tDnAW3OrfM4UcSnMAtsT9X7pvxgZ/w0LybTeg4+i1pBmmWQnCASShLlbAsKOIb4yj2cFV4NLwPPBTI131DXXWcMMbdvk0HMlhuCtAMApC0go8OzCVZZtbLRCxx4Ad/Sqgc5jg0FMHCk/yE0hjBHxmuPorfr7j7AGfSWMrxY6I+TqtUJI8g88aD3v/Zr1//5hBClJR2noVyUuMp9Q7GWAMI8Q1zbWVXQR0qGi7uQCPoeVS/O8Zmudz/EGLC/OsvhM78u2qD7U5A8YP0WdBJhxqL+52bJHrXK7/IC5T4WXJeEQfl5EQM2dx5pjaHO849MIx1HMYMasUjjaIUPB9f/yeut8/ocYHX+gUto/PeqBi+qBDhZKhf21hGt6yY83JaAJlQr0L7BOZdbRsxFihhMw47XlaDzfZbz5jPR9imQQ0zgqjIO0cH7hJTANDb7IYCPlPiXCwEl4STiiNkFT1ByL5njtB9judB62MDsQMjVcr4u7Wbtx9bes67LPW2EL7Q22Vh3SSxVIVDWYCxw1yHUW+p7NHNgpPARdFcEZZ4mrX22ATQEXnbLYcvVsUCFTVfzlv8qQNEUBAUABCrFF29zpj2fTaZaR0psz5YUkwQtEXCvmjj3GGv7uQ2EnEg38aasdelEKa9dY19s+Zb3/ys72e9XegBDe3oAiIop+VegkINqoobud3dwFsyS9ypwa49oatn5Wnc0/fr6TUmGBxN4KqQjE6QqICJs0ULWVZ+708wODiN5O+IrgkF6izh0Aug+8BOgdt5rjjrWGd36WrXoeExhJcXkx8IebrPPFH7a+H96N5lSPSuL0Xo9Vir/AEl5qe+zdiIlVhasIw/7I0BjtsfCkRTb/ODbtE+D8VCw5PXjZCZl0XboCIth8WgUAc6998l+z+yAmCI/eWNe9ml2sOUVs5/EEYH/GrFKD/DX/RFcumlFT1tEaxa5u336n67WfZQO3vZiXMqngOH0j4dBPTk2UKnQCT8eu6TyQfo47qEbnEzoBrAbaHv/sk6y2FvMK5xpEdNavQi5lARGgwcQSY2SXHW+1T3jaIOjeozX4WHW+SGcJSiS67uqtOgaz6vUf5lz4ExnmgNuZDp5ft8G63/kZ67qcVX8cNuOVgJtUYKa0YnpVh+hQgDLMjO3cxSItFktFgY5yPTTmJD1BRxXJbBrnJz/1ZOquynTpjoRdugLijBWHmcCKeVm1T73UalZhjqgLNLqqon4EirvgEg6uv7mjDLRTYc0xR1vj//s8ZtUq3scu3Ies81Ufs95v3xwGRD0Zfas0wD0KiodX70UoawNsDRLme/t9GYroUFUzhCgTDZSf8IyTrbZFW7ZSCU9QZZuugHhqIrmorjvCgjnS8Np/tpoVy0thg7Wzx5y8S0lLDAPBUYDJGQT0WbmXfZDzFDkDT+eGsBy279r/tr1/c4UV7trixyr4jIEE7dK4jwvZsHSr8BEs3XXv6GJbZToWtHWpAuOL5P1k3iTAc4+fZ8c++TjWfwCj3ATBl66AONQkqfEQiXwyLpJh39n6V7+H8QJsd/X6OHJcVAtEZpwojAN5w7WUN4+RwaPQ+CDg0Vb/2ssts4J9c0Wpjnbr+fBXmKL+71bcyCCocIzfKUUpSWkOhYnRqtkJVnCVwpTr3MZWP3761ARxXsh2n6uDwyVST6P6eWh66l+dZm2L2N9YlS5wTxSUKvZ0nTNYGfh4MwhF9vhzmch3BVvdMAtT5lbMeTJr2lgKCbO45Cag1xyLWfWuL3Cw6DHAzwDVhvXW+TcfYsrIbzmHwz8Ipag0DvRLl7qppVbU9qdROpDs3exkElCPREktq0NKyMc8kjKQcAwwMLjqkqPspGef7BWu1u0LbJ8Aekgpjy1yZNOxfT2qr8AWTSLEskefzoS+f7HaU07lyyTrUnmUPKNKNZVIKghR24Vad569zUFX7mX/zHEG7Puqc/5++DMfFR+45RH6FJNJiKkAMHmJZKXpEkbsZR9ebfWjmnnSHSCUoKAsFp25xJ74vqcyg0c9VywggG30fqJ0yAQISCLtLvk0to46ld6gj1j9817sZ2r4GRsJyhNeOFE44l1T1o95jLeZsstP5kgDRsWv+gZnb7CRwjr2puJEVRXSYAlOOMQpZRhY0BdygU+eWrqTqe7VgBfUBSIMKTytK9vsCW+52FrnavVg6LlSUUUrNiViHDCZdCcr7icrn9+DWeXFolpq9iKre/5bLXfWJdbzxQ/awN33MK8G5tMgoxhQVJgI5wCRl8w8aquchOPdX6JBPguT6hHrfMMn2NFwHYLMKknF1ViG7rKwprKDvgVwrnX8uTCw2bU1nAcymWip1AWSm+D1WbvkHX9iy85ckZhTai9RRsAtAZooZTcBAuKlEJi/RAHsSHb4yK463Zre8xUb+ONPYcQf28CD99BLRE3mOwjynTfy+UgMKV3nZkGSHo+SpUDR5O7CFf3c40uP56Qvf6kIRCHcG+TH0ZHwfs4zbLWBn1xnPVf8h+XvpZeqAeHQTFylIRfv4WlKXtU34ra806vIcWbt1r+nnxkzYR6WKFURl9Au5E8OSUYKlleLnjQTes5x8+zx/3CxrTpvlQtLnB/mHaOUV8XgGwHpygtIOTbRT00QagBIU99suQueZTWnXWx1jz7EwZq/R6PciknzsBV2bfeu1qI2gvBNm2WAjsCh0VB0ygvLhOR+I9Ph70vxiKojCDS3ytscC5hoeC0j47/mrEImGmpv2onU5yMUUCWCVAxS0vqJ2zbeD531nGTmwcm7SuRfyihJXCyv7Ars/PKYJx1t57/2Ipt/zAJIT2jCM36bKLVRhnTlBaQss5JXJo2XkO7YLZhWOpo5QyM+e8I5Vvc8iLUFYXlkrRXu+6Pl77+FUes1VminHeAU4zt1sUJWTXn2XT9EYTG0SC0B0F0EFYPj914P5wge1QXr+z6hsk8/g32r/pXFEJx796Z/tb4f3R7O3VAS+lXpFBEgG7MTWZwU0EnU2fnQFq9EYrjQVrjulXBK1xdlcS9iLeicj9yMWjvndU+w8y49m7yDqR3yrxQUo8NscgRE1Hfyi1Fjw5fCEtPrhCpKL7OAyY78TNPme6nN+zkDsGOHFbes4cixjVbYvpVanudOTLL+bit0c++Fy4fUMqRfy3HNOkBT9+ZZrPprY8Uj5wMuWG4ZRsYztIcyDU02cN3N1v/bB/BrpBabTuUiOCVzU73NAQrlzsmvTiFwVO2dpw0igfHJDrES8Q88gkccQtayxDwtPcsTo5e991ceSReZ1kQTTUmwtrnW2lbOtuXnLbeTnnWyzT1qnq/vEDAF3svgY440kcUjk+MmR0DKcVWBOPW5qztYlBYtvb0hD1Svg8HrOUW2ZZbZYoRGYdH1dTN7FsHo6WQ7HZaLJiUZyzmj7kG+1REDmUYW+pdekIBrF90Zp1kynx6sBZa/41HiqKSVt36HiRNTyrmwg59m40si4NhzXng23ag527t5j/Vs77Hu3T3Ws6eHOokJjCzB1e6FfXtZSizmZrZvHKiL1FEnjMiuo9BkFsXS0bPi5JpzLHCqtca2RmumR2rmihk299gFtvCEhTZ75SxWB86gnlT7I0kxEY5QlBFwh37CL9AocsmE551OhpGoFIVrnlKqSTHF0lKxJcJTisK34SwOvWJQ6jc32N4XX8lrtIi4QRu2TXHyOK6upIU/T6GlyyzkPjolnmCN738FFRNtvGytKOh1Qm9vH0LCLGVO7u3c2e29XL27qIighc4O2cu0FPX8KTnRr4MxlL6ufpuxpM3qmSsls0m0nrVwhrWwPDY3o94a2hqsZQ5LZefOQBgBSKR1lUU6SVoOa5Vdpr6AjIegFK4LlQRHgkAt1vul/7TuD3yXZxIeSGq05DaerCb121gJ6y5cwDV70gJruebtTMBc5GHOrNKc0gDM7t1HEyefCg9XsPLglJwWW+n7Wk7aFbOLdOoli+vEXZAUpuQRHl8mK6HQT4FV7CbfxJpM4lC6KiAVZSy8+pf8OVvz7LKez/3cazkHb6oLSORQCYg2XcHEafroKxCOxXCs2BlUvUudiBBCFPGxCB4LaFF/9ljhIlqJbq5c8ddgduW0zRF+BfoXTjPppEA8vXLBUvpMc9GzE133KnaxbqliECsMmoRExagajxpNpVh/2XOt9s+YoKgerMOBQuJG4VGghq/L0KX9NMudejK4JpJPqzkwPXGo4cXiwaED9B2PobYXT/NAoHYU8a9dSohDPLfWeScyhnhBEEppSzj4Km4cLy1T7e5wKP6x07hUcmKAhBNUujNmWMPbX2g1p7AJnMys5JXzDa9L/DP2nCv3ZYQv3pWTlISq73yf1T7/XKt91iUuCEEqhBw4QgtnV7SBC44zsz6GqUUnsbbTC58qE+J5LxN0C7ST3BAPgVE6iuqCwsXP7nDBITCmQRzPj3s1uyO7DRJLxks0PHhPipsdmBD3sSjqdZ+0wr0cCaB5GeVjItVYuoDowhzxSe4K1rZEuWecZE0fvIytUef6LiwR/en7/ikwLSBltHHhoLp1Q0C2NLXdwE13WNcrP2WFnfTcyJxIakmvlcu+rRqv2wSIhOwY1dYSEsY5cucut+Zr30NXd6NrAi1CmnYHp8A0lcpopJpWjC8FIptbAlNz5knW8P7nM2FRXZNeF5d9UYVemVI5pCLpohbENactscYrXs08M4SD59AyqELYqxCkaQEZVihuIjNW4O1HFwj2gn3qRUFI2hh0lJklLqtaB3DeuaA72nDpTGt834ss+xhmDgBzaE9ULfBVB9i0iTW8SJz5gwToqqarujxlkvR9/6fW9dZrzLQ7jgbcvE0C28mc8Ybw8MQq/BzNPVVzAlbPkmw3rZgdcOwca/7yW9kPYGXQHEk4EYXYtBsFBaY1yHAiiXGCGgm1rbpA2eJHW/3UPQVN8vonM5AmshFRy1bFeur5kXfCHXlrTpWcj5ZLOPhHYHPnrrTmz73JalaudBBLmkNtj0mB1aGccpcje6BwVMUlcwvG06zhbJ3Vv+K57u+56sdBk0hW1Hjnf8Kd8pTmEsPr7nKLcDzlJJY2v9jNKgYnCJf0TLuxUGDaxDoo1cT8MJkzGj3/6t0iqPer37OeD/3Aij08uKmleAdNLN0I0lzBeArCIS33mout6W0vY4InqsW1xbS6GA/RpwXkYNRDe3gbRLVzMshQZBQ5wx5Zvd/6kfWwq6Ix41VhJVfmLYWl4YnyoLTk5xd72zJzmBD4+qdb3Qufzmh5A6AChAREwj2tQcZM/WkBORjpvDurLBJM6eOIuvT12cDPOFqNfbIKG1nMpQVbCeN6xU6U1FxMV2lGf9Lozp2zkpH/57HGn91iaqQ5klzjvRSQGjRHTELTAjKWopa55VqCO1Mo8rfdbV1v+JzlH2Tpah1Coukpeu9xxpLBCN9Ig0kgPFHu0mx9/Vb/YvYbe8uLLLOQaTEeR5dplxYFpgVkLJR0rZJwvzRJJsdxa6s5wfbffBcU33RCXa4yu9ISEmd+Acswn/zzWjmj5ElW96Jn8KxdV5QXeSrfaY0hQqXipgVkLGRU7Y1gDB2RZu7Wju3Wd82PrPeaX1tRi4pU48skSsOJ72mEW0ut1T3zLKu79EmWO+0kh0PJ+3gNKsRnJE8LSBoU9zSmBWQspCy1S8rUg3uZKs7odf4Pt1vXe6/hPPRNLBWmdo8DeGXRR5WthELMTpr0Clju8Y+x+tc902rPPt2KHEGmY99cQ8nk81m4/kEQzFFlMB3pYBSYFpCDUWik92J08WK8yxOZXyYXvUbF9l3W9/UfW++117MJXXvoCtY3MoX0sX+v78r8CozC5yYVOqq1zrLHLbL6Sy9mjcoFnB7c7F3N3t7wdMq+8TYKyU+71CgwLSBpkbK8XSKzSutL2Ocp//A6G/jdndb/i9uYPr/Finv2IjxhfbcvSU0Ey7uSm7X9UQMHgzazV9cCJkqys8sZx1nNqccSNjMITyJfLlfeGEkLgel0RqLAtICMRJWxhElAxLyq+TWyroqdPx1R7Dzd1cOU+Z2W37DRig/tYgujLpb2IjDaF4ydV7IL6IVa2MJu8jOtZtlCy86cw94RbKSANhqUg0RbuMmmvHh2VcRt2lWEAv8fKawOSjil53MAAAAASUVORK5CYII=;" parent="t2k2UjqAHbA6nQ_ANtjL-36" vertex="1">
          <mxGeometry x="2" y="2" width="20.1" height="20" as="geometry" />
        </mxCell>
        <mxCell id="t2k2UjqAHbA6nQ_ANtjL-53" value="" style="group" parent="1" vertex="1" connectable="0">
          <mxGeometry x="138.51" y="80" width="120" height="80" as="geometry" />
        </mxCell>
        <mxCell id="t2k2UjqAHbA6nQ_ANtjL-54" value="&lt;font style=&quot;font-size: 10px;&quot;&gt;entsoe_scraper&lt;/font&gt;" style="rounded=0;whiteSpace=wrap;html=1;" parent="t2k2UjqAHbA6nQ_ANtjL-53" vertex="1">
          <mxGeometry width="120" height="80" as="geometry" />
        </mxCell>
        <mxCell id="t2k2UjqAHbA6nQ_ANtjL-55" value="" style="shape=image;verticalLabelPosition=bottom;labelBackgroundColor=default;verticalAlign=top;aspect=fixed;imageAspect=0;image=data:image/png,iVBORw0KGgoAAAANSUhEUgAAAMgAAADICAYAAACtWK6eAAAnO0lEQVR4nOyde2wb173nj1yie/4QuqPCuBnsFST21N24aMqk67QxYHl52ExSp3WbtLERX5tFlNuUcXtTOMXm2srednmIJltVm6DOxt04vO7GQug0XicbZ6+zVeoJeLjSRR3UQl3GbVysMyW1vthJ63s1CYSLg65QLUY8tGWFnHNmOEMOqfkAgRFxHoff4W/O6/eIgQ4DUbIfInwjAOAmRSMbAQBx/l8//3c1lwEAFgDgEgDgoqWTiwCA8wCANyw9d7kDXyGih+nrxE0VLbsFIrwNIqwBAG4GAPhlqBUAALV0MsUM+iozSgs+XTdijdI2A1G07CaIcBoivAMAMNiGWzIAwJSlkwIz6CvMKC224Z4RPUagBgJRMgYRvkfRyEO8p+gUJjPoYUsnzzCjZHawHRFdRiAGYhuGopE9EOHvAAA2BHEPjzBuKD+IDCVCBt8NRNGyn1M0chAAsNHva/uIxQz6uKWTJ5hRYp1uTER48c1AIEqqaoY+BQDY4dc128AFSyd7LT1X6nRDIsLJB/y4iJop3q1o5GcAgH/jx/XayHqI8ChEeP3ifKW4OF+NJvIR19BSDwJREioa+SFEeK9P7bHstzp/s1f4nsfKpdoYAGBQ0YjK90hu8HFF7JyZxzuYUXrbp+tF9ACeDYQPqf6uxdUp+8d/ytLJFN/ou+D2AoqWXQ8A2AIR1iDC21pcFLDnJrvMfOq1Fq4R0UN4MhCIkterGap7fHvbw5iTfH/iNb8nyYqWvZHvt4zaQygv7WMGfdDMp57xs10R3YlrA1EzRfttfdLDj295iZUZ9AlLz11ye1+38OHfHojwmJdehRn0ITOfejKY1kV0C64MhBvHFPeTkmWR7z081om9B74ncy9E+FH7K7g5NzKSCGkD4cOqGZc9xxlLJ/dbeu7X3prnHxAlFUUj34MIP+jmvMhI1jZSy7x8Qj7j4g1s9xr//vKJ0a8vzE6+01oT/WFxvsoWZid/CgCg3EnyQzLnxQbi2yDC5xdmJ98KvpURYUNoIPZYXs3Q0y52xk1LJ7dfPnHf8cX56p9ab6K/MKNUZQZ9rn/TaEJ2bhIbiH8eAPA/mVEKhbFHtA+hgazfefSp2ED8S5LXO2fm8daF2cnftt604Ficr/4zM+jx2ED8w7GB+GckTvkgRHgbM+ik3RO1oYkRIcFxDqJmindDhF+UvNaMmcd3dFsMhpop/juI8OOSh79YGevbGXCTIkLEumYfQJQchAgfkbxOVxqHjZlPPWFPxCUP36FminsCblJEiGg6xBo8UPmxpG+VPay6tRuNo87C7OQbEGEYG4iPiI6NDcT/LTPos/YwrT2ti+gkDYdY3GV9SuJ808zjT7nd34AoqSoa+RpEeDuf/Cv2tfiy8Iv2/KATEYDx8aWfAAB2SRx6pDLW9/U2NCmiw7yvB4EoGVu/8+j/kNjvWLR0crvbCbmaKe5TNHIyNhDfxl1VIP+o3zYWiPBX+jeN7gYA/IYZpd+5+jYtwgz6Wv+m0S8BAP5McKjds56MVrV6n/fNQRSN7JFZ0mUG/Y6l595wczM1U/whRPigxE78BkUjenx86VmIkl78qTxhDxMtnezi8eyOKBqRndhHdDHX9CDcLeO/AQA+LDjvzOUTo193s8/BV4v+g8v23dS/afQvIcK/X5id/JXLcz3BjNIfIMIsNhC/XXAoAgBMMaP0D+1oV0RnuKYHgQjfI7F5Zg+t7nczR7DnHNwXygvrIcJH4+NLRUXLtiW+3dLJkzzXliOKRsba0Z6IznFND6Jm6H8FAPwrpxOYQf/L5RP3Tbq5yfqdRw/EBuKf9dpIThwinIEIg8X5ys+D3KXn1/4Nd5l3wjbY55hRsoJqS0RnudKDKFp2k0TwE7N08pjbm/DVKj+Adk+kZuibipa9xadrNoTHqZ8SHBaDCD8QZDsiOssVA4EIp0UH1+I5PLms3+DhHCc2Kho5o2aKT0OUVHy+9hUsnRDRMTK6RXQvKw1ElI1kkRn0CY/3EaUWPcsjDV0BEd6rZuhbaqZ4t8d2OWLpuVkAwIzgsEFFy24J4v4RnWfZQPgDFoXPngwqEtDSySFLJ/bw7oyH01WI8Ivx8aW/gyjZKNl1y20THSPxconoUpYNhCc7cMTSSSHIhlh67ldmHm/lflFe3Fa223MTNVPcB1HSt6z1zKCviNrj4xwrImTUDUQTHLfADBp4pg9mlBbNfOpJM48/bvdYHi7RDxE+qGboz/migx9tYhJt2aBoWd97r4jOsw6iZL/E6tWpdqboZEbpUmWs78vMoDt4HRC33Mwn8f+Jf7+WsHQiY6zRPKQHWceL1zgOSXjeqrZj5lMvmXn8SWbQQx4m8TGI8MN82PWFVtrBDPq66BiIcCez10cEhD3EukniOFc+V37CjJJl5lPfsnQyIrO73YA4RPhUfHzpBERJV1lNVrYBAHDO6RiIsIyOEV3GOl72zAnLS8ZDv7H03Bs113o6JuNM2IAdvDfxOhQ6K/g8zNnsIzyyrkkdwJV03Djq8En8D/gkXvdwifUQ4SlFy37C7YmWTkS9l+rHfCciXHSVgdRhRqlSGeu7jRk0zRNcu6Ff0chRD0vBF0UHQIQ9DeEiwss6UWwGz7IeSsx86piZxx8DABx1eerNEOE7XZ5TlTimHbUXI9qITA8S6tLK9gS6MtZ3n6UT7Ka3UzQiE1q7EpnNy3/h8poRIadpVpMVdEUyBkvPlfgk/lHJJWFhgoaVMIPK7MdEQ6weQ8ZAugZmlJiZT33X0skNEkvCLhNZR2Wk1yI9ZSCgFr3YzwOdRMuu0Q8+QojMSo5vjn9Bo2aKX4AIH5KYVwG3q3OKlpXpcbpiOBohT4xPwp0yh4R+ZQai5CCvsHuX7DnMoG73UWT2OP7R5TUjQs46XjizKbxgZiiBKBlTM8V9aoa+5cY4ePCXbFrVOjIviig2vceIcW9Zp2whoXTjVrTsLYq2HMzk2kmwVvHKdVGfj0ocE3hpuYj2EuM7xNjhGL/jyVtiRaWovR7nRzOWTv7a/X2xaNK/YOm5UO8ZRbhnnaUTkQvFIC+13HHUTPEeezjFy6h5MY4jPAu9a2dHCW9doStKRPcRk3Qh3wIAeKUN7WkIRMm4mqFPAwCEocFNuGjpZK+l54RxHU3ub+u0WXCYF1f8iJCzTibWQyIkNxD4JPxv+CTci3EwZtBHzTz+pFfjqLUD3yLhsyZyh4/oQtbxcbOjQ6JMUge/UbTsFjVD3+QpS6GHS1BLJzeZ+dR3Ww0Xlvz+pVbuERFO6jvpoj2BDYqWvbEN7bF7jfXx8aVnFY3MeAxCuswMmq6M9aUsPedLrUSIsMix0bL0nGPEYUR3smwglk6Em2btyCCoZor38uGUKCduM+xJ+MfMfOqYX23iKU5FSbM7ErMfETzLBsIM+qoojBUiPApR0stQRwhEeGN8fGkaInxUonBPI85bOhmpjPV93e9E0opG9oqOsXQiyuEb0aVwA1muLyh6C67nxXV8ByI85tb9nGNPwsfMPP6Upef+3v92LSd5EA2vGE8uF9GDXPHmlcmcaP+QPWYtDGKHecrM44+b+dQPgnJFVzRyQGKB4GQ3FzCNcOaKgfC3oChz+wZFI/d6uA/1cE4zLjGD7qiM9d3BjFJg4cC86I/M8MqtT1dEF3GlgM7ifPVPEOH+2EDcye0ExAbin2EG/fHifNXN0uk/+zDJX2QG/c+XT4zeY+m5X7Z4LSGDBypPSfh5nTfzKdduKxHdwzUBU5ZOnpHIOaUqGvmem5tYeu41j2l66py1dLLZzKe+3Y5qToqWTcqspDGDRoU8e5xrSrAtzlcXIMLrYwNxR7cKuxexh03MKMlk+liGGfR0/6bRtGRcRR3LnoRfPjH6wMLsZFuKZUKU7F+/8+jPeO12Jy7a7QqyFFxE5+lb/Qd77M33IkQ/kEu1JAklaQ9W7lP1smS60xfNPLZ7jLa6kMfHl56V7D1GzXzKVa3GiO7jA6v/wHuRmETRzQ/1bxpNMIMel32LLs5X7R7hx7GB+D/FBuI32NdocNiMpZOMmU99f3G++p70N/EBNVP8WmwgLlOq+uylH3zkr9rQpIgO874eBNTe9FDN0F/KuHowgx4y86lvebm5omXtnuR6vpRq90Szlp7zUgOxZdRMMQkR1mXc6O35kKXnOpbQO6J9NDQQwCeqikaklmeZQR828ymv9Qs7jqJlN/HvKpwftfJCiOg+3jfEqmNPwPmE/TOii8QG4rdDhK2F2cmue6ty4zgFAPiwxOH2xHzn4nz1j21oWkQIaGogYHnOUCn2bxrdLpNkLTYQ3wYRhguzk57jLtqNPazq3zT6M0njWLR0sm1hdlJ65S6i+2k6xKoDUfKjaoaelVjVqvOCmcdfD7v7hT0hhwgflg3dZQZ90MynfhR8yyLChGMPAmorT/MQ4XOxgfguyUyMN/RvGv0SAOB/MaP0B3+a6R8QJfsHD1Se4atVUpklmUGPmPnUd4NvXUTYEBqIzcLs5NsQ4d/HBuKy5Y7/DCL8lxBhtjhf+UVYNtMULZvkm4CO7jSrmLp8YnRPWL5DRHuRMhBQM5JZeyJuzzUkT4nZk/f+TaNfAQD8xs2uu99AlFQHD1SegggfdDFUtJkx8/jOdlb4jQgXwjnIamqF+pd/aG45aenkUUvPzXo41xO2YSgaOcC9ct0Ge83wFEGhnktFBItrAwGtGQngO+WHmEFfCerNzLMu7uXBTl6iIKfMPN4ZGUeEJwMBNSO5m4fIei1cucB7lZPMoK+34qULUTIGEb4FIryNJ1gQxZA3xZ6QWzr5RlQPJAK0YiCg9qa+UdHISZ/y957jbu3neZZCe86ywAx6qf5j5SUI+nki6Y9ChDfyjIebWzDUOovMoA9FS7kRK2nJQADPlatm6N8CAHb406SOcNHSya4g5kfcqLdAhDfz/L4beGKK1ckpLvGIzovMoOeZQc8wg76xloZ5YdSqZQOpo2aKe/i8JBR5fGVhBj1k6eQRP8VVtKzds9l63NVi8m/G52wvMIO+1I5gsXYTdq18MxDAk76pGfp9AMD9fl43IOzh3IN+euUqWvZORSMPe8zQIsL+ARQsnRz0ULohdHSLVr4aSB0+N3kcANCRnL4CLtby9foX7KRo2c8pGhmXDATzA/vh5yw913UZ5btNq0AMpA5fbh0DAGwPQa1De6z6uKWTY36tUPHSb0/z79dulhNzWzoJLO2Rn3SrVoEaSB1Fy8Yhwg/wzCbtrHnI+FLykVayuzdCzRTv4c6Obnbmg+Ccmcc7mFF6u8PtaEo3a9UWA1mJomW3QIR3QIS3t7Jf4YA9OZuydHKKb0b6urIBUTKmaOSHvIhPWFhgBt1l5lOvdrohK+kFrdpuICuxexYAwBY+WfMyJl3geybneX2OUpBZ1iFK9qsZeqKFQj5BssgjO5/sdENAD2nVUQOpI5NJhBmUMIOe56WW7V7iUjtrAvIH/tMWV11s471g6eTCqpos/RDhQb72v1kmQK0ZfLOzo0bSS1p1jYHwEmrPtK9VV6lVuqKnXbrJ29gTQt3SSYEZ9DXZFEl8b+BuPmdzXSOlk0bSa1p1jYHYk+3KWN+X29Ska4iPLz0HAHCTOnWRLy8+1upSrKJlb1U08h2XPzh7CHFXJ+YkvaaVVERdSNgGUbLtqyBqprjP5QOnlk5uqIz13efHPoWl516vjPWl7Imliyz5MYjwCxAlZWq7+0YvatVNBgI9Zpb3jKJlb4QIy+bfXXZ29LP020rMfOq4mcefAgDIFuux5wEveixX4Zpe1aqbDKRenySQKlfvv9fyEuVRyQ3OBWZQLehxvz0ur4z1fZEZ9FHJU25SNPI3QbYJ9LhWXWUgPLN8W1J+Khp5QHLp2bJ0MmLmU22rclur3EsfkjnWfqkoWjaI/aYr9LJW3WYg9pf4DkTJQHfj7bkOLz8tgjGDbrf03K+CbE8j7Dew5NsRui1X4YZe16rrDMR+YakZ+myQY2tFI/tk3CKYQfea+ZTvtRFl4amIZMbZuxQt+4kg2tDrWnWjgdhoikayQVzYnuPIlF4DABTCUP7AzOP7ZFZsFI1IDTPcsBa06lYDWR5q8WVFv697p8TurGXm8bf9vrcX7MkoM+jDEoem/V4mXwtada2BgNoDOui3kSgaEQZ71dxe5AsHuaW2G13cFx9f+ml8fOmt+PjSCUXLbml2vJlPHZcolGq/7e/2s51rQauuNhBw1Uj+1o85CUTJ9RK7sCav5RgI3I/pNA9f3sbdJ3YoGqFqpvhAs/MsnQgnoYpGRDXf3bRzTWjV9QYCakZyv5qhv1C07I0tXudW0Vo+M+iRoPJ5rXDya/TDi9k/BEXLNlzB4/EuFwS3GLHv4U9b14ZWPWEgnJsUjZxVM8WnIUp68vBUNCL04WEGDWSyKekBCwEATYdJzKAF0W0gwrd4b+VV1opWvWQggL859qoZ+rv4+NJzvJyzGxyr+9biTvyPA3fpHt50os0M+pL4Xlj0HWVZE1p1Ok48KOy3R1rRiP3fZe5GfYZ3q29zD9JGOKadYQZtpdZ744a6j51oOjSw9NwFRSOm08oST7TnB2tCq24xEMoMeg4i7GUtf31t86f1CSozlgsJOaJo2Rv4Pc+LAro8PPBLzKCvCI6xXwR3OXy+Iz6+tCR5P8/0iFbxbjEQYOZT31YzRQsiTDrYjKaepzyDy5GVb1ZFI02rbXl44AuWTnaIJr3MoBcgchurFAi9oJXaVXMQM5/KMYNu5yG3naDhW07RshsUjegNhh277Ae7euXIywNnBt0mk+SOGVQ2DiJoekGrwa4yEFAzklfNPP6kC19/37D0XKXR37mbdLPl05GVD97rA3fhxxSKXL69olXXGQiouQxc4r7+biLHgkS0orP84BUtqwb8wLuBrtKqKw2kDo8c+xj39w/cUBQt2ywxt0y2vhFFI7/r9ANvF72iVVcbCKj1JszMp5408/gj9sQMAHBS8iF4odlDn5E8XzYaspUH7ketFj/oBa2srjeQOswoLVp67qXKWN+XzTwesPTlZd3DPL+SXwbTMLDfzOPHeL0KP2jpbahoxHXqm4DoBa3MrlnmdQMzSgvMKB239NxxcLVE2wa+KfTnzXyIeFx1U2qbbLn3pYex50RmHmM1Q2kricx8GiqIHvpZSyeHWrj+MmtEq4vdkheLVsb6Um1ox+8E3a5eGeu7rdmHECWvb+HBt/zAeX2WPzgdwwz6uJlP/bXXe9RZK1r1zBDLJ0R5fR29YZlR+q39dvQwhPBlkgkR/pzoGGbQM63cYwVrQqvIQFZg6aTloCMPD963FRhFIzJJ23xZ6VkrWkUGci2viQ5QNCJM5e/iwfv4wJfT1Ygqep239JxfE+Q1oVVkICuw9NwFXk7BiZtl3OglHrxp5vHNfq3d8x1qUQDTST/uBdaQVpGBrIIZ1HF1BtQElkqxueLBr/ZsvWD/3f7cc0OvaU/2epmcuMygx/y434rr9bxW0SrWKhQtO8h3cUVvmAfNfOpHLq57M98beNvSc0JXcDfEx5eKEvHhM5Wxvq1+3nctaBUZSOP2yKTwX7B0srnTJZnVTHEfT1rgiKWTuyw9J4qPcE2vaxUNsRpg6cvDAtHue7+ikRf9SoLgBTVTTEpmVD8XhHGANaBVZCAN4PljRUH9NhsbxTC0A0XLfgIifEomo7qlL5fiDoRe1yoykCaYefyIZGDWSLsfvJopblE0MuMQV7GSU5aeEy7JtkIvaxUZSBOYUTJl0+bzB/+LoBJEr0TNFO+FCOuSNcctM4+/EXSbelmryEAc4AmXZfcONioaOaNmioHUL4Eoud6eEEOEj8q6gjOD7mVGqS0BZb2qVWQgAsw8/qpEFr46/RDhQ/HxpV94yMnVEIiSUM0U96kZ+r/d1P9jBj3E89C2jV7UKlrmlaAFz9Nl13Jm0JcaZetwQtGyGyDC9hDhfg/3nTLz+IvMKAUVONaUXtMqMhBJeKoaXXKytxoGAJhhBl3O78WT112u54LiOWTtB3s9RPhmiLAmSszmwIyZx3e4/ZH5SS9pFRmIC/iDP9lioE+QdNw46vSKVtEcxAWWnnuD+wvJjrPbScHM41QYjAP0kFaRgbiEO9V92sWKTdDUa45/tRNzDid6QavIQDxgv3kqY31fZgYd7WCWR1BziyA3B11zvBW6XavIQFrAzKcmzTz+OADgaICphhph1Txk8ac7UVbZC92qVWQgLcKMklkZ67vPfjtxn6QgH/5lZlBi5vFHzHzqR2EbUonoRq2iVSyfUbTsIF+Tt7/PBh8uaT9YaunkKN8jCKSkWSfoBq0iAwkQRctuBAB8jpcru0ky66H9kM8DAM5YOqHMoK8HWSU2LIRVq8hA2ghEyX6IcJyn5bxuhZ+QPXl9FwBQaZYVfa0RFq16MrNiWOEZH893uh3dQFi0iibpEREORAYSEeFAZCAREQ5EBhIR4UBkIBERDkQGEhHhQLTM20bCsrbfDQwlkv1DCWetZgrRPkhX42V3WNHImtxJH0nXtNqaltdqa/qqVtMFQufK9PW5crSTHmoC9C86wgz6Si/5Yo2ks4NDCXzvcMJfraYL5Mhcmb4yV+4dX6ynAABOtSQuVsb6PtbGJrlG0bI3Khp5GACwK8Ce2WQGPWzp5ElmlDoZW9ESI+nsjVvTwWtVLdPDMwXy5FzZu1Yf8LdNnknw4PtmfIgZ9PuL89U/tbFNUkCUVAcPVJ6CCB/iQ4MgFz76YwNx3L9pdC9EeGFxvvLLMGrSjKFEUv3mZOWp4UR7tFKui+PEbaN7hxJ44d13Kr989x33WoXCQCDC9rBkh8Mh6xbnKyeYUfp9G5slRM0U71U0cgoAsLnNK4IwNhD/fP+m0S/Z429mlN5p4709sXuieO/WdGe0Uq6Lfz5xW02rubI7rcKyzCtTHGVLG9ohBUTJ/vj40ss8c59MWsuguEnRyFk1U9zXwTY4MpRI9j8ytfTycKLzWm1Nk7O7J9xpFQoDYQY9z/MhNYWvBHUcnhjtFwCAuzrdFk4MInywlmozGapVyaFE8vo9E+HSajiBDz4ytfTcUEJOq5AYyHI4pKg88XaIklJ5VoNC0bK38KyBogL0nSCtZujpTtbgWMlIOnvLnonwarVngp62ezfRgaFYxQK18XwWIkycjrF0ssPScy+1r1VXCThbYH1DrCcyK9rGsTXdmlbVMqVz5atazRRqWo2kr2o1lMA3Dyda0+rYfnzHXDnkmRXB1R+gqBfpyH5Ir+WbDRI+rPKk1XSBHJor05ecfrCNGElnN/D9FE9aHduPvzhXDnFu3jrx8aX/AwAYdDrG0slN7Ux1Yw9Z+JzDzVDBNoyHLT1X8uH+UNHIA7x3lZ7k8ozl32r1/m6whyx8zuFKq+kCeXim0LpWQ4kkHEmTB4YT7rSqlumh5/c31ipUBqJmit+DCH9HcJheGeu7rU1Nso32ZReTzAVm0DE3FV1lgSi5Xs3QH7pM67+rnSUQHplyp1W1TMee3++/VkOJ5Po9E+60qpbpruf3v1+rUEzS6zCD/lgiV5KmZopfaEd71EzxXhcP/IKlk81BGAeoLWRcrqXMXM5QKOVCARE+DFHSsUf2i90T7rSaLpDNQRiHzVy5dPn72/q+Wi3LazWcwIeHEu/XKlQ9CJB/Y18y8/iTQbpbQJRU1Qx9S7KrbuvEWM0Ut/CilDJtO1UZ6/tikO0ZSiTVPRPyWokmxn6ye6K4ZTghr9X3t12rVSh20ldxASK8V3DMh/o3jcaDXNEaPFB5iu/6imj7qtHC7KQ9V5uCCNtDiA8KDv/XfLf97aDa881Jea3aaRw2b56uaTWckNdqrnxVq1ANscDVssIy2cB3BbWDrGjZGyXHrxc6taRq68QMul0mfaeikfGg2jGSlteq3cZRZ6aQ+1W1LKfV1vS1WoWxB7GZhQhnRJ6esYG4BhH+zcLs5Ft+3lzN0Me5M50TC5ZObl+YnfwHP+/thoXZySpE+L3YQHyb4FAVAHCOGSUZlx5X7JmQ02q6QG5/83TntHrz9GR1KIHfU66T02quXNMqdD0IqL0dLzKDyrz1YhDhF9RM8W6/7s1LfO0SHccMOmbpuV/7dV+v8HT+VHQcd8X3lZG0nFbVMh2bKXReq+f3y2nFXfGXCaWBgNp+x2O2JUscWjeSr/lxX4jwvRIxCmeDWq3ygqWTvRLDhxEe4egbQwk5rYJarfLCdEFOKx7hGF4DYUZp0dKJPbaVGbPaRnJEzRSfatVfi0cCOmLp/r+NW8HSc7/l5QQcgQjv8fO+PBLQkelCuLSaKchpNZSoaRVaAwG1B/9rZlDRitYVIMIPqhn6c0XLbvJyP/6GFYV+nvVjh9xveI/r+GaECPvmVcvfsEKt/Ngh95vpglir4URNq1AbCKiNsY8xgz7q4pSbFI2cUTPFpyFKuvXL+ZzoAEsnh1xesy3Y8zYAgC447AZFy/pVdVao1XQhnFrNFOS0Gkln1dAbCKgZyXeZQY+4OMUecu1VM/R3aqb4Q9mxt0TMCWMG7Yg3sQyWToRDB78Cz3j2ESfYXDm8Wk0X5LTqCgMBtYf/DQDACy5PgxDhhxSNvBUfX5pWM8V9AmMRLVfOhKXMciOYQV8THQMRltnQk0GoVSf2PGSZK4u1GkrgzaGKQHPCnrRXxvr+Qs0UTftH7+ESIxBh+z+7p7hc212mF5lBTbuT4sc45mJiBhUuEQLuVTqUwEm+pm7OlWnJbQqaoURS5deAAIDZmUJOWCuD58865/TjhQi7WskaSWfXc11Wxnb8uUirallOq07B82c5ajWcwBu7xkDqmPnUt9VM8QLPIuK1/etrEYrY/sFIn8SDnRzhwUIvrnLbvzRdIDtmCrk3ZO6ze6J4gLtsX1mR25omp47tx38h8Va+IHi7S+Wf4v5VzwIARBtrDeHBTmFHqFXXDLFWYuZTz1j68hi43Wk6Hf2Z7B/V1jSZahDTMmj/3f5cdIPdE8U9wwk8vtI4ONv3TNCfiM63dHJBcIiwDTyuo+jVODiB+X75xXRBrFVXGgiordr8vZnHn+J1t9uFY1rLkTT5KwevUYV/7gjvOZqxfSSdFYWXil4aQq9W3s5WNxW7IV2qUKuuNRBQG3NbvO72iOSue0vUY8ibMZxwngCLPueZNkRDIE97PG4YTuCRVq9RjyHvdrraQOrw3uTTPJjoYgebIpofOH7O46JFbhA9k5u3G+gJAwF8lcvMpyYrY30fs3RyFwBgSsa92Q08+0hTqmU61crnHKfVHzZXpqKd6ZbT/lTLdKbVa/DsI2FHqFXPGMhKLD33SmWs7w5LJx9hBn2I75r68eZd7/ThTIH82P6n2cf8c0e471LDnqZapmSuXDKdzocIi0JsL4naMFMgP+IrPK3gqFUYGEqItepJA6lj6blLZj71ZGWs7zYzjwcsnWDuaHiU/5ArLg3neqcP7SHSsf34jmqZHlzxI1+w/58HCwl7tJlC7lfTheU5lb6iB7xYLdP08/tTPxCdL7HP4Whg/HssHNuPU7wX9oqjVmFgOCHWKnQx6Z0kPr70/5z2VphBD5r51Lfb2yp3xMeX/q9gKffFyljfTtnr8Y1CZeVwda5MrT0T9A9OWtkvhef3h1urR6bEWnXdRmHAnBfsQjuVaOg43I3GcZ9DZrNzJXw1qtGKlKNWPONhaOHeyI5aVcv0XE8PsTwgyux4g6Jl/aiEFAgQYWFkJTOo6DvKItRqJB1erYYSYq3myvRMZCArsHQi9B/iEYehhGc5cYIxg0q5u4iYLoi14hGHoYRnOXGCzZXpG5GBrIAZ9HWJoKP7O51lvhGKlr1VYvfbN2/kubJYq+EEvn8oET6tRtJyWs2VSwuRgayAe8OK3oyqopEH2tQkaRSNiFK22j2k23CBpnBvWKFWI+nwabU1LdZqulDTKjKQVVg6Efp2QYQJRMnQrPOrmeI9AIC2B3tNF8RaDScwGUqER6vdE3Ja1YO9IgNZBf8RifYKFJ5IuuPYhgoRflzi0ILfqVr5j0ioFU8k3XFsQx1OyGlVr4wbGcgqmFGy37SHJQ5N8+TWHUXNLMdsCBNUWzo56Pe958olVi3LacWTW3cUHt8i1Gq6cFWryEAaYOnkSfsf0XEQ4cNqptix4qJqpvg9AMB2iUNfCCrJ3UxBTqvhBD68e6JzWu2ekNdqZZK7sKYe7SiL81UGEV6IDcQ/Lzg0FhuIfwUAMNXuUsxqprgPIvwfJQ5llk52MqP0T0G04913qmwogReU68RaKdfVtHJbirlVdk8U9w0n5LSaLpCdc+WrWkU9SBMsnTwjGWOiKBqZUTPFZBuatQwvNCQ1ZGIGHecpgQJjpiCv1dY0mdk90T6t7J5jOCGnVbVMx3lKoCtEPUgTFuerfwIAnOE1AkUvkg/GBuJpiPB7C7OTvmzENcKekA8eqByPDcTvlzzl3OUTo1/l3yUw3n2nphWvESjUSrkunh5K4PfePB2cVvaE/JuTlePKdfJavfrE6Ff5d7lCZCAO2MMmyezpNuvs43hurTPMKP2jn21RM8V7FI38dwDAzZKnLJh5/Fm/29EMe9gkmT3dZp19HM+tdWau7G8bd08U79madqfVsf34s43aEXnzShAfX3rOTb07vsNcsHTyWKvDG0XL3so3AeXTrwCwyAx6l5lPvdrKvb3wyJQ3raYL5LHVwxu3jKSzt/JNQFdaVcv0ruf3N9YqMhAJIErG1Aw97VJ4wB++bumkwAz6Gt+pF6Jo2Y0Q4bu5b5Xr5AnMoA/xsghtZyiRjO2Z8K7VdIEU5sr0Nb5TL2Qknd04lMB3c98q11pVy/QhXhahIZGBSMLLQf/UfiYtXOYcL/Z5YVVGjX6I8CAPdtrsodb3FTppHHV42iBftOKpea7RaiiBB3mwU0taiYwDRAbiDm4kJ1rMFxUU9rDq4U4bRx1uJKHVqlqmD4uMA0STdHcszlf/yAx6PDYQ/3BsIP6ZTrdnBQvMoDvMfOq5TjekzrvvVP84V6bH/+V18Q8r14VLq2qZ7nh+v5xWUQ/iETVTvAcifFiyvHCQnDPzeEeQVWxbZfdE8Z7hRDi0OrYf71hZxVZEZCAtAFFyUM3QpyVdGPyG1TYByWPMECeD6DRDieTgnonOaVXbBCSPySTOWEk0xGqBxfnqe5ae+wnfULyhlQmjS16wdLLz8on7Xg56E9Av3n2n+t5MoabVcKK9Wk0XyM5Xn7jv5dWbgDJEPYiPKFr2Tl5NtuXUnQ1gfG/lYBiq67bKSDp7J68mG5hW0wVysNXqupGBBADfx9jDawKKkk07YT/oGUsnLzCDvuR3PEcY4PsYe3hNwJa1mi6QF+bK9KV6PEerRAYSMLwm4BaI8Ga+z7GBDy9WT1gv8eCjCjPoOWbQM8ygb4S5opXfjKRrWg0l8Ga+zyHUqlqm5+bK9Mxcmb4RREWr/x8AAP//mC6b1mgHT/IAAAAASUVORK5CYII=;" parent="t2k2UjqAHbA6nQ_ANtjL-53" vertex="1">
          <mxGeometry width="30" height="30" as="geometry" />
        </mxCell>
        <mxCell id="t2k2UjqAHbA6nQ_ANtjL-60" value="" style="group" parent="1" vertex="1" connectable="0">
          <mxGeometry x="310" y="85.32999999999993" width="60" height="69.33333333333331" as="geometry" />
        </mxCell>
        <mxCell id="t2k2UjqAHbA6nQ_ANtjL-61" value="Energie" style="html=1;verticalLabelPosition=bottom;align=center;labelBackgroundColor=#ffffff;verticalAlign=top;strokeWidth=2;strokeColor=#0080F0;shadow=0;dashed=0;shape=mxgraph.ios7.icons.data;" parent="t2k2UjqAHbA6nQ_ANtjL-60" vertex="1">
          <mxGeometry width="60" height="69.33333333333334" as="geometry" />
        </mxCell>
        <mxCell id="t2k2UjqAHbA6nQ_ANtjL-62" value="" style="dashed=0;outlineConnect=0;html=1;align=center;labelPosition=center;verticalLabelPosition=bottom;verticalAlign=top;shape=mxgraph.weblogos.mongodb;fontFamily=Helvetica;fontSize=11;fontColor=default;" parent="t2k2UjqAHbA6nQ_ANtjL-60" vertex="1">
          <mxGeometry x="18" y="23.111111111111114" width="23.999999999999986" height="34.66666666666667" as="geometry" />
        </mxCell>
        <mxCell id="t2k2UjqAHbA6nQ_ANtjL-63" value="" style="group" parent="1" vertex="1" connectable="0">
          <mxGeometry x="900" y="184.67000000000002" width="120" height="80" as="geometry" />
        </mxCell>
        <mxCell id="t2k2UjqAHbA6nQ_ANtjL-64" value="&lt;font style=&quot;font-size: 10px;&quot;&gt;Back-End-Server&lt;/font&gt;" style="rounded=0;whiteSpace=wrap;html=1;fontFamily=Helvetica;fontSize=11;fontColor=default;" parent="t2k2UjqAHbA6nQ_ANtjL-63" vertex="1">
          <mxGeometry width="120" height="80" as="geometry" />
        </mxCell>
        <mxCell id="t2k2UjqAHbA6nQ_ANtjL-65" value="" style="image;sketch=0;aspect=fixed;html=1;points=[];align=center;fontSize=12;image=img/lib/mscae/Docker.svg;fontFamily=Helvetica;fontColor=default;" parent="t2k2UjqAHbA6nQ_ANtjL-63" vertex="1">
          <mxGeometry x="83.40999999999997" y="2" width="36.59" height="30" as="geometry" />
        </mxCell>
        <mxCell id="t2k2UjqAHbA6nQ_ANtjL-124" value="" style="shape=image;verticalLabelPosition=bottom;labelBackgroundColor=default;verticalAlign=top;aspect=fixed;imageAspect=0;image=https://www.jumpingrivers.com/blog/python-api-deployment-rstudio-flask/flask.png;" parent="t2k2UjqAHbA6nQ_ANtjL-63" vertex="1">
          <mxGeometry x="-2" y="-2" width="42" height="28" as="geometry" />
        </mxCell>
        <mxCell id="t2k2UjqAHbA6nQ_ANtjL-68" style="edgeStyle=none;shape=connector;rounded=0;orthogonalLoop=1;jettySize=auto;html=1;entryX=0;entryY=0.5;entryDx=0;entryDy=0;labelBackgroundColor=default;strokeColor=default;fontFamily=Helvetica;fontSize=11;fontColor=default;endArrow=classic;" parent="1" source="t2k2UjqAHbA6nQ_ANtjL-61" target="t2k2UjqAHbA6nQ_ANtjL-21" edge="1">
          <mxGeometry relative="1" as="geometry" />
        </mxCell>
        <mxCell id="t2k2UjqAHbA6nQ_ANtjL-71" style="edgeStyle=none;shape=connector;rounded=0;orthogonalLoop=1;jettySize=auto;html=1;labelBackgroundColor=default;strokeColor=default;fontFamily=Helvetica;fontSize=11;fontColor=default;endArrow=classic;" parent="1" source="t2k2UjqAHbA6nQ_ANtjL-34" target="t2k2UjqAHbA6nQ_ANtjL-64" edge="1">
          <mxGeometry relative="1" as="geometry" />
        </mxCell>
        <mxCell id="t2k2UjqAHbA6nQ_ANtjL-72" style="edgeStyle=none;shape=connector;rounded=0;orthogonalLoop=1;jettySize=auto;html=1;labelBackgroundColor=default;strokeColor=default;fontFamily=Helvetica;fontSize=11;fontColor=default;endArrow=classic;" parent="1" source="t2k2UjqAHbA6nQ_ANtjL-37" target="t2k2UjqAHbA6nQ_ANtjL-64" edge="1">
          <mxGeometry relative="1" as="geometry" />
        </mxCell>
        <mxCell id="9VbOGjLz4lz3ZA4R7f49-6" style="edgeStyle=none;rounded=0;orthogonalLoop=1;jettySize=auto;html=1;strokeColor=default;align=center;verticalAlign=middle;fontFamily=Helvetica;fontSize=11;fontColor=default;labelBackgroundColor=default;endArrow=classic;exitX=1;exitY=0.5;exitDx=0;exitDy=0;" parent="1" source="t2k2UjqAHbA6nQ_ANtjL-25" target="t2k2UjqAHbA6nQ_ANtjL-34" edge="1">
          <mxGeometry relative="1" as="geometry">
            <mxPoint x="700" y="240" as="sourcePoint" />
          </mxGeometry>
        </mxCell>
        <mxCell id="t2k2UjqAHbA6nQ_ANtjL-33" value="" style="group" parent="1" vertex="1" connectable="0">
          <mxGeometry x="740" y="184.67" width="120" height="80" as="geometry" />
        </mxCell>
        <mxCell id="t2k2UjqAHbA6nQ_ANtjL-34" value="&lt;font style=&quot;font-size: 10px;&quot;&gt;plot_prediction&lt;/font&gt;" style="rounded=0;whiteSpace=wrap;html=1;" parent="t2k2UjqAHbA6nQ_ANtjL-33" vertex="1">
          <mxGeometry width="120" height="80" as="geometry" />
        </mxCell>
        <mxCell id="t2k2UjqAHbA6nQ_ANtjL-35" value="" style="shape=image;verticalLabelPosition=bottom;labelBackgroundColor=default;verticalAlign=top;aspect=fixed;imageAspect=0;image=data:image/png,iVBORw0KGgoAAAANSUhEUgAAAMgAAADHCAYAAABcDhxLAAAKrWlDQ1BJQ0MgUHJvZmlsZQAASImVlwdUU9kWhs+96SGhJYQiJfQmvQWQEkILRZAOohKSAIEQYiCg2JXBERxRVERAUVQUUXAsgIwFEcXCoFgQ64AMAso4WBAVy7vAIszMW++99fZaZ+3v7uzzn33OuidrXwDIihyxWAgrApAuypKE+XnRY2Lj6LhBgAY0QAQQcOVwM8XM0NAggNiM/7t96EbyELtrMan177//V1Pi8TO5AEChCCfyMrnpCJ9GxkuuWJIFAGofEtfPyRJPchvCVAlSIMI9k5w8zSOTnDjFaDCVExHGQpgKAJ7E4UiSASDRkTg9m5uM6JA8EbYW8QQihMUIu6enZ/AQPoGwCZKDxEiT+ozEv+gk/00zUabJ4STLeHovU4b3FmSKhZzl/+dx/G9LF0pn1jBCBilF4h+GeGXkzHrSMgJlLEqcHzLDAt5U/hSnSP0jZ5ibyYqbYR7HO1A2Vzg/aIaTBL5smU4WO2KG+Zk+4TMsyQiTrZUkYTFnmCOZXVeaFimLp/DZMv3clIjoGc4WRM2f4cy08MDZHJYsLpGGyerni/y8Ztf1le09PfMv+xWwZXOzUiL8ZXvnzNbPFzFnNTNjZLXx+N4+szmRsnxxlpdsLbEwVJbPF/rJ4pnZ4bK5WcgLOTs3VHaGqZyA0BkGLJABhMiQADoIQp68AcjiL8ua3AgrQ7xcIkhOyaIzkRvGp7NFXMu5dFtrWzsAJu/r9OvwjjZ1DyHajdmYsBIAJ0QJnjsb4+4CoKkIAMWB2ZjRPuTZAoAWTa5Ukj0dm7pLGORfQAFQgTrQBvrABFgAW+AIXIEn8AEBIAREgFiwGHBBCkhHKs8BK8E6kA8KwVawE5SBSnAAHAHHwUnQCM6BS+AquAlug/vgMegFA+AVGAUfwAQEQTiIDFEgdUgHMoTMIVuIAblDPlAQFAbFQglQMiSCpNBKaANUCBVDZdB+qAb6GToLXYKuQ13QQ6gPGobeQp9hFEyCqbAWbARbwQyYCQfCEfAiOBleCufCefAWuBSugo/BDfAl+CZ8H+6FX8FjKICSQ9FQuigLFAPFQoWg4lBJKAlqNaoAVYKqQtWhmlHtqLuoXtQI6hMai6ag6WgLtCvaHx2J5qKXolejN6PL0EfQDeg29F10H3oU/Q1DxmhizDEuGDYmBpOMycHkY0ow1ZgzmCuY+5gBzAcsFkvDGmOdsP7YWGwqdgV2M3YPth7bgu3C9mPHcDicOs4c54YLwXFwWbh83G7cMdxF3B3cAO4jXg6vg7fF++Lj8CL8enwJ/ij+Av4OfhA/QVAkGBJcCCEEHmE5oYhwkNBMuEUYIEwQlYjGRDdiBDGVuI5YSqwjXiE+Ib6Tk5PTk3OWWyAnkFsrVyp3Qu6aXJ/cJ5IyyYzEIsWTpKQtpMOkFtJD0jsymWxE9iTHkbPIW8g15MvkZ+SP8hR5S3m2PE9+jXy5fIP8HfnXCgQFQwWmwmKFXIUShVMKtxRGFAmKRoosRY7iasVyxbOKDxTHlChKNkohSulKm5WOKl1XGlLGKRsp+yjzlPOUDyhfVu6noCj6FBaFS9lAOUi5QhmgYqnGVDY1lVpIPU7tpI6qKKvYq0SpLFMpVzmv0ktD0YxobJqQVkQ7SeumfVbVUmWq8lU3qdap3lEdV5uj5qnGVytQq1e7r/ZZna7uo56mvk29Uf2pBlrDTGOBRo7GXo0rGiNzqHNc53DnFMw5OeeRJqxpphmmuULzgGaH5piWtpafllhrt9ZlrRFtmrandqr2Du0L2sM6FB13HYHODp2LOi/pKnQmXUgvpbfRR3U1df11pbr7dTt1J/SM9SL11uvV6z3VJ+oz9JP0d+i36o8a6BgEG6w0qDV4ZEgwZBimGO4ybDccNzI2ijbaaNRoNGSsZsw2zjWuNX5iQjbxMFlqUmVyzxRryjBNM91jetsMNnMwSzErN7tlDps7mgvM95h3zcXMdZ4rmls194EFyYJpkW1Ra9FnSbMMslxv2Wj52srAKs5qm1W71TdrB2uh9UHrxzbKNgE2622abd7amtlybctt79mR7Xzt1tg12b2xN7fn2++173GgOAQ7bHRodfjq6OQocaxzHHYycEpwqnB6wKAyQhmbGdecMc5ezmuczzl/cnF0yXI56fKnq4VrmutR16F5xvP48w7O63fTc+O47Xfrdae7J7jvc+/10PXgeFR5PPfU9+R5VnsOMk2ZqcxjzNde1l4SrzNe4ywX1ipWizfK28+7wLvTR9kn0qfM55mvnm+yb63vqJ+D3wq/Fn+Mf6D/Nv8HbC02l13DHg1wClgV0BZICgwPLAt8HmQWJAlqDoaDA4K3Bz+ZbzhfNL8xBISwQ7aHPA01Dl0a+ssC7ILQBeULXoTZhK0Maw+nhC8JPxr+IcIroijicaRJpDSyNUohKj6qJmo82ju6OLo3xipmVczNWI1YQWxTHC4uKq46bmyhz8KdCwfiHeLz47sXGS9atuj6Yo3FwsXnlygs4Sw5lYBJiE44mvCFE8Kp4owlshMrEke5LO4u7iueJ28Hb5jvxi/mDya5JRUnDSW7JW9PHk7xSClJGRGwBGWCN6n+qZWp42khaYfTvgujhfXp+PSE9LMiZVGaqC1DO2NZRpfYXJwv7l3qsnTn0lFJoKQ6E8pclNmURUUaow6pifQHaV+2e3Z59secqJxTy5SWiZZ1LDdbvmn5YK5v7qEV6BXcFa0rdVeuW9m3irlq/2podeLq1jX6a/LWDKz1W3tkHXFd2rpf11uvL17/fkP0huY8rby1ef0/+P1Qmy+fL8l/sNF1Y+WP6B8FP3Zustu0e9O3Al7BjULrwpLCL5u5m2/8ZPNT6U/ftyRt6SxyLNq7FbtVtLV7m8e2I8VKxbnF/duDtzfsoO8o2PF+55Kd10vsSyp3EXdJd/WWBpU27TbYvXX3l7KUsvvlXuX1FZoVmyrG9/D23NnrubeuUquysPLzPsG+nv1++xuqjKpKDmAPZB94cTDqYPshxqGaao3qwuqvh0WHe4+EHWmrcaqpOap5tKgWrpXWDh+LP3b7uPfxpjqLuv31tPrCE+CE9MTLnxN+7j4ZeLL1FONU3WnD0xVnKGcKGqCG5Q2jjSmNvU2xTV1nA862Nrs2n/nF8pfD53TPlZ9XOV90gXgh78L3i7kXx1rELSOXki/1ty5pfXw55vK9tgVtnVcCr1y76nv1cjuz/eI1t2vnrrtcP3uDcaPxpuPNhg6HjjO/Ovx6ptOxs+GW062m2863m7vmdV2443Hn0l3vu1fvse/dvD//fld3ZHfPg/gHvT28nqGHwodvHmU/mni89gnmScFTxaclzzSfVf1m+lt9r2Pv+T7vvo7n4c8f93P7X/2e+fuXgbwX5BclgzqDNUO2Q+eGfYdvv1z4cuCV+NXESP4fSn9UvDZ5ffpPzz87RmNGB95I3nx/u/md+rvD7+3ft46Fjj37kP5hYrzgo/rHI58Yn9o/R38enMj5gvtS+tX0a/O3wG9Pvqd//y7mSDhTrQAKGXBSEgBvDwNAjgWAchsA4sLpfnrKoOlvgCkC/4mne+4pcwTgUAsAkZ4AhKwFoBLxRohXQPxkSxThCWA7O9mY6X2n+vRJwyJfLPsm+0nQXb1pLfiHTffwf6n7nx5MqtqDf/p/AdpSA1ZTFoxgAAAAlmVYSWZNTQAqAAAACAAFARIAAwAAAAEAAQAAARoABQAAAAEAAABKARsABQAAAAEAAABSASgAAwAAAAEAAgAAh2kABAAAAAEAAABaAAAAAAAAAJAAAAABAAAAkAAAAAEAA5KGAAcAAAASAAAAhKACAAQAAAABAAAAyKADAAQAAAABAAAAxwAAAABBU0NJSQAAAFNjcmVlbnNob3QvIi3/AAAACXBIWXMAABYlAAAWJQFJUiTwAAAC3WlUWHRYTUw6Y29tLmFkb2JlLnhtcAAAAAAAPHg6eG1wbWV0YSB4bWxuczp4PSJhZG9iZTpuczptZXRhLyIgeDp4bXB0az0iWE1QIENvcmUgNi4wLjAiPgogICA8cmRmOlJERiB4bWxuczpyZGY9Imh0dHA6Ly93d3cudzMub3JnLzE5OTkvMDIvMjItcmRmLXN5bnRheC1ucyMiPgogICAgICA8cmRmOkRlc2NyaXB0aW9uIHJkZjphYm91dD0iIgogICAgICAgICAgICB4bWxuczpleGlmPSJodHRwOi8vbnMuYWRvYmUuY29tL2V4aWYvMS4wLyIKICAgICAgICAgICAgeG1sbnM6dGlmZj0iaHR0cDovL25zLmFkb2JlLmNvbS90aWZmLzEuMC8iPgogICAgICAgICA8ZXhpZjpVc2VyQ29tbWVudD5TY3JlZW5zaG90PC9leGlmOlVzZXJDb21tZW50PgogICAgICAgICA8ZXhpZjpQaXhlbFhEaW1lbnNpb24+Mjg4MDwvZXhpZjpQaXhlbFhEaW1lbnNpb24+CiAgICAgICAgIDxleGlmOlBpeGVsWURpbWVuc2lvbj4xODAwPC9leGlmOlBpeGVsWURpbWVuc2lvbj4KICAgICAgICAgPHRpZmY6UmVzb2x1dGlvblVuaXQ+MjwvdGlmZjpSZXNvbHV0aW9uVW5pdD4KICAgICAgICAgPHRpZmY6WFJlc29sdXRpb24+MTQ0LzE8L3RpZmY6WFJlc29sdXRpb24+CiAgICAgICAgIDx0aWZmOllSZXNvbHV0aW9uPjE0NC8xPC90aWZmOllSZXNvbHV0aW9uPgogICAgICAgICA8dGlmZjpPcmllbnRhdGlvbj4xPC90aWZmOk9yaWVudGF0aW9uPgogICAgICA8L3JkZjpEZXNjcmlwdGlvbj4KICAgPC9yZGY6UkRGPgo8L3g6eG1wbWV0YT4Ki8YBaQAAQABJREFUeAHtnQdgZUd19897eurSrrb34sW94F5wATsBQgs1CQnFlNAMJHQCfKEmGDBgB0OooRgwECAESAIJHWzAGPdet3m9vWi1q6733vf7n7nz9KTV7mql+6SnXY307p07d+7MOWfOmXOmZwqFQtGmXUUoAG0tk8mYKJzJFC1DLvliuNfU5Py5v7/XOvo7bUf/Xtu4Z4MNEFnxdMlksrageb4taphlzbkmq8/VW4H0BvIDluOutD2i4k+7ilAgV5FUpxN1CsDfhjxYkT/Y2QrcBwr9tql7hz3YvsZuaH/Q7uf+UOcWe7C3wwb4KosgqcbKE7+G+wAJHFfXbMc1L7ZTZx9jj59zoh0/+2hrq2slBhlMu4pSIDOtQSpH3yLMXUQspAkKxYLdsf0++69Hf2/X7bjHVve22458j95aHZqggbsERE5sn0/u0hF9pJMnJdVmc9Ak57etsucuPs+evvwJnrbyCdqECNMuVQpMC0hK5CzApFm4WSaUzJ6MRAN/LabUhj0b7fP3/4d9fcvNtnOg15qzORcAj+P6IgAhYdDX5S6kNmhI5RC2Hky3OmI+ue0Ye9+pr7DlM5agmfKYXTUIitIokHcWQeNrmWL8TbuxUWBaQMZGt32+kjBINjKZAu/E+kXb3rPL/mv9b+wza/7Pbu3bbS3ZWmvhrUyt8bjI8F2FATujaa696Zjn2JOXnI8wSmykgXSVUATByHpbZTw5HrnfTgtISmUfzKnQfjDMqRu23mafeehH9vPdD6NVqN1h1gEYN81Ww0AiiG01tXbpovPtFUf/uS2iUR+chCO0fabNr7EX8rSAjJ12Q77MIxRix3yhz6554Id2+eofWb9aFVTme4mZw6P3oY4f8umYHyRs/aQpBdGH2fWMtqPsQ6e91pa0LESbhbaPtMi0BhkziW1aQMZOu+TLYFph9dumzq129b3ftn/fcpP1IA60CKyPWLX4u/FLRBrHnV9IIOgHsy4eZbb10TbJYHKd17LErjj11XZ020qJjuXUMCoZXdH0CmlMXw9OgWkBOTiN9onh7XBndxSE2h4Ix3Wb/mhXPvgDu37PI9TYoYEMy7pYiEXVMonmldg0Dad0o4vdwtIcS+pn2odOfKH9yeJzXXuoF41gNI1gBQ5vk5R/HVOZvg+nwLSADKfIKJ7zGswTf8FwEobvPPy/9s/3f9e253tdY8iuUpdsFAwlKX9agqH0hrvA7ph4vJB/UW2rffKUl9lFi8+2fjRLjYQEEdVojGJMm13DKTjy87SAjEyXA4a6zoDbO/v22JfQGh9Z87/Wi8Q0wngar5ATG0pIdJ9Ipzw7EIQGVMbcXKP9y0mX2sVLzrWarIYdg5hKv7mA+/NEQjf18poWkEMsM5lU4qttXTvsqnu/Zdds+oOLROy6lamjulrtj2DQHGIG44gu0ZQISIuo16wLCOZnau3yE//Gnr38YssiJDL6FEdm17Q7OAWmqXRwGhEjsLpf4a5eBvvee+tn7NMbb/BR8NAgV0JBOMSCcVR8VMmnFEmMLychlbA0c2+ni/kDD3yPbuc7MLNqvHcriFG5yRe0nn88fRlCgWkNMoQc+z74AKAHa1JIxrYzj+q9t33Ort12jzXUBD2ha7D9q4/RJDTC4aj6NvvX0y6z0+edQAiYyMYCXEGsn9okUcB4nHYJBaY1yEFYQUyj+lgMtA3h+Kc7v2Lf3XEfo9Y1tC9Cs7efO3XzQVKanNcOFebUncz9esWtn7Ibt97ugqCZxnLeCyezsTrBnxyileU6LSBlxNi/V7VrjX30rq/Zf8BgtV75akxD4hPNr/1/PdlvJAotCMm2gS57NzhoBnE2q5ZSEHzBFxrtkw1p9eU/LSCjKJMeZt1efuvn7Kubb7JuOEmdpXX8evlWplU9/n7u1WiixO5moTlAz9YtXdvsg3d/zXYwT0yml7qqa+CCIOaKNe3KKVDlAhL1vu7Rr/owPlOsKuQR3fA4MW6MH96XTAylSloxPd01Rb2PqSPffPhH9olHr8dQzzEt3RglD2aXzCoJiLp2axGPmDJBVeMkuKKXYBR8NQj4/+16kE6Gz9vOnp3gC9yBFCFmQgPFrkZ8HMgJvFS1gHjB+UiCGDcwcIEC1ZTywMz7Mw1i0cZ7YIIwSKYwGIY0BtdSihmC4OkehETmR9Zu2naXfYrZuOqVEpNp6ojmU0UxreN50NDiocqcYNMISC0/+WVYNYLXF7bdYZ+47zvWM9AdNIkEnApBplaYmayZY5F+fHiEuqoWEBWW13AqWpUuBaYwecMy1jj6MHLphW/F/BIGFTbswU0CIEPJnRLTTzUpHv/Gp2TQY4U58oG7r7UH+7uIXcCUkjnFqkDi6RO5IG7BX63X4TBqfKSGGcCfo5v622t/4rgUXPwDXQenokQsqxWzysNV1QLiPE1heo2uUpZ0+I0mM5PwikXqRoUPdzGM6GJlFbimWqjWd2mI6eiRTGI+Skxxld+u3l321tu/gM2+mQaudE9YMiuTRZMPp7KTRmlifEQm4icf/rHPIxN9onNSx4cj/K42XJU5MaxYWdytKRGwOCXWn+9m1VwvmqDfevp3WHffXjYv4D7QsS/84ngGxTRDr652pjXkZhEnb011C3huhTFAm7Rrsw0IRM5NKc+OWOr+lID8cN2v7OcsjS3yvg9GkomiRnkdmqYHgGRaTUUxURUjM1FO5tZ9bBjx5ju/aNc0tNlJrHnXe2nS4S5WIsI5+ofESSodhbmoqdyGRNCDvt43dJ9oVRQwSQISWMvNJJEsoZkIL+u+UOyzvnyndXSts53dD1lH93rb3fOIdfZv4bfLSaxv1B7Zl9yDheA+jyChi3GLVl8zw3I19dZSt9DqcjOtqXaWNSI8rfULbH7r6ZhQObt+1/2IFHOaEr2jaeVZpYFwhAZ5wKGKynJUoAhqrX9Xe0qkmQUh12NC/tM937Crz3i9zW2Y6ziqUFxzEy/PRzVEFg217kVOJqs2lJBTOkFLO7G9QPna220uLETzis4j86DPPL0gTP6YPHtiflE8lRn3yCD6foLdJAmIiC2yBFrJKwL35vfYlj232sbdf7QdXfdZd387gqLlRoobtEmOZavR+VKH+HCwe1J2itZf6PJfVz+9OPypEHTNoHVOX/RSWzr36dZJiNIfCGB6+0OqbBDqg2VYve8lHGE1ovgUbUjv3G0d6+x2BkCftOwiyqZg7d099HL12tbeXtvQ3287uruZYjNg7b19vjVRD/6dAyzXgiASmbbanDXltCyMmcSNjdZYX2vz6hpsIeGz6+utrb7O2hrqwwArkcT6LkTeUxJMWxWRl4MqSd5mYQwfjD3SBERE9J8IJQpDjA3tN9qdm6+1DjRFvtjr5OMF7yXDobbTc/gy+MZ6HVyCqkKSC+2UAaar9xe0tCn0+nQBWhN+9WAJysPBCTfh04hHGqCXimd7vt/OZKHVqhnLrAjjf+Suu+07W7fbVgSjf6CP94iAV2jSB8MpEZ+VMn42i3CpUXwYW0IzM1drzbU1dhyCcmpTs50xu81OnjvbVuCvr8VY5dO8m7b+Cekk5UJ4LCECJ8VNigYJpAyN3iK1+X1bvmd3bfk25KUmSf5Uy8mplklI7/d0qBTSDrWVUiRnlSe+lvrFevJu4JkE7CVcjdrDxQlzFXo3Hs34rQPxl89/rL3vpJdaC6bmW2651a5eux6FDaNLHpwqEELEcV3hnjI5SZ5VyyvxrC74k1q/i03uutA0NNzsoY4O+x/bZrZWUTJ2TnOzXbJgvj2J30mzZ9mcBkaZYvuTNKSZDslKIH7abkIERAxXXhOE8QeWofZtsDs2fsUe6bjJ8VIcxU1I7GHyy6kYysM9cJwX5RZS1hVTo6aJCYhq0PNEAXbjExMFiMaZ2SR/HuknMDS5cguMeFpdi71q+RPtxUc/jU6QGnvPnXfa1Y9sIEJSJUTilwRDqYzgPHFF5ke7IZRUQlv/JPlOHSfRJuN+Y1en3fjww/bRdevscS0t9pT5C+wpixfayQhLnU8ETb/MR4D+gEEVFxDVzKGRF+xKVdUycfb2Pmo3rPsoYw0PA6AmbwQXyJoQl6BIbr2NcULMNK6DIiI4a2saUfmzPZ+Yl7p1K06kNFA5QBqiZnQa/9F2QReznekHTnm5nbvgFMthFr351tvsExKOpOaP8b0OEUUiQUovhnn0XsJRiocnZlwKSwL0HPPRpE+I/9s9e+y3HXvs4+vX22sWLrQ3nnCczWttQaEkA7eKz+cZ797XgKart2FApP9Y8VxU++aoLUqGEv6egR32x0c+5cKhAgv2rYinWJGq4XkwLD6nRwSVkwigu8o2hwZpzM3wDFSH1pHlgYciPWpVX4SbpsNoekw/2IqKz2X70m+c/4924cIzaXgX7R/+eIt9Ys063ujtMKcE9BuNGx5v+HNM4wDh7f199mE0ykW/+KX9YPVa2oR5N3dVyRbhnTzCPXqAYoZjv1dcQCT4KiA50aWf7tubH/m0bd57p4e46DjB9kc1fVkZJ3YosQQmR12u2RpqqbWS8D5Akok11Z30cw+19DzaFW8/6sn2QdaFLGhaaDt7u+3dt99lH5PmyFWcFUZHRhEfpnmQDoKX3Xa7feC2O+nql3iLU2R9CJtSqY0uzXHEqrz1EPuyQarA6O09m75lj+z+PUhSRzsxhPZE1glDqSXTSkIswjfVzvG7RNrHWHinUfMo4EO/nBpPwquXWvjchjn2vhNfYOctOA37nrnImC4fuONuu3rDCGbVZKOmOgm+2U2l9eG16+zm9t32b+ecZYtamikNdQlLmCeGayag2ohSb7a542Z7cMePQE1yObmCIR5QOaiXJJh/dEnWzk8EZJD81S4cwmEk57iBYQHheMKM5fa5s95klyw5j9kDtdbbn7c3YVZdvXZtQHSkBCYzLBkbcRkAjp+277KX/uFG9jjWmFgAOZSZP1b0UnEBkZxLc2hk/KHtP8QvSziwnbb6lwuFHPweMEEX5RhzVQ+apqSI8M5cXAJxAnQTBNIhZSNYwxyxQYFWAgUgVw9ca7bOXr/sYvv0mW+wY9hILo+w7Onrt3ffwUzeDY+E3ipXoUSOhFACk+lE7qDSAxRO/oz9cneHvfP2OxgnY+IPsKrxrm5gLUnQoHMceE4b9MqbWFBeE+Ee2X2jbdnL3CYwUMGG5mLa6Bx6eoInCkJLvbbsHEwjeMsCBl9VhU+8I+gkJLLLhYemx/RxPTrXYu867nn2DI5IyEpjg5g6Hv75jrvsqvLeqij/8U6cSXcRlnhPAPr3rVut9pbb7AvnnGE5Bh810q7Gu+RJ61wq4SquQVR0UvP3b/s+yPR4UVaLcIikUThkq9dx9kYRbTdVnCZ2xK1N62EQ33II+E+sn2dfZF7V82iQ55hGIhz7GLB784232lUyq1ysqlfw96W/pIBQyujrj26wrz60Ggz4g6/EX8JvimoQdAWIbWi/gblVD9Puils4B3z3JcTEhkQW0YyfJiYw1tZol9vK1ESVwCxMvZfWAGZq09ms8XjO/DPtjcf/pc1rmudnhkjwO/p67MN33WP/8sg6agTpEbmpg6fDqsKSSY7m+MS69XbRogV2bFsbQTKv9C6YxsIsTVcBDSJo9fMy893O17f/xtshykwCE956lEm/iE1kntTVNPNrHYSnmoBMoBJIYu/hrL0TrdGKpnj30c+1d53yEhcOUVm9PTm454MIx0cfoc2h6SMuTEmCU+3mZVK0e7q6OHdlg68JculwnqpMgVVEQIK68yaUdfVvt03M0M3SYHS1CB7DC3hyywkTEJgkINIglamHxo+haKa2W5g4GaDsE7QIwPmN8+w/zn6bveCYP7dGBjvlVKv2M/Hw72+82a5cszYE6IVq4eoqAEF1YCd4408xQe7aDRttYAAeoxKQmxJtkNCbEIZxgpBkbWfnQ4yGylKWwEQ8q6eEYBe0Ghok1xo0iFScXPWA6OAIThmomucslpCgaF39Cxacbl85+8124twTfLGXpvGoh6e9t9/exSDbJ6U5tG3JYeUydgfT73/KGImmnnhhiUAVcKlSzgsHIFW/qbaTULSz4KlYVHEGV2V850BJmJtq56Llon0eoa2eu+jWCU3b8GhN+VxMqiuOeba9mzMKVzJNXZrESU489Rp+kCnrVz2yPjGrqgePVCBRJUYD/cubtqBNkrlawr8CLvVuXhcAauQMI6EDTGXf3bPeyy2CLz2iOB6vAgiNJUlNlmuuWwSxBVUCaQR4LAlW4BtVODOAbT0wPq5uhl3B0QYXLD7HxzYEqnZvl0bRWMebbrrFPrU+aXNUE6FTowsYUwncs7sdC6XbZjU3uX2Sam2fwJqygKioKBFuam9o8dGe3k0Arz56tIrw4nUwwlKj1rgTEjzNdfPc1MIb3KQyVtDBERTd1TWu8Y4XzDrG3nr8X9ljZx9reRY6aRWkqK0Bs92s9lOD3IXDp6zzpT6eVFwCOVO/Ylrd3dll62iwtzU3On+lngcJpiwgpKhGIJKgMd7egR5m7rKG3AuJsCosKIEmrSYBEdSBo7hNolPlojUbqljE3Wp7NNBF/vqVT7IXP+ZpNrthZqhsmKbuG1xAWAnQ5XfKrNqAOglC4yhUIc3HTVonC4jRCfFAV7edWiq39JFNVUC0qD8wGKyGjdzVu9G7eatRMGIhibFq+NOmDUM0mwph0lygo/SIujdmM3/qQye+yJ6x4mKEJrG5VWciB0WWw9ImtzdjVn2StRRDhGPS4J+gjOl82LGX+VlUyKrktLFE2i5VAVFvkLcxXFB0AtMm7GIPAe5J5bj90k21tbRHLsuWcCUBJ3oFiL1fIIa9UNYSDrmnzlxlb2Lg7/R5JwWtUQIMWjPPor1vgL1276G3SsIhK7w66ezIpHVx0oAn7ZBHu7uohJn+WgnpAN5UBUT4h1pYQpGl/bGRQmWct0pViOgsAW6rX0Tto80DIPoE8JfyVTbxjrfkFKbz1Ou5/+2yi+1vH/MM1m5g/qkBxxel1klC0w/RW/UvMqvUA+eNvFJSh7+Hgc+OPmaeUYY12kRQxEvZpSogbsMDrHpTNIK7p+8RGo86QHJwq56U4R9XcmI56bzmBrpJM9IgoRUyrkQP8LHKTz9fxkvm3Tw086zZX6r7NWBZUBi20wePea696NhnESYdRxsD4VVNmdWmCETSWMdbMas07WKIWSWklMnh7ISjHA31DWhQLQarq1AlnKqAiN1CYWqdcYEGum+3FpCpwqubMRBXG8aJ8SQgkfaVAFd6VfTRqFABhlf+CtOzBESFcS5jGm8+9rl2/oIz6AVk4joFL60s4ZCGKORZSEStKbPqE97mKDOrDnfBgD7uhKcXFPsnMwkzbmCXvE31lq6AYMN7GVH43X0d1jewp2rNK1FRsEq7aQwksGElxUP5hZ4pnSci8dBqRU0XCcJRtBctPMteR3tjcctC1xy+T7BzAl8CrKArIiiXIxxX+ThHWW+VEDrinIYS2ASPiiSY9s59qVIhVQFRIaqic0ZgDCTvU0xShTfVxNSNmqtpYIrJjNC5QOolESl50slSRdePBhjAo71+NW9YplWdlykj30c/y15y/POgmZY7QUd+6sKVP4spUYCwGnx9+803IxzrCIxtDk+AWEeQK5VNxjrRIN1091qmsSIESFVAAtzh2j2w1zeclrBUr9Ms3hbfozcYKoI1oX4KYJel5qnq6DZneHLR/o11iMGxjQvsH455ll2y+DyEA5Ehe+3J5VOMiC2jT43Q3awEvFzTR2KbQ2CqRjoSnROWS2IShw4MJ0jq1EhVQEJxCXBpEjQIm1BXaw9WpGStNourZRIHTCjdl6aThtBajXCmyGDq2j2yEeH4y/mn2xsYFV/euoRYhIrhRT5gcU2sZ6eluXBcKbMqDgKmC2qaaE9MWupxhFiVJkOqAlJOGQccCa84BuWZHqJf4DUwzT1MUtRmp+mSoweTaAYFKdHTGnEd+tkMYbayFec/r3qaXXbCX2LisXSUvyEVCd+5wAKgzKt3scHCla45pH+m3SAFonjoHv2Db9PwpcsRwyGqDMzDcxnjc+g6bfQ5WByuAxfLrFG9lJZrRTj6SbAfTaDt6HRc9JK6NvvYyc+zZy69AObXclg1wIcRikdVkO2YVR+mQf7xaFalCl1aWE5mOmmW1sh4VFZARs6zakI1hbIxNxd4xKQQW3yaIs3VfSve13kivQyYPmfuSfZ3bKRwEhMOZT8PtntC1pEwAkEn0n7o7nvtyjh9pMq1cYR9Qu9JxTKsekkVhMoKiEq6ktCPgxQBrAxzsBCQRDbSADWmEVAPnY95Dsp8zdLH29tZDtvChtFuORMx7MihnqpB00nfqfP2HTfflphVSW/VOHA9bD+FWDJf1Rspugeap4ttBQQEMIFWwHr1GXzpQp1KatIaWcZApEEEr4ydsTsVlHAWc6u45Fcf1Kr6NnvDCS+wv2KHkYzWhGusKKGPxELCot05QhFnmDrR6xssfCyaVeWdB05UPoouckX5c/QfzvdIBwjYkstx9kitH+pTG7r+UsU8VQHx7jbnMh2aWeeDcAPJVj+pQp1CYuo+rWWQUGvR6UglRbF2mYjEQjiEvDRFXSlJWJhma3864yj7++P/ws6cdzJ5kDpmUmxvSDCChaBGvCRGg14Fu/Ke++yK2Fsls0rvBJbDkzzzGBzPUdoUMPx1EutwvjVQydUxJpTNiOoqw3RdqgKiwtfcIZVnrW+j02gD/fTfBE5IF/Jxp0afVbZ8o4Zh3CUkDsEpulS9jjarQThevvA8e/+pf2sNdU1hfIOCHJZDSJ1AzauqocHe3rnbvsk6a2OHc81U9Z/UjFx5D4ISkkMblZy8MbwUeJh6SmgXfJqOT90B90pM6E1VQHyyXyIMOXYxqfHj06qzkFQ517OTuwYK4cTkNx5YmWOFObSKNsYrWdh06dFPpwu5HuHAeBOz7y8Hspapp3PK5zS32CfOPtNW795t67t6bBtTuR9gleAWRoq7GTHemc9zjiM1pYCPAqHOBTnNcpRfQqN3pQjyH6YOnI+qq+U4OfVIOtKpI5qqgEiDxOl+9ZyzkZP5Io1SGdjHSYwwiq6tfgKLyegpcwnfKSR6xeby61ful2nVh9Y4v3W5vYOBv7PnneibRLs2TRL125AMSGSIQ/NgIfzZ0iVmSxa7YPXRNulEu2gp7V4O09QBmjvRLqvZ0WMLK+l28Hukp8fuoN2yA+HhI4ADOt3lRHj/+YMHhUvEqCxoqnldexZsJkTLCc2hpZcaNqkKiKAKmwkXEI46a6xtsx2wk9vbvCsvltCMTQ2PQ05IglzH/rVhN0UJMSHDTRZSDYSnfYA/TDLUl/EYZaaLwIC7YM6XzD/VPnDaq2xWvTbAVkskiwY9oEQkMFP7lTUuSxYV9kKOBVCaYTSPwy+zGUZSkvRU6YRp8KJ3yG37nk5bxyYG6/Z22f17Oux6BGcXv42cVLuN8RTr1ynvOEmh8lOHgdIrFQoe+QVyKUwfxED59+PiN7qPJv5+kjmkYGlL6oFmdloUnTWJsxI2VqoCElgHNEV4fs0cJyDzIgpDpHuwxg+JHClHBj4Yqzk3z+EMM568dIfkoxAtXhKRxLhieznFl+D0kcYMlsO+76g/tVce+5ykC1dUGMQ5cFz4bjRXh0L0ww2HyDtByFMuCpKi6pCfpTNabNnMVrsgEhkoetA4u9E8O7hvYPvRdRxEs4ONDjaz0cFDmHBrEJpOtE0HAr5b88DEZJ6+7p4NQCgnHgRMDCt/KA/XewHk9+T7St6AdW5dLlREgqMCLlUBiQSM6m5GvRYiKQtEHQSiuVwBPA45SbFxa/1iZ3bXHAIuFq5S41HlLOglGJomosagpqeLIbtlUjUvsjeyduPiRWfS4Nfkdf0J1Vha8U5gCs5TS4RHyUlbh7z0Bq0iBtfdQ1mVyFnl87HR56N8juONZgNT1TKJlLU63Dto2+xlbYmOFNjFfRMCs0EChCBtw4x7FMG6oZfTnTTNQD8JTyKgTiuHhTQdMOWdOH+OD5W6kwkwNdVJu1IFl9ElzRxTFZBAItU4NDmhZ1vz0a5BwryiQMdBJkoTjUNPS3A0cKKUdIGzlMq+PJmkkBWmX2eI5ay3c6DX/mrOsfaBx77CVsxYCs/oY5lpiW7Us773sMpxi+8BANMrV8mGzwYgY6+SCBdu6v4UOHGUR4xUx9iBZhbrDPOaRkS/jbdJ7aW4Sosztvzeg3bZ1N5h6zhk82F+D9LuuaWn27ow3dYgVHv45TkuLZhu4KydJNx8wy9HWslFnnSc0nT6FmxOI4uT8VeKyuMUEMe+hLQrYyAtsh2NrPTZjats+cxzbX377yB3Ele1mBeGUIrfR/TicynJFD0xv8G8WhtoEDsTBzPCYyQguEJJIBSR1H2rZcTzcvV26bLH26uYMjKD7XdUgw/qDWoFnlW7hmZFzCtFNMqTYh22cpcTBso7CLyucsk9ASN2weulSihM0gxVlgQjuDAFRqP7OjSzjkG4WfPn2on8YhSN5+zGRNuNdtmMgDzIfSeC8yjaZwfa535pHyZk7hnIWzu1vBY0uQaKWXhKZbQpeaMn5lT6YF+PoiLJbZytnoenKtHFq0zHJyDCA1XtpSHGx0UU2dWM9Q61dtqiV3qUtbt/A9943cY3xEoixqIsfeeppH9xUMk05lObbeREKRg8BvBGmkCbTCiulsRG5yzD2vqVnPP3Trb7fOrSC6mF2eQBp89dcxBdd+E2mKZHqdhF+USMIkkFj0xG1wgOSEBQVwmFO4+Ej7u+dxEvwe2BHi2WjdMlfJmEm81ks7YZTQ22lJAz+UlACwiCuqG7aM/sRqt0ICztCNB2TDUXIjoNtiJIW7mvp210nzSPCw/EEx8l9YsTMCBHqgmwjqDiESSne23OliDAGefBUEX4uxQv4xMQQamVbfTRq8pUT4IKpti93Yp3fNKsd4c1nPpmO2/FWyy7PmsP7/pVqLW8uoq1XSDBIOYpYleWVOQJBcnka21YyuCc9g7Rm8R5pMBGuupRnQy72MHw6a1L7WNnvM6WsWaccdvkbfyQVDwZMeZg2ET6yrMtwZIAEN8NgS0GepyR4S5F4cOSvwypwVkBBFKmWUyrBn71UGgWbQNraXHBCVlgUyAMvj0qcTVmJAHaRK/bGky3dexvdTPjPqsJ24nwPErPW68EiIrWecx73oBC5pscrDejrs7aqKiUb5AueDFlNw4BkQjzUw0AATUa7Pcdd1v+9iutsOMuXqPGc5+2zJnvsTOXvY7YeVuLuaWaSQT3AiOJkYifMp6CNHESzIK1+FY/EhC9CRDoqif91EPVB4CNCMjrlpxr7z35hTTqZ4IuFQARJwJmwJgQN0ibcWTnhRnoIuUbJhBKI4eKUCESKBmFtUQoYIa3trbakhmtdpYt9IxVbw7QcbAbE01CspHfw4zxbOnotG20ezYTfqe0Ehqqo3/Anj5rls1tlCaPHDUO+Pfz6TgEBBZJOEXC4RPuHvkfy9/7b2w/vh1KIc1EKWy6wXIPft1yJ73eTl2MuQUga9uv41qjSscZTWFBZOSrnItMrd4f78GS9nOIQp4BngIFWGPHNM611TXr7E3HPNOeTpujpTYMeirmyPVpSGMqXiNd0oI9LBkuT1UMnNT83CQ0OpY9mLTKNZS7OgdydBzMRWjmZ1rteML/hC8LtGW0nl8dBl38dqFd1H29oqnJmmiDyLRTmhriSdtxXLbAGo0jWimmkFftQID6zxlGK9z7Zcvf9zVC1ckY4kp+nJ0E/LnvtcyKpyBIdB2uu9LW7voN76hPVN0ooscVIYNTVtGfBI3zph1FAnMPFHrswpVvtVVzgAccoqmgDNSQldvTt5cC6bF5jXP8WUIh6CJMSYXp76bqRah29+Vt2x5tcBpq+wTZQZScHhHrWCrxHqMNf/bU4kunWex6VgkEmoeyINeEqsHnPXJ8Ka4M00cCn8UyknlcRKvLyFU6DQyjz5/ZQGJhP2PPLAHHoR5nQY1Og4hIBdoZaoSGXAPy8uc7rHj3v1p+9f+IxAK79E6vFabekPydn7Da5sWWmf1YO2f5GzzO+vbfg6TYttyFFAKOSVrlr8foV0pA79Dl2CSuMdc2YkpxTs/M+labaa1DBMhRH/GrqRXoxakLvx/fvd2+8sctZbuWUl6y93mtuitcJhu/wEkBiuCXwIl5s6iipx8325516jyb2SCrRD1aMuGozBAOlfl43OgERFLoDSERDgLS05ORedKx2vJ3fNTym28BBgAS0QV/mRORpSCse6cN3PMZy53zYcvVz7DTFr+CwKKt2XkdNYXACDWJysTLhXslnAS2Psd5hLmgGQ6Ux3DtcqC4U+md8FI5wkG2oBUbHi7q9jCCKauMr+QCoyTa5OMmjogu+AVnlsq1QDv+23dts7s377UXnrnQTl7SQktXggE/OS/6JX58yPdRC5g3ttycgoA1bMjfsdYGbvx/lt9yc0LV/eQdgQSjwpZbrXjfv1EI7KZeO9vOXfYmO2rW413gomS5LJLU+NDaF5ZBvaTzCLFdGSQ8mItq/WDxptp7KYhMcizbuatm2otOmUdnUTCNs4nFrYpNZVD6Heh5+Dt9N1JYeXqH6h+WXs5NLTX6VeWZ3b6t2z7yy/V23YO7aIvInE6Hg0YpIJJGgUF0Se3O+yz/h3+wwq6HeCRMsEBY1xR4R3QOL917D/y7FR7+DlFIk27Wc5a/0VbOunBQFSobf+sVWHhI5RqKWn3mmqBYxxiIzLvDVQgORDIZtUW0RBatIZPyL86cb5esbHOlUuBZlFIxeLzEr7JVWOlX/lzuj3FGCovvxnIfll4ejhH8kmf91D7f1TtgV13/qH335i3WS9sqDTeygEjdysFA+gXtK5sO/+ZfW/53b7RC+1qeaSohOF47g8D+XHileMSkAAp3f8aKW2/ywsllG+z0pa+yZW3ngWhYehoLoaz+8qSVwvicIKXrFuGQxRjqnvGlOBW/VqXgCoS7tIkeXnj2Qjt6TqMzWqS/XlXvL3QHRfgkzPL3IS1fummzfeGGjZwdon1kKGcJkipwHvR8KG5kAVEKMqcgoMY5VOtKGApbb7aBW66wQveu8I5oAkouAhqehl8jWIHFiz17rEh7xHp2kG7Bza1zlr8Zc+sJICELcjDdyMbjV5lOKvLL+BysUE8Oh/PIePYygw46IVb0kBZZNqvBLsWGl8SIKaaCZo28F0stlukAOPzk/p32+d9ttP7+wDkSEg1Sejs5fjCK+/4FBKLp9KIwSxLpk3Dc+O5EOCLDjyKHkaKAQH77PVZASDR+IrHWATZnY26taLuAR2mm+GHJEwPGdJdoav8QEbFJ09zdl07aYwKoij4SrbUm5ZyVM+ylp813Rjr0unZyERIju1EFLjXw7QAmws9Xt9vHf77O9nQHcysjLXKIYO5HQGRakZS3OxCSTb+2gT+804o9QXP4tOlDzqoMMk87a/k1P7LCA9eSF+0aGFZTP2RurWg7F8UlTRIYWAUon5tyZckcqlc9GxrAbKqf7/Z1SPVQUzlc48tkMXvO6fPtacfOxr6fongCd+im1p4DGfvZ2t32yes3cBrugFcCh8q2+xEQsSN1LhsJmDTHrZhVPe3U6kTnVegmVJyxudDDIZsQSb/vy/Ru/c7rdiWuKehnL38TDfeLaJMw9oJzeeI+HjMrlHcwH5rqZpGoTEhPfvoCBaKppVmxf33WQjt2XtgtfaqQSMIt2L2cYRj1bgl2zdP69dp2+8LvdV6meDpGGl2xw/ESOZLnY7U3So1yatriznsxq/7Ril07yUxZkwGZK2MN/o3L+edcWOlWuOdzZnvXe94ygmppuJ+3/C3euyUuDjnjwzMoJIJC73Q/uAux2OqHWby1rJXXQJInfPBPj4gYqoREEPHP/JZae/HpC5heoynvgcqxDDxatVEEoGRlaPgm1vjiE8FaI57G/zPMrS/Qw9VDmwSbyN9pcq3PITwAPlCAZJQS3OfdtE4p/Dvvsn6ZVd3tIffyRJxo5QGH6Od78bVuEvvCzocsf/dnLcM0lNiIyrJC7/Qlr7Ll9G55d2zygX+DXyAH1JXIwZ2+E1m0Dr0uyyxTKDoVGqIHxyzlGNBFLHDqslZ7OY12bYjg3JfcAv1TznO8yYXCdX4SXySc5T7vtiawDj77j/t22Hdu2WI9fVrQBzcQHuJ71BEvoTUs8cN5PpK47q2MkH/MCnsetSJdgGKsVF1MTndBScb59T9hPtfn8QelJmltqJ1rZy17gx1Fwz3v5laA0wE9RIA8K/Dw/boQkiBih5jIYRw9dIVCfgilBrt+f3byXHvW8XOcmXLikVBUU4YKKnOZWmqii83UJvkBU2tupF3i7VGeXUgUcT/O47mJRUzV1MxCZkbuZ62w7W6oRS2rFMbCkfvJUMHKw9OE5ioQZ1ZMuvz9X7f8hv/z56Q8fOfDc1a+jS7gCxwKFxH/Rur0AJgpi30c00wYRdeZIN6e2uf9kRsgesMvoYFLJSm/yuUvz1hoZy1qcbNEtD9Uik8mRWUlxK6eaG209+ftmj9utm0dTLBVswIshfv+nEx+XIihWqT4wDfoXfoxQXoVyBHNnv0lcqjhYfOAhNQl4OhFQWsU7v0i01hWk6RaFwGCLFuEnrbk1Zhb5yLEqg9CuGKMVGAjhXk24KfDcmqYrOi0OVTAD+P4opn/IIzMEtFYDDazscZecMYCm9OQcxt/SpGA8o5tEt3VRtF6lA17++zjv1pvuzqZyAWqzi9+SWiQ+IWrRuvdaQpxccvvLX8XA3i4IaxXYmJ/lcKFTIelGTVJsX2Nm3fqN9B+g4JDyDUl5tYKerdkbkXhETCDDXXFDoU7EpBqnDXVLvAYEhDvjRsp4hEYFttk0hzyBzKKymYnLm6xv6Vnq4aXXhMTqPZqML3LuKnK6CbI9BMOcrrrWXjcvLnTvv7HTdY/QIWgSkHY8NIrTnkSwQgCJu7s3sZEwi8RLbb/BxNW4pV23nfthMfUevQmK951NdDSzQtoGR9MDA3s81a8HXPrQi+ouD4mCHMoPKJDCF2HOoUI52YERHefInMg3Tr08yPiKSiOYHKImSQMXonw8CcnzLG/pk2iedfikKxecg8iJP/UcMJL7J6j+/cXtEV+v4ZOKJx4QiPt0WwPA+Rudqrdwbnm2P75Xfc7QxJ3wp3MOAHpALAYv//B71hh/f/wiEmFxHubgfe6n7ZYg4kceik1QxH5j1viUyL7OL1T2jpRyiNymdYg+5BpSIDTLKlEtJ782ay5OGdpK2RUQQQyakvgqeRUeUbB7x0o2Ldv3Wab23vFDYEt4jUwIwIj06pzi+Uf+jYilNTYkyEhzvyiNh7XcxwQzyrF4u6HKQ8UnQuD3mbZLGwOvVt/Zyvp3YqDifoslFVQ/MMLTehrMuTMxiW8kn1NyLQGGU6mIc+ip0ikyku9Wq2NObsUU2t+E5vkRR4peYZ8WrUP5WIg7fdQe7d9g8mNLjVA7StKQbqkQYRpcc33YMRHqKlDr++kYEdB+P6qZB4Lpbh3EysRrwLqHvE/ESgoXmpOVX1Nqz3uqHd4F7C/0mt5XEy8aP0pXPTMLnysItScL6UfXCzl+Dx9L6eAqCNzSv+SA5Ft1fwmu+xxi8MDzyVSln9Yxf5Y4tIiMqe0r++PH2q361bvdmQcHyrjiFe2SNujsOb7tFyS/YUiJSYByUHGTTJHYAubb7bCbVeg3boDAuqClCiowGgpnk7v1rK2x1GA0dzi2/A6SUTKUwVctJn1bNnDgfOyQT0wiTF9G5kCKA1orXqTtRcUjp5FuAuObmMQcQGzEgggXMGivly1k9ZRAE61X6MYaHHsf965zXbuDVObnNGEDI5Nn+6y4t5t+AIjlVWvIcYEXgV8REDZevcyhTOw9n+tsPaHNNYJlCBQCjGuzhg8e9nraZM8jt6I0Lull3rvZpUS4kk7mbQ0zAc9VkMmYVHd+uP0ZUQKlCotJ3iw1LX68GknzbULl3O+fCiOZAdCma2B9iMmVkWBgQeCQNcC9IM7e+y2DeyvoBfgENun2cKOO3203JkvvKkiNASroGX+zP3XMCUFYVaIF5akhPqNAspxmtUFR/0jc7fOd+YXjo6nF5a+UAdAwWbUr6CLL6x/V7JKZtqNngJOVzhIdGusr7HnMz6ylDXtqre87iWC0330SVZFTI2PqKv3pw/sYmdI8Qq8kdQM2WLnempmWEhY88bvVQF2BCIUSKFrB+2Rj1mxbyfyoiIB4NjD5UVWZKr8ZT6YqPAgWIolxIJQtTQswg+OStqrCvfpadqNggKiZBgXCPeVcxrsdecvthlMalS4L8ASD40irWqKIrw0DnLf9m5bzfiIhMPZg/Cs9XU4tjJnJDRun1cT9A6LRJr2yPZ7k/YIh8FIRrxYQnF47xZT5c9a+nqE5HxMqoGkoFRgmsXbxBjI4EYNoYYQaabdoVIg1q4qgtNXzrSXMB1FZoo6H525DjXBSY4fhD7DURB5+29WIkoOophni/17A3iRV+J9koEenr3MJPWy5df93Aqrv0VJqHgkHLEBKcAzbOnTZhcd9W7aJOf7+2BgaTantvqZTZhiSYHE7z1o+jJKCriWoL2qbl+NSKsMnnTiHLuY3VFCCQT6jjK5qoimnRBkOWk9yZ2b9trmXYyLSEpwVMua2zQ1nDfa2Zqy8OC3WAJ8AyWBgDijB/gjUhIbN7dm0nBPzK069sJqyM3yxrreB+0TiOCP05cxUUAmbB2Hjag9cszsBj+vfKpRVbMOxUqa7fsou0yu3sWhQWIt55JEUsZEnUn4SOuKtboxf+fVLOTa7nZvQCUA40JCCTWgLc6kd0uDif2FXmq7ejRIY2JberMdfxCVSUDjsMlS7KMm4ZK2evu7C5fYzDpmZThrTR0Uw2yAwAvaA3j1ti7pFGcrhhSmDpO4uaTqCX1Y2MEiq5veb0Wdwz4cBd7r2IJ6tve5cNV77MR5z0BQLuRDDYQqMr1i/s1Uq+uqgOmG0VrsI9NE9Dx2UbNddt5iDjZVnTyFHLBLEwqXRpBZu73HVx4Kg6zVcYBd4njvLt6Tx6q5qd73qfIweZGtvAtb/0j375fptJKQUG8JQxd47l5CYfzj9KWvtWMX/EWChytUH0GdYspzksoBWkPT+AunGPOMRAQNrM6dsM+WNMkFx8yypx/Ppg/QPwpJvE8SAgfNVgPP4nn9algguK27301FhWYzdUw+AzHVzkIkzkE5aKqTFQHhEJwOK/KdZ5fG4ubfEUBI0p4K76VFwq+GwUEOZU6epUX0U6xpd0AKIBh5JvQVGBsQve756X1241dvsAF2MNScpbAZm9gq8I8a7vWs0f1Ltg46fm4jh+SEisrXl4RoB8xu8l7C+7CDOEI8s6uHeYDBxOC5SfNqAtMJQO/urWpkBskojWIcU5C/42r26+qgPcKcAY2NDHMq3GmBGEaUUTyqpy9Dz6H28e3jTI6bvvIH+9U//cJ+ffUv6ERUx3pgKmcuhEHWq+g8d0adve7CpYyPsOA10TTUSVXrvD8T2MX2EhINHEaJyGbaTuRJURKnl1OoclUxFfeypcsNb2HfLg7ucRQjMtP38VBAi+iiK7BUtZeZr7UcLX3rNbfaLz76U+va3e0WrZtakhJpFfhHv6PmNdnfX7CEg4p0jrm/iklV3b2c3eUXKtFlM3NOoX+r3qVHgWG9eHxd/XdpERVkftttHODDcl16rNxmrH7Qqx5C5xOYHa6gM6RoHev2OPfUQO87v32n/f6z19sA5ogsKbfi4Sy1PdymR0ouOHqm/flxsxLTpbrRLZMJ1yCOFCBnM42LLLvgbCwTNvoFQSmT8sjVjRYFE0uRQius5RCfjb9FyJlv5Y12Na7081KudlSqED4ZGmqoZqz90d1M82EyqGsJNAVb59z69VvtN5/+daBvYkrlNZfJGUvMZfbMU+bbiXObfFNpIaji8vEsPVSLA6fwh3mFbzbzzMIgqIQ9xzT3ZU/F1hRTATxadUqxUwKsCF/s72FN/VVW5FgGd+pW0Xu9nHZjoADikdBu4z0bQwXKcySnBOfWr9xsP8Pc6sb8KtCgV2Wk+ohX/LI2qyVnr8XUWtYSJjUKiAJtmpjGGIBK/RPBKjaRQdmHgM9lYZj20RKMPg6SWfwEy7YdFSQbHKeSC4QOyKjKKuxlT68/votVkhspIL1NsFepTbtDooDaFqKsKNe+ia1n/WtCFBAefJeQu751u/3uc5hbaBiXDtcmxEmEZdXcBns9QjKLQUQvEr3Xa0+vCi4AFTpy0CBM5V/a1kBvnMQFk1FgZuqarWbV8+gE5hEmcwJUAdyjAUE1nMMLtUMvCu2RnQ+GTejYqTFMxNbL0aQ2HaecAurBcjaG0XevYRY1NNSWs2JspznPqk+LfUW77Wu32HWf+Q1Hmusb/wpeUmtEZkvGzmBS41+cMtctXnUHB+HzqJN+EYxB7UlAinb0giY3K8Uzkgi67LAtFz7OMq0rQHyKMRPgFrUVuQRAfm4yF/MbfsmmDz/mIVn/oRf+Vnc5Dwje6euIFFBXrpyOweh8lEmtPGqgVqH6ab5oFJQsG//d+uWb7edX/MS6O0LvlphO4qK2iJYoPJGdUc5b3uq1tMwzuXB176RcPH9Hk03mEI4VnJh7HD1wcnoH/LzlP9O0xGpW/jk4aSZNIILH0sUTKD1Vn8fhExIBcgl5cYD2CJtiF3dqh0ga8EJDwu+N9mhHVjtik0zqoAxs745O69nDDFdxOs6vXEQ9p6DIybPWd9/5rTvst5hbfV3ss4yAaZBRcaQ1ZjXl7FWsZz8aE8YH4kJyMRXuE+8iB4jj5b+QM1IWzqxLnlxACPVYaJKjnmO5OSe6RnFjkXAfWU+kfeLBP3iOonGJzkl076oG9gKTGQdueDMbcO9khzxK0QVESDnCB0/8CI8hBaJKZe+2PdbX2Yv5JEoTGAnO3VmDe2AvTBR2T7/9a7fabz/762CyS8WQhgYMld5iTrJ6yyXLbQY7NSpAKxHVZHdNNAn0dlS4DKAZ5zXW2nOZBSCVFzWc1xG+aRt1bCaH7XXGOyzTyMIiMRHYe208CYCPJ0vJghei9vvas42Zv1diJ+8tFQKYBfzGk8kR8K3XIxCrmwHBAeYnBWkYGXFZuRIAMZz3bn35Fvv5R35ivR1MHdcLvRMjYq4tZyXiC9hjSw1hbYotmyXPu7iP7sg5VCYUsJwvJPta0zK7mS2NBG/iEBChJPnnDmdlZp1s2RNehjqt9SjSIMMMrvht1d5VEO6EJ7u15B/5lRXW/SdtFTBRbeY4J3Gmb/ulgDemqWx6WIraxz623is4yDul79R4V52UWGQertnUd3zzNjTJ9daPcPlnXCQ8stSewq7xj6fh3kfXsDhM3+ZQIyMkX8qnUh7BrrX1T9IkS4AT+0Q4gAsAsRMzNKJ8f948tuPKZ1p24TkereoGdYDqYE7qWkhKsF246c0auPsLnBPMzpGar0V4aD4q1rTbLwWoSbPU8l17ghbYXweOU5GLBMU5C/qLwhp9V+/W9Z+/znI5bRtNGAKitkoLYw2vYGr8yjYmNZKPGNI3bdsvMJV5IZD72J/3+Y+dZyuYYCnnxpOrTxd6ZKQGe5Dp4769Jz1AGY4HyJ74ahruoVsusJuQdlL4vejU8PSq7xLALIOLgIFeG/gd7ZG96wKeqvNEhNJPz6pLpl2kgJhWs3n3bmEiKH9llkeM4nfFK7UhIHXpGb/21FLv1k8/8n+Yaj1UxnmfBawDbGZizvzDxUttMbW3tAr/SsmvlboItqjplJNK/HknzqaHjeXYeonTYLnbg9xoHyWQ6e7hkEJBbcdb9sz3Waahle8cZX9fqiZC9BBW5VfXIurJYhCxoJ0aezl+2oUBvFSyCWGqHI2JBw+rQoN/e7YyB8sb6IAwAq2cFcr4IbJUAFgmFebWN2RuXWe9XZhqSaWk6fKPWdhkf03DuI7xk9AwHiGDlDGPOQjks9m5/sXnLPJ6UrIpM9LfJ5GiMO0Dgo4eyS4612qkSXwfOgQHxKQ41BeeJLPPd9Ua4PCi5vOP3mCFh75D1aCp8dIaQkj1iMil37SLFPBjARCQ7h1d9AKKTvHNwe/ir6BV8MmEwoy5nblbv//cdZZlc3Lvcic9MeCTjpttl6xssy7i7JchD57lQWMIJhnYWmJbROBnNdTYy89d5HsOZ3iW3IpPQp2p2IPaxh/KL0VSyTCBMbviqVaz6ql8xl9swJBCNLfKv6l2f6i5OJ/u4W9bfuPvkA2KwzWJiiUQpNpxmEj41P2aZ1Ji1zZWbDpnOQeNCgTJkyjqzCbB0qcE3oK59TMGE/v2Mq6iCpdXGnx/6XkL7Qz2/dUiK0WvhBMs6hJQj1srvPzGi5b5XsMOo+AjU8Hj5l5iUR1YYBkdzXCeX/bEy1ybMNToCSipfTSIUq5iJ/BUQ6iRWOhlkdUtH6DRfg+oQAK9mHZDKKAaPsuGcD2Mf/RxItOhkkhMJ6db9IsDNX3ljmsZJ2EwsbeTqUDSLiQ+k0b7G56w1JbNGFx64QmM9zKsaCWSM5mt+wbmhp3NoKC0pMOVSOXw8+FHFhCYJkOj3ZlHWqNxvuXO/qBlZx8PssigZ4qISMrkj+p3GDDjxS3N7x1/FRAAC2zt1Dhw+8cRFu3UmKxCLJVkmjlP3bTEzHt37KGblp5N0HAajhad+EFyd9ZwXoFFE3Prt/Ru1ah3i3BN81jOFI+Xnb2IMyRDV7B465DyHAE2ja+EGWFoKtKVInwRWxRddOxsZ13xg7p2vftZqiOoj1JKIwtI6bU8fCShqGuxmvM+ZJm5LLAqd+I2MHQClIdXoR9ISwWthmNxx71WfPBaiALZvD1ShUBPMkidTDPp72GQkBJWPThWJzaRcz4R4/OLc7d60CQ1BOQH8nbWilYWWc12gfFxq/DZmK7KUsdYR6NNA4AvPm2BPZH0feNARZAFcQB34LfJh2o6abJZtpn5Wmf+P8vMOT7UusIW9RgUCLkpwynjAB7NkX/w21bkdK3B9siUQaCygEIeFW9few+j6NrGdfyFq/TchPGkqLX5u/3rt9nvPnMdA5F9/q6eWv6vOVrhccsS82ccWLpdoGImvwbSfRXa6bmn02PG2I7wkdno7dID5DEqAQnST1RSzM5YZTUXfQpz6zgSZ3BRJhh6LOiQ8RPxALCm/kqwW77X+m/8JyvseiAISeq5TNEEIY1Ks50jAXxXExeXceAi6SBBv+kiH/ykRVa3qU3y+d8y6SEcTTGTOVFvvmSZHcXmD+NxYu6oIF7GyVjPVHcyKsWNHr1T4n6RZ2Q3KgERMhlEv0ij3RtvbBWUO+8jlllwhqtKKgJcFJLBjEQHp8VgUPX4ACz0okCwYh+bYl/ui6yCqVUGdZm3eoCvPCRQxTSYt3vjbjfL1ZY9GDMdECoYUWaVknFTLaFrYqGzMvEm+9nHf+q9WwWslVa6YC89e6E3qKN5Jl4+CD8PAUFZNNCOesWZC+0p7B8sDtX30VT0tBI4hnxY9jBKASEp9WhJW7i9zmPLUssxkJhd/qeenDKXcxBipsldAO3z87j7CR8W39MdFjY8vfI4+/hHymsI5gwi7rzfCg98FYDUU6fxkeSX4KU0jygHvfNs9dPx6K5Q7iAvkozLkWZkdnGq2IObO83iuP2aW+y3mFu9dAFLa521YoY964S5Yb5WWfyRwJDwySk98YYmQM5GyN7AdqjPOW2e1WJWeV5cNNXF2+LOzx7q3450GcImI0UYMSxi2bSQ3q0PWM1JfwtQaBdA8FpZqQpg7spewO/zU/hI70YII2jf74elWR5nH7++HyENwRgEG4/U/eofWn7tf4MLNirPhOLC1b1H2CXvo+gslKK8xXSx2NMig6cXyQu9tZ2IDyZ+/nrLsTyXXmZ7/lkL7IIlrV7w88EAACOaSURBVC4kylfztWqIqvIsd6G3SoLBO97PZbuhtz5+mT3hWO2qwh8q0Dewi1+OEpmxCYggIwMHEmbKHvdSqz3znVbTOCtArspXIiqqEkuCU5W/BMYwYxlw1Wi//UqzLTeDHqRRoR3BrpedznsYJBQpKlFPiLr6iaEjqeW/mcHEX175M+tXw50Yb/nT5eyv3OT8Jr4qEEnflTvF87UlsNxCNoh468XLXQMhc859zopuJ5Z/dXD/2AUEjHwchDwyMr+WP81y53/csksuYnCRxpUwFhYAJen1H2HSMEN+eqew0cYpjxu/GcddQCpvwesi38vO3pt+5uCrsETew86Bq695cPz2j922NTuSnUrK4hzkm7KYB/WKsmJcJemMiAfQfEzi5i/d4r1b3cwkbuXY6ZfQyJ7FIiuVSVI1D0lf3fZK46xFLfaeJ6+0M+gudm1CmOIrLwlRyI3bKJ0WbI/NRQ0ChuoG9lpm1olWg8mV3XKTWdcGzHnHNuExJ0egiLzuBHDpIfErDCdKOcrcpQ4xgFWre/ug9E1ZHP/o0C5ONuVTAgGP8Fr8hJAnDTyn6aElW4WxwVGkUiPCC4qb7BTfplUsoJfUzFQUvgaER5Fk55ptVB7Br2cvkhKtCBinU67q9o1CEtMPQoC5xQRHzUP507c9yU5nLftzTp5rn7hho7XQnojO0wCmXsZQnnRUm72SLU/ntOgcd/ELbQ0iFNTWEEZJWPx2NPexC0hMHYKLf0su22DZpRezDegey3RwnFU9c+wbWhixQavIpFEB+QdlH4kyTh2hi9MrUa0sioePeBlVpBG/PHjgaGE4eEqTGqOctr2sjbnlLut+7zes9omnWP0bn+8a38eBBKSXBXfKqn3DLophX3MmLVxUcirm6JwtxAL+gndUsLfQu6Ue1PNfeZE955R59hAm36/W7fYR8bBc16yeiuzZJ822S3X0ghoujm+SMHiUxCmpHGJ+o7mPX0DKcwE5ny7czRrmb3yUTRNuoberzTIz5zJ9nsbSLFZszVnIneOY2zhQs6kFAWoAQ84uZ+VfqMgChXy9CQTKqJYT5YTvcMFS3mNAuhzkkf3KLyHwyBGmTqjICcPIgNSamL5rfmS9X/wJEzZ3WXYxO/t3MxGRzd0kIMI4yFIog/bVuwgJdFD4RJFEGkSDe8oZ450R91uswOKrCy67yF5zwWLrYHf5WzhsU8BqLcnfML7xRLpxHXa+kcUs5Z8oRjxjd+kKiOCQGu/ca/2/ZHS6n31yB9Y5ZdUrFJZsitLEo0CycxCeufOtZsFS7kspsBUIE4I0d5FlZs+3LAu2UD2Op38D5hrR93Qi9iQ3pOQmqhTJdko4aQDRqH0HWuOL1vcdzBbNv4CDQhsydKA42ZyWxKVs+phe0rWlq1T/qMgiyeWtlHONAhzR9IKb3C9zK4Np9UTMrZcwPrLp5+utmec3MKC4ipWAUR68KgA39XbJYBmvS1dARGXGSYq7twAXqAk7cbb/65L8BDlEKGyjhtrCziO330kXH3tzKbyF3opGVjQ2U7tJ+8ydYzULlwXNs/RoNNI8KzY0oHnqOZkTzdPQ7Hl6SSp954ZY0vshD9EcqP28PmyCRQtwLdx+n3Vf/lUb+M0aVolin1MbM/3B0XRKuXRAOtFFr/huDzuZ9DCL1233hCCjtnrHQUBpD8EkJ79AciFhguMtX8LcYtrc415+oV3+9FU2A1yamZmrytdn5bpEeOE6DrF30hMb4yVdAQFQAVXcg+3K1PiE2gnGAK4Ck2NniyAs+DWbkykG2Fl6g8YhjQ6mo+/meOrCBpg/YwPSl/6DOhzimW3jRNXWVsu20q3chqaR1pmH1pmBCTeX805aGTWto83TgLCpDRQ3jwuSGuDxBir5Jczheeu9YIxhXlqB4IO1p3BQWHKP8T1IF3DzV8l3Ma2QQbpXtGlgggCP157KT+Ugbu7utL7//pX1Xv1jK9AjJdoVWd/hzuGS4SVgE4zwuolMWBeTFAe6BvfCctIlKPsHlboAtsgeiyJmKTylJW794s0u4I97zYXWyECgRt19JaLjE7Dxq/glwW08oKYqIEJGJlaRxnlgtHIY/e0grFFYFBz98a3XBAgD/+703rtiaZahaQqb2URg8xbfiXsfZhSv1HEmBZonM2+h1cxbYpn5K83mL0SwCKMNlJ2zGJlpCuRTfDkxm5tv8ms0XSVF/RlLSwUg89FZyoHGH3CKUbxUS5ykdzFxvJVwohMwS3sOTtkXnPx37LbeK79mvV/+PTQjc8EvGsqV8U5kPOEbhUU1smbx9rEbiaMdvqo4OjGbEtkAmf+EzAF2Xe/67l227JwVduzFxwaoCRRKunh8D1VAeJJvrC5VAfG2Aa2r4t72UHAqEKdwQG7UQA4XGP+QNEZKRjTwH5doA/Qy4PfIZiuu3cAJt39AK7HjkjZOxnTLtNAx0DzTbMYsdm5ZQPsHAULrZBY+xjsUinX1xE3MN0y4IUR2EEIN7LgqX5cZvVD+YlYB65eyu8Iq4CI9oJfvo6v88Rce3Wrd7/6C9f/0XtfQrrFj3JHAiGXkYBORcuvbGWbx5jglap8KbKQ0KhkGXKqERGoJwgADiJ1b9gTt6ZUW79AYLiQpw5GqgAStgYDs0T6uYCSCH6hg0kJGebgw4nHLjju1qx/pYPSO0VHmtSpTJ4o7Ed5taDh72PJ311h/mfmWUfunRaabBGgud3rf5s2x7Cz1ws2j942et+YZtHs4TlqClFPCKj3nrHD3Gl3Gjh4Jd6FN3hOWqpNgoD2c1uBfVBfuj6637k98zwprwDO+G02mAhWgI6R7d3aWTJ0JKcMDwCha6icBcD+4bn2AMRqesci9Ma52U6kcCE/LpSsggkqmSg+9V2JYZ560QN1fOirZsndJth4mCjrDcle4m266y3ZTzZiEKw7touKudhegQmbD4Ds38ygamF0L+62ZcZ75HDo0ZwH3ZWif5ZadJwEK5lsGwcowFuRO+YsGSr8EkIIIS6NAvVolbYRcsxl6Pv0t6/3cr6C/RgjIw987EDyP7PytC5rMScgAHbRwaY+2+oFe5bsMjpxC5UMFoyvomBXl1uFbEYGiyhT4Q1ssRkjvnrKAADmbRrNPjJdPAFNcWElH+l7KSR4lP+HKOj7rLqaMTtygCMktBof4SbhXWUTwRgaFoM753TRemfnLIA+4woj8Mq1oniZ61FrRLk10IMxB+yygrUP7J7vwKO4rrCjzToOl0YTj2LtB7aL8pAkkSInTc7lz2ImnuwuYXgIPnQ0FzMnud/+b9f8fG3UnByGV8HYilCc01E9qJBdaH0paApHvy3sj3ZlvaPRJeXIY/ZJkD9pd2xkHwalovB1FWCVcygKi8oORxDjV7pzhAFKE35/zdyoB/WIkaRKYV796GF5O5g2bGxRVMdhms4cQIJluWtcvbSX7WD1vmG/SNFl62WzOPMJmM+5Dz9sihGjZCcTHHHRhPFBpSyiUqeLkrf8XN1jPx39g+dseQfj4XtN75ErwhscDXWPUkGsiINswsVxw4tsDpVDZdw5XAK6UUc/2rpJfryTYlRDolAUEUNkqiA70ALwYaxhiJaymrAecIs9EIRMuUvVuwiEY8b1MKzc1uW1FeLZugx6rAxNLwEQbBCg7d7Y1voWJnisf6xWMt12G0QcR9Oi6qr4vshKy70vfw6z6iRW3Y9LSCeEG+bDvRvOo9Bh+dbDV2JcG6WknTUD0lvFoEpngOAOdA5iDdL7IDCRvgVoJl7KAACrao9iF+pMZIAYoZ6JKYFAtaTqeIKzSEt7R4zRIHp3hiKCRbAlOYlZl5jL9pm0BYWje4aaVksJ5kvqGfAobN1nPVd+03mv/EMZ79NIXRPC+zErzD0dzESiegWrhrHVyAI42nHYURvP9RMcB1gGOpd6+bqfNP0rb4wqBygCRroCISQSozAv5+Q+Ul+dwd7GEHOlBZCPq4sBIHy9Qnvv72bnyBGt4GUdOMOApgkk/DHExOe6aODjwhzus96rvss/wmtAdLYlQHM3NkNPnidefR3Mp+0ZHqGmQsJ8DcKraQcs8QiIXhLsy0KYrIM4EABp7jpzwh1palUG04ql6a5FchvF3Kd8oHCKHesPoKZJwNL71arqPGf0PtUlIQHFdiLgrvvwMkPZ983+s5/If0NZJmDc26hUn5iv/ITj/TN/IPFS54fe9sJgQqPZktTqHrCQZPO1H844X/nQFRAXZzy58ezVNBNAcgeol8niJN+T7IWgmD7qJA104Eg6mqSDa1Bx/ojW88eNhbKX8vSdKXHqnxKDaA6C4a7f1fPLfGRX/FW9JIEnKhSfmG+/+/egvEcTyL3q3dlm+h72ZJchV6SYOrlQFRH3VYgbvxSrh4IFVSeaKAxUbuaWKAlpIcxyPWfXq9zGWskTGNG2SpDcsAcg3NZNw8Bu4/S7r+ci3bOD6h6nlEY6onccoECPi7GUVRIXRINu9qSPY9epIcCkc8asjIjBVAYlWRmlAzmmeZklOsTKRRo3VvUwYbGY3q978L0FzCB0xfbmTYEig+PX/50+t+2PfZ+oIGlkmhE/yJHJMVlo6BUeWDqb3jiGA7Y+2U4SSmmotu4mDK1UB2aesVPYpFeI+aVddQGSoeAdAecVkYjbak7kT0BxvvIqBxERzSDg0fzs6OFV/trcTc+q71vPRnwQelWqWsEWNpE9S5JEIZpHOFe3D27EZDUKgh0fYqvE+AQCmKiBuYomQsfCOGOGI3EOJRdxj4blwFKwG4ah/1fvYj4YGuZYCMOKtqKwE929Ui8ukKtx5H2Mb/2n9/3sXQoFESC0rLf0iPUPnDQFpOXQH6UtzaafDTgYJ1RFZzU6w1kgrQx7RTmapTrNK26UqICrDoo5y0zJad0B+xDlwTgrOmVptjhOOt8Y3XRk0h+ghoeHnU+nRDD6PiOf+X/+OVX/ftMIaLRdIhEPxo2DIXxEnvaXSYwkJUzj6dvRg+aWsptKEGxLXsJpw1jJtQh14LJiEaWYS0kpVQDzJXC3zkdikwQl+hAiI8xa4Cl0xv6sD3dVbpa5ctTnQHAwEsu0ZzQlqbHqpMghBXNjU++UfWtcV32ehH0Xi6YQCqjQdg1golzACs2n1drIHAF/zGmGovnuWafh1rPspUAGFmQcRk3RhTVlAEuZQ/7yYxGtSlfZh7kooqpB4kJBgqsisanj1exkE5Aw8X1KMcJQqjmAOFNett55Pfc/6vstmdYWkOMrLWnRUZZ66WRXKRKArO5+wgZ3VvprpMFPANc7XWh05MNA/dPI5ciEwtWu6AiJKc2KurxMXiKL+4eiilhgRNwlH3nLHH0eD/GOsJ1kGHcKeXt4TpcoDs0pT5/t/+Qfrfs/XrbBa61PKnNMtIZ5o6lt8iAvK4lTEW7TtG9q92VP5vMaHQPN8WSlyQbwrNE7IliFpOhVgLX36LTMC3J62EKh4yaaJxcHTUo+ShERONbycHqUU4P+a44+3hrd9MhkEZGSBmtkLUHH13z9g/d/5iXX/43eYt5aohiQZJTXEefj+Xg6JOaaHgEUoI7VDOh9iPwGlRJDADe/HlHRFP2qdD49FJ1gpj0rAmq6ACEgGvTJNbQF0UVq9MIebU0lEtIY0yDGrNAj4KplVC4iiObKQQAXotOC+YZP1fur71vv9G2gRIxyKUPFG+P4LwMESfADS3dHDPCz24nXhF8NFJPf//eS84YTaZbMcukBWrt4NXuW9WE4s+vYzs2fjheoq/BJ3TA4pK5Kr8PLqVZxF4QhHHyE/zhrf+FFWGWJWsfFDWPJLkzeJk7/pVut+/7csf+uG0D6TcKlgJ9EJFXeAsXf7XuvTJEXMP7fp47squ+tw0Zna9C5xoqD25q2ES1mDACK1YXY2U7fphvP1CXFqRCWgn6w0y3laTI4iqDmOrty3f4oFUOCuLYVoi7nwEDfDCHjfL35r3e/6qhW1I0sUDAlWYpZNFiqeLwIsE6WLdej9rNsPeywCPi9LAjSpAJZlDpx17N7eOJf90KBr0HaCVGo4fSFJV0CcoihrttbxKRRZ1jcoTL8p68pZpAwRBevXn/RWveo9tDnAW3OrfM4UcSnMAtsT9X7pvxgZ/w0LybTeg4+i1pBmmWQnCASShLlbAsKOIb4yj2cFV4NLwPPBTI131DXXWcMMbdvk0HMlhuCtAMApC0go8OzCVZZtbLRCxx4Ad/Sqgc5jg0FMHCk/yE0hjBHxmuPorfr7j7AGfSWMrxY6I+TqtUJI8g88aD3v/Zr1//5hBClJR2noVyUuMp9Q7GWAMI8Q1zbWVXQR0qGi7uQCPoeVS/O8Zmudz/EGLC/OsvhM78u2qD7U5A8YP0WdBJhxqL+52bJHrXK7/IC5T4WXJeEQfl5EQM2dx5pjaHO849MIx1HMYMasUjjaIUPB9f/yeut8/ocYHX+gUto/PeqBi+qBDhZKhf21hGt6yY83JaAJlQr0L7BOZdbRsxFihhMw47XlaDzfZbz5jPR9imQQ0zgqjIO0cH7hJTANDb7IYCPlPiXCwEl4STiiNkFT1ByL5njtB9judB62MDsQMjVcr4u7Wbtx9bes67LPW2EL7Q22Vh3SSxVIVDWYCxw1yHUW+p7NHNgpPARdFcEZZ4mrX22ATQEXnbLYcvVsUCFTVfzlv8qQNEUBAUABCrFF29zpj2fTaZaR0psz5YUkwQtEXCvmjj3GGv7uQ2EnEg38aasdelEKa9dY19s+Zb3/ys72e9XegBDe3oAiIop+VegkINqoobud3dwFsyS9ypwa49oatn5Wnc0/fr6TUmGBxN4KqQjE6QqICJs0ULWVZ+708wODiN5O+IrgkF6izh0Aug+8BOgdt5rjjrWGd36WrXoeExhJcXkx8IebrPPFH7a+H96N5lSPSuL0Xo9Vir/AEl5qe+zdiIlVhasIw/7I0BjtsfCkRTb/ODbtE+D8VCw5PXjZCZl0XboCIth8WgUAc6998l+z+yAmCI/eWNe9ml2sOUVs5/EEYH/GrFKD/DX/RFcumlFT1tEaxa5u336n67WfZQO3vZiXMqngOH0j4dBPTk2UKnQCT8eu6TyQfo47qEbnEzoBrAbaHv/sk6y2FvMK5xpEdNavQi5lARGgwcQSY2SXHW+1T3jaIOjeozX4WHW+SGcJSiS67uqtOgaz6vUf5lz4ExnmgNuZDp5ft8G63/kZ67qcVX8cNuOVgJtUYKa0YnpVh+hQgDLMjO3cxSItFktFgY5yPTTmJD1BRxXJbBrnJz/1ZOquynTpjoRdugLijBWHmcCKeVm1T73UalZhjqgLNLqqon4EirvgEg6uv7mjDLRTYc0xR1vj//s8ZtUq3scu3Ies81Ufs95v3xwGRD0Zfas0wD0KiodX70UoawNsDRLme/t9GYroUFUzhCgTDZSf8IyTrbZFW7ZSCU9QZZuugHhqIrmorjvCgjnS8Np/tpoVy0thg7Wzx5y8S0lLDAPBUYDJGQT0WbmXfZDzFDkDT+eGsBy279r/tr1/c4UV7trixyr4jIEE7dK4jwvZsHSr8BEs3XXv6GJbZToWtHWpAuOL5P1k3iTAc4+fZ8c++TjWfwCj3ATBl66AONQkqfEQiXwyLpJh39n6V7+H8QJsd/X6OHJcVAtEZpwojAN5w7WUN4+RwaPQ+CDg0Vb/2ssts4J9c0Wpjnbr+fBXmKL+71bcyCCocIzfKUUpSWkOhYnRqtkJVnCVwpTr3MZWP3761ARxXsh2n6uDwyVST6P6eWh66l+dZm2L2N9YlS5wTxSUKvZ0nTNYGfh4MwhF9vhzmch3BVvdMAtT5lbMeTJr2lgKCbO45Cag1xyLWfWuL3Cw6DHAzwDVhvXW+TcfYsrIbzmHwz8Ipag0DvRLl7qppVbU9qdROpDs3exkElCPREktq0NKyMc8kjKQcAwwMLjqkqPspGef7BWu1u0LbJ8Aekgpjy1yZNOxfT2qr8AWTSLEskefzoS+f7HaU07lyyTrUnmUPKNKNZVIKghR24Vad569zUFX7mX/zHEG7Puqc/5++DMfFR+45RH6FJNJiKkAMHmJZKXpEkbsZR9ebfWjmnnSHSCUoKAsFp25xJ74vqcyg0c9VywggG30fqJ0yAQISCLtLvk0to46ld6gj1j9817sZ2r4GRsJyhNeOFE44l1T1o95jLeZsstP5kgDRsWv+gZnb7CRwjr2puJEVRXSYAlOOMQpZRhY0BdygU+eWrqTqe7VgBfUBSIMKTytK9vsCW+52FrnavVg6LlSUUUrNiViHDCZdCcr7icrn9+DWeXFolpq9iKre/5bLXfWJdbzxQ/awN33MK8G5tMgoxhQVJgI5wCRl8w8aquchOPdX6JBPguT6hHrfMMn2NFwHYLMKknF1ViG7rKwprKDvgVwrnX8uTCw2bU1nAcymWip1AWSm+D1WbvkHX9iy85ckZhTai9RRsAtAZooZTcBAuKlEJi/RAHsSHb4yK463Zre8xUb+ONPYcQf28CD99BLRE3mOwjynTfy+UgMKV3nZkGSHo+SpUDR5O7CFf3c40uP56Qvf6kIRCHcG+TH0ZHwfs4zbLWBn1xnPVf8h+XvpZeqAeHQTFylIRfv4WlKXtU34ra806vIcWbt1r+nnxkzYR6WKFURl9Au5E8OSUYKlleLnjQTes5x8+zx/3CxrTpvlQtLnB/mHaOUV8XgGwHpygtIOTbRT00QagBIU99suQueZTWnXWx1jz7EwZq/R6PciknzsBV2bfeu1qI2gvBNm2WAjsCh0VB0ygvLhOR+I9Ph70vxiKojCDS3ytscC5hoeC0j47/mrEImGmpv2onU5yMUUCWCVAxS0vqJ2zbeD531nGTmwcm7SuRfyihJXCyv7Ars/PKYJx1t57/2Ipt/zAJIT2jCM36bKLVRhnTlBaQss5JXJo2XkO7YLZhWOpo5QyM+e8I5Vvc8iLUFYXlkrRXu+6Pl77+FUes1VminHeAU4zt1sUJWTXn2XT9EYTG0SC0B0F0EFYPj914P5wge1QXr+z6hsk8/g32r/pXFEJx796Z/tb4f3R7O3VAS+lXpFBEgG7MTWZwU0EnU2fnQFq9EYrjQVrjulXBK1xdlcS9iLeicj9yMWjvndU+w8y49m7yDqR3yrxQUo8NscgRE1Hfyi1Fjw5fCEtPrhCpKL7OAyY78TNPme6nN+zkDsGOHFbes4cixjVbYvpVanudOTLL+bit0c++Fy4fUMqRfy3HNOkBT9+ZZrPprY8Uj5wMuWG4ZRsYztIcyDU02cN3N1v/bB/BrpBabTuUiOCVzU73NAQrlzsmvTiFwVO2dpw0igfHJDrES8Q88gkccQtayxDwtPcsTo5e991ceSReZ1kQTTUmwtrnW2lbOtuXnLbeTnnWyzT1qnq/vEDAF3svgY440kcUjk+MmR0DKcVWBOPW5qztYlBYtvb0hD1Svg8HrOUW2ZZbZYoRGYdH1dTN7FsHo6WQ7HZaLJiUZyzmj7kG+1REDmUYW+pdekIBrF90Zp1kynx6sBZa/41HiqKSVt36HiRNTyrmwg59m40si4NhzXng23ag527t5j/Vs77Hu3T3Ws6eHOokJjCzB1e6FfXtZSizmZrZvHKiL1FEnjMiuo9BkFsXS0bPi5JpzLHCqtca2RmumR2rmihk299gFtvCEhTZ75SxWB86gnlT7I0kxEY5QlBFwh37CL9AocsmE551OhpGoFIVrnlKqSTHF0lKxJcJTisK34SwOvWJQ6jc32N4XX8lrtIi4QRu2TXHyOK6upIU/T6GlyyzkPjolnmCN738FFRNtvGytKOh1Qm9vH0LCLGVO7u3c2e29XL27qIighc4O2cu0FPX8KTnRr4MxlL6ufpuxpM3qmSsls0m0nrVwhrWwPDY3o94a2hqsZQ5LZefOQBgBSKR1lUU6SVoOa5Vdpr6AjIegFK4LlQRHgkAt1vul/7TuD3yXZxIeSGq05DaerCb121gJ6y5cwDV70gJruebtTMBc5GHOrNKc0gDM7t1HEyefCg9XsPLglJwWW+n7Wk7aFbOLdOoli+vEXZAUpuQRHl8mK6HQT4FV7CbfxJpM4lC6KiAVZSy8+pf8OVvz7LKez/3cazkHb6oLSORQCYg2XcHEafroKxCOxXCs2BlUvUudiBBCFPGxCB4LaFF/9ljhIlqJbq5c8ddgduW0zRF+BfoXTjPppEA8vXLBUvpMc9GzE133KnaxbqliECsMmoRExagajxpNpVh/2XOt9s+YoKgerMOBQuJG4VGghq/L0KX9NMudejK4JpJPqzkwPXGo4cXiwaED9B2PobYXT/NAoHYU8a9dSohDPLfWeScyhnhBEEppSzj4Km4cLy1T7e5wKP6x07hUcmKAhBNUujNmWMPbX2g1p7AJnMys5JXzDa9L/DP2nCv3ZYQv3pWTlISq73yf1T7/XKt91iUuCEEqhBw4QgtnV7SBC44zsz6GqUUnsbbTC58qE+J5LxN0C7ST3BAPgVE6iuqCwsXP7nDBITCmQRzPj3s1uyO7DRJLxks0PHhPipsdmBD3sSjqdZ+0wr0cCaB5GeVjItVYuoDowhzxSe4K1rZEuWecZE0fvIytUef6LiwR/en7/ikwLSBltHHhoLp1Q0C2NLXdwE13WNcrP2WFnfTcyJxIakmvlcu+rRqv2wSIhOwY1dYSEsY5cucut+Zr30NXd6NrAi1CmnYHp8A0lcpopJpWjC8FIptbAlNz5knW8P7nM2FRXZNeF5d9UYVemVI5pCLpohbENactscYrXs08M4SD59AyqELYqxCkaQEZVihuIjNW4O1HFwj2gn3qRUFI2hh0lJklLqtaB3DeuaA72nDpTGt834ss+xhmDgBzaE9ULfBVB9i0iTW8SJz5gwToqqarujxlkvR9/6fW9dZrzLQ7jgbcvE0C28mc8Ybw8MQq/BzNPVVzAlbPkmw3rZgdcOwca/7yW9kPYGXQHEk4EYXYtBsFBaY1yHAiiXGCGgm1rbpA2eJHW/3UPQVN8vonM5AmshFRy1bFeur5kXfCHXlrTpWcj5ZLOPhHYHPnrrTmz73JalaudBBLmkNtj0mB1aGccpcje6BwVMUlcwvG06zhbJ3Vv+K57u+56sdBk0hW1Hjnf8Kd8pTmEsPr7nKLcDzlJJY2v9jNKgYnCJf0TLuxUGDaxDoo1cT8MJkzGj3/6t0iqPer37OeD/3Aij08uKmleAdNLN0I0lzBeArCIS33mout6W0vY4InqsW1xbS6GA/RpwXkYNRDe3gbRLVzMshQZBQ5wx5Zvd/6kfWwq6Ix41VhJVfmLYWl4YnyoLTk5xd72zJzmBD4+qdb3Qufzmh5A6AChAREwj2tQcZM/WkBORjpvDurLBJM6eOIuvT12cDPOFqNfbIKG1nMpQVbCeN6xU6U1FxMV2lGf9Lozp2zkpH/57HGn91iaqQ5klzjvRSQGjRHTELTAjKWopa55VqCO1Mo8rfdbV1v+JzlH2Tpah1Coukpeu9xxpLBCN9Ig0kgPFHu0mx9/Vb/YvYbe8uLLLOQaTEeR5dplxYFpgVkLJR0rZJwvzRJJsdxa6s5wfbffBcU33RCXa4yu9ISEmd+Acswn/zzWjmj5ElW96Jn8KxdV5QXeSrfaY0hQqXipgVkLGRU7Y1gDB2RZu7Wju3Wd82PrPeaX1tRi4pU48skSsOJ72mEW0ut1T3zLKu79EmWO+0kh0PJ+3gNKsRnJE8LSBoU9zSmBWQspCy1S8rUg3uZKs7odf4Pt1vXe6/hPPRNLBWmdo8DeGXRR5WthELMTpr0Clju8Y+x+tc902rPPt2KHEGmY99cQ8nk81m4/kEQzFFlMB3pYBSYFpCDUWik92J08WK8yxOZXyYXvUbF9l3W9/UfW++117MJXXvoCtY3MoX0sX+v78r8CozC5yYVOqq1zrLHLbL6Sy9mjcoFnB7c7F3N3t7wdMq+8TYKyU+71CgwLSBpkbK8XSKzSutL2Ocp//A6G/jdndb/i9uYPr/Finv2IjxhfbcvSU0Ey7uSm7X9UQMHgzazV9cCJkqys8sZx1nNqccSNjMITyJfLlfeGEkLgel0RqLAtICMRJWxhElAxLyq+TWyroqdPx1R7Dzd1cOU+Z2W37DRig/tYgujLpb2IjDaF4ydV7IL6IVa2MJu8jOtZtlCy86cw94RbKSANhqUg0RbuMmmvHh2VcRt2lWEAv8fKawOSjil53MAAAAASUVORK5CYII=;" parent="t2k2UjqAHbA6nQ_ANtjL-33" vertex="1">
          <mxGeometry x="2.030000000000001" y="2" width="20.1" height="20" as="geometry" />
        </mxCell>
        <mxCell id="qfl5n_piH4ilOluIckPt-1" value="" style="group" vertex="1" connectable="0" parent="1">
          <mxGeometry x="138.51" y="184.67" width="120" height="80" as="geometry" />
        </mxCell>
        <mxCell id="qfl5n_piH4ilOluIckPt-2" value="&lt;font style=&quot;font-size: 10px;&quot;&gt;wetter2_scraper&lt;/font&gt;" style="rounded=0;whiteSpace=wrap;html=1;" vertex="1" parent="qfl5n_piH4ilOluIckPt-1">
          <mxGeometry width="120" height="80" as="geometry" />
        </mxCell>
        <mxCell id="qfl5n_piH4ilOluIckPt-3" value="" style="shape=image;verticalLabelPosition=bottom;labelBackgroundColor=default;verticalAlign=top;aspect=fixed;imageAspect=0;image=data:image/png,iVBORw0KGgoAAAANSUhEUgAAAMgAAADICAYAAACtWK6eAAAnO0lEQVR4nOyde2wb173nj1yie/4QuqPCuBnsFST21N24aMqk67QxYHl52ExSp3WbtLERX5tFlNuUcXtTOMXm2srednmIJltVm6DOxt04vO7GQug0XicbZ6+zVeoJeLjSRR3UQl3GbVysMyW1vthJ63s1CYSLg65QLUY8tGWFnHNmOEMOqfkAgRFxHoff4W/O6/eIgQ4DUbIfInwjAOAmRSMbAQBx/l8//3c1lwEAFgDgEgDgoqWTiwCA8wCANyw9d7kDXyGih+nrxE0VLbsFIrwNIqwBAG4GAPhlqBUAALV0MsUM+iozSgs+XTdijdI2A1G07CaIcBoivAMAMNiGWzIAwJSlkwIz6CvMKC224Z4RPUagBgJRMgYRvkfRyEO8p+gUJjPoYUsnzzCjZHawHRFdRiAGYhuGopE9EOHvAAA2BHEPjzBuKD+IDCVCBt8NRNGyn1M0chAAsNHva/uIxQz6uKWTJ5hRYp1uTER48c1AIEqqaoY+BQDY4dc128AFSyd7LT1X6nRDIsLJB/y4iJop3q1o5GcAgH/jx/XayHqI8ChEeP3ifKW4OF+NJvIR19BSDwJREioa+SFEeK9P7bHstzp/s1f4nsfKpdoYAGBQ0YjK90hu8HFF7JyZxzuYUXrbp+tF9ACeDYQPqf6uxdUp+8d/ytLJFN/ou+D2AoqWXQ8A2AIR1iDC21pcFLDnJrvMfOq1Fq4R0UN4MhCIkterGap7fHvbw5iTfH/iNb8nyYqWvZHvt4zaQygv7WMGfdDMp57xs10R3YlrA1EzRfttfdLDj295iZUZ9AlLz11ye1+38OHfHojwmJdehRn0ITOfejKY1kV0C64MhBvHFPeTkmWR7z081om9B74ncy9E+FH7K7g5NzKSCGkD4cOqGZc9xxlLJ/dbeu7X3prnHxAlFUUj34MIP+jmvMhI1jZSy7x8Qj7j4g1s9xr//vKJ0a8vzE6+01oT/WFxvsoWZid/CgCg3EnyQzLnxQbi2yDC5xdmJ98KvpURYUNoIPZYXs3Q0y52xk1LJ7dfPnHf8cX56p9ab6K/MKNUZQZ9rn/TaEJ2bhIbiH8eAPA/mVEKhbFHtA+hgazfefSp2ED8S5LXO2fm8daF2cnftt604Ficr/4zM+jx2ED8w7GB+GckTvkgRHgbM+ik3RO1oYkRIcFxDqJmindDhF+UvNaMmcd3dFsMhpop/juI8OOSh79YGevbGXCTIkLEumYfQJQchAgfkbxOVxqHjZlPPWFPxCUP36FminsCblJEiGg6xBo8UPmxpG+VPay6tRuNo87C7OQbEGEYG4iPiI6NDcT/LTPos/YwrT2ti+gkDYdY3GV9SuJ808zjT7nd34AoqSoa+RpEeDuf/Cv2tfiy8Iv2/KATEYDx8aWfAAB2SRx6pDLW9/U2NCmiw7yvB4EoGVu/8+j/kNjvWLR0crvbCbmaKe5TNHIyNhDfxl1VIP+o3zYWiPBX+jeN7gYA/IYZpd+5+jYtwgz6Wv+m0S8BAP5McKjds56MVrV6n/fNQRSN7JFZ0mUG/Y6l595wczM1U/whRPigxE78BkUjenx86VmIkl78qTxhDxMtnezi8eyOKBqRndhHdDHX9CDcLeO/AQA+LDjvzOUTo193s8/BV4v+g8v23dS/afQvIcK/X5id/JXLcz3BjNIfIMIsNhC/XXAoAgBMMaP0D+1oV0RnuKYHgQjfI7F5Zg+t7nczR7DnHNwXygvrIcJH4+NLRUXLtiW+3dLJkzzXliOKRsba0Z6IznFND6Jm6H8FAPwrpxOYQf/L5RP3Tbq5yfqdRw/EBuKf9dpIThwinIEIg8X5ys+D3KXn1/4Nd5l3wjbY55hRsoJqS0RnudKDKFp2k0TwE7N08pjbm/DVKj+Adk+kZuibipa9xadrNoTHqZ8SHBaDCD8QZDsiOssVA4EIp0UH1+I5PLms3+DhHCc2Kho5o2aKT0OUVHy+9hUsnRDRMTK6RXQvKw1ElI1kkRn0CY/3EaUWPcsjDV0BEd6rZuhbaqZ4t8d2OWLpuVkAwIzgsEFFy24J4v4RnWfZQPgDFoXPngwqEtDSySFLJ/bw7oyH01WI8Ivx8aW/gyjZKNl1y20THSPxconoUpYNhCc7cMTSSSHIhlh67ldmHm/lflFe3Fa223MTNVPcB1HSt6z1zKCviNrj4xwrImTUDUQTHLfADBp4pg9mlBbNfOpJM48/bvdYHi7RDxE+qGboz/migx9tYhJt2aBoWd97r4jOsw6iZL/E6tWpdqboZEbpUmWs78vMoDt4HRC33Mwn8f+Jf7+WsHQiY6zRPKQHWceL1zgOSXjeqrZj5lMvmXn8SWbQQx4m8TGI8MN82PWFVtrBDPq66BiIcCez10cEhD3EukniOFc+V37CjJJl5lPfsnQyIrO73YA4RPhUfHzpBERJV1lNVrYBAHDO6RiIsIyOEV3GOl72zAnLS8ZDv7H03Bs113o6JuNM2IAdvDfxOhQ6K/g8zNnsIzyyrkkdwJV03Djq8En8D/gkXvdwifUQ4SlFy37C7YmWTkS9l+rHfCciXHSVgdRhRqlSGeu7jRk0zRNcu6Ff0chRD0vBF0UHQIQ9DeEiwss6UWwGz7IeSsx86piZxx8DABx1eerNEOE7XZ5TlTimHbUXI9qITA8S6tLK9gS6MtZ3n6UT7Ka3UzQiE1q7EpnNy3/h8poRIadpVpMVdEUyBkvPlfgk/lHJJWFhgoaVMIPK7MdEQ6weQ8ZAugZmlJiZT33X0skNEkvCLhNZR2Wk1yI9ZSCgFr3YzwOdRMuu0Q8+QojMSo5vjn9Bo2aKX4AIH5KYVwG3q3OKlpXpcbpiOBohT4xPwp0yh4R+ZQai5CCvsHuX7DnMoG73UWT2OP7R5TUjQs46XjizKbxgZiiBKBlTM8V9aoa+5cY4ePCXbFrVOjIviig2vceIcW9Zp2whoXTjVrTsLYq2HMzk2kmwVvHKdVGfj0ocE3hpuYj2EuM7xNjhGL/jyVtiRaWovR7nRzOWTv7a/X2xaNK/YOm5UO8ZRbhnnaUTkQvFIC+13HHUTPEeezjFy6h5MY4jPAu9a2dHCW9doStKRPcRk3Qh3wIAeKUN7WkIRMm4mqFPAwCEocFNuGjpZK+l54RxHU3ub+u0WXCYF1f8iJCzTibWQyIkNxD4JPxv+CTci3EwZtBHzTz+pFfjqLUD3yLhsyZyh4/oQtbxcbOjQ6JMUge/UbTsFjVD3+QpS6GHS1BLJzeZ+dR3Ww0Xlvz+pVbuERFO6jvpoj2BDYqWvbEN7bF7jfXx8aVnFY3MeAxCuswMmq6M9aUsPedLrUSIsMix0bL0nGPEYUR3smwglk6Em2btyCCoZor38uGUKCduM+xJ+MfMfOqYX23iKU5FSbM7ErMfETzLBsIM+qoojBUiPApR0stQRwhEeGN8fGkaInxUonBPI85bOhmpjPV93e9E0opG9oqOsXQiyuEb0aVwA1muLyh6C67nxXV8ByI85tb9nGNPwsfMPP6Upef+3v92LSd5EA2vGE8uF9GDXPHmlcmcaP+QPWYtDGKHecrM44+b+dQPgnJFVzRyQGKB4GQ3FzCNcOaKgfC3oChz+wZFI/d6uA/1cE4zLjGD7qiM9d3BjFJg4cC86I/M8MqtT1dEF3GlgM7ifPVPEOH+2EDcye0ExAbin2EG/fHifNXN0uk/+zDJX2QG/c+XT4zeY+m5X7Z4LSGDBypPSfh5nTfzKdduKxHdwzUBU5ZOnpHIOaUqGvmem5tYeu41j2l66py1dLLZzKe+3Y5qToqWTcqspDGDRoU8e5xrSrAtzlcXIMLrYwNxR7cKuxexh03MKMlk+liGGfR0/6bRtGRcRR3LnoRfPjH6wMLsZFuKZUKU7F+/8+jPeO12Jy7a7QqyFFxE5+lb/Qd77M33IkQ/kEu1JAklaQ9W7lP1smS60xfNPLZ7jLa6kMfHl56V7D1GzXzKVa3GiO7jA6v/wHuRmETRzQ/1bxpNMIMel32LLs5X7R7hx7GB+D/FBuI32NdocNiMpZOMmU99f3G++p70N/EBNVP8WmwgLlOq+uylH3zkr9rQpIgO874eBNTe9FDN0F/KuHowgx4y86lvebm5omXtnuR6vpRq90Szlp7zUgOxZdRMMQkR1mXc6O35kKXnOpbQO6J9NDQQwCeqikaklmeZQR828ymv9Qs7jqJlN/HvKpwftfJCiOg+3jfEqmNPwPmE/TOii8QG4rdDhK2F2cmue6ty4zgFAPiwxOH2xHzn4nz1j21oWkQIaGogYHnOUCn2bxrdLpNkLTYQ3wYRhguzk57jLtqNPazq3zT6M0njWLR0sm1hdlJ65S6i+2k6xKoDUfKjaoaelVjVqvOCmcdfD7v7hT0hhwgflg3dZQZ90MynfhR8yyLChGMPAmorT/MQ4XOxgfguyUyMN/RvGv0SAOB/MaP0B3+a6R8QJfsHD1Se4atVUpklmUGPmPnUd4NvXUTYEBqIzcLs5NsQ4d/HBuKy5Y7/DCL8lxBhtjhf+UVYNtMULZvkm4CO7jSrmLp8YnRPWL5DRHuRMhBQM5JZeyJuzzUkT4nZk/f+TaNfAQD8xs2uu99AlFQHD1SegggfdDFUtJkx8/jOdlb4jQgXwjnIamqF+pd/aG45aenkUUvPzXo41xO2YSgaOcC9ct0Ge83wFEGhnktFBItrAwGtGQngO+WHmEFfCerNzLMu7uXBTl6iIKfMPN4ZGUeEJwMBNSO5m4fIei1cucB7lZPMoK+34qULUTIGEb4FIryNJ1gQxZA3xZ6QWzr5RlQPJAK0YiCg9qa+UdHISZ/y957jbu3neZZCe86ywAx6qf5j5SUI+nki6Y9ChDfyjIebWzDUOovMoA9FS7kRK2nJQADPlatm6N8CAHb406SOcNHSya4g5kfcqLdAhDfz/L4beGKK1ckpLvGIzovMoOeZQc8wg76xloZ5YdSqZQOpo2aKe/i8JBR5fGVhBj1k6eQRP8VVtKzds9l63NVi8m/G52wvMIO+1I5gsXYTdq18MxDAk76pGfp9AMD9fl43IOzh3IN+euUqWvZORSMPe8zQIsL+ARQsnRz0ULohdHSLVr4aSB0+N3kcANCRnL4CLtby9foX7KRo2c8pGhmXDATzA/vh5yw913UZ5btNq0AMpA5fbh0DAGwPQa1De6z6uKWTY36tUPHSb0/z79dulhNzWzoJLO2Rn3SrVoEaSB1Fy8Yhwg/wzCbtrHnI+FLykVayuzdCzRTv4c6Obnbmg+Ccmcc7mFF6u8PtaEo3a9UWA1mJomW3QIR3QIS3t7Jf4YA9OZuydHKKb0b6urIBUTKmaOSHvIhPWFhgBt1l5lOvdrohK+kFrdpuICuxexYAwBY+WfMyJl3geybneX2OUpBZ1iFK9qsZeqKFQj5BssgjO5/sdENAD2nVUQOpI5NJhBmUMIOe56WW7V7iUjtrAvIH/tMWV11s471g6eTCqpos/RDhQb72v1kmQK0ZfLOzo0bSS1p1jYHwEmrPtK9VV6lVuqKnXbrJ29gTQt3SSYEZ9DXZFEl8b+BuPmdzXSOlk0bSa1p1jYHYk+3KWN+X29Ska4iPLz0HAHCTOnWRLy8+1upSrKJlb1U08h2XPzh7CHFXJ+YkvaaVVERdSNgGUbLtqyBqprjP5QOnlk5uqIz13efHPoWl516vjPWl7Imliyz5MYjwCxAlZWq7+0YvatVNBgI9Zpb3jKJlb4QIy+bfXXZ29LP020rMfOq4mcefAgDIFuux5wEveixX4Zpe1aqbDKRenySQKlfvv9fyEuVRyQ3OBWZQLehxvz0ur4z1fZEZ9FHJU25SNPI3QbYJ9LhWXWUgPLN8W1J+Khp5QHLp2bJ0MmLmU22rclur3EsfkjnWfqkoWjaI/aYr9LJW3WYg9pf4DkTJQHfj7bkOLz8tgjGDbrf03K+CbE8j7Dew5NsRui1X4YZe16rrDMR+YakZ+myQY2tFI/tk3CKYQfea+ZTvtRFl4amIZMbZuxQt+4kg2tDrWnWjgdhoikayQVzYnuPIlF4DABTCUP7AzOP7ZFZsFI1IDTPcsBa06lYDWR5q8WVFv697p8TurGXm8bf9vrcX7MkoM+jDEoem/V4mXwtada2BgNoDOui3kSgaEQZ71dxe5AsHuaW2G13cFx9f+ml8fOmt+PjSCUXLbml2vJlPHZcolGq/7e/2s51rQauuNhBw1Uj+1o85CUTJ9RK7sCav5RgI3I/pNA9f3sbdJ3YoGqFqpvhAs/MsnQgnoYpGRDXf3bRzTWjV9QYCakZyv5qhv1C07I0tXudW0Vo+M+iRoPJ5rXDya/TDi9k/BEXLNlzB4/EuFwS3GLHv4U9b14ZWPWEgnJsUjZxVM8WnIUp68vBUNCL04WEGDWSyKekBCwEATYdJzKAF0W0gwrd4b+VV1opWvWQggL859qoZ+rv4+NJzvJyzGxyr+9biTvyPA3fpHt50os0M+pL4Xlj0HWVZE1p1Ok48KOy3R1rRiP3fZe5GfYZ3q29zD9JGOKadYQZtpdZ744a6j51oOjSw9NwFRSOm08oST7TnB2tCq24xEMoMeg4i7GUtf31t86f1CSozlgsJOaJo2Rv4Pc+LAro8PPBLzKCvCI6xXwR3OXy+Iz6+tCR5P8/0iFbxbjEQYOZT31YzRQsiTDrYjKaepzyDy5GVb1ZFI02rbXl44AuWTnaIJr3MoBcgchurFAi9oJXaVXMQM5/KMYNu5yG3naDhW07RshsUjegNhh277Ae7euXIywNnBt0mk+SOGVQ2DiJoekGrwa4yEFAzklfNPP6kC19/37D0XKXR37mbdLPl05GVD97rA3fhxxSKXL69olXXGQiouQxc4r7+biLHgkS0orP84BUtqwb8wLuBrtKqKw2kDo8c+xj39w/cUBQt2ywxt0y2vhFFI7/r9ANvF72iVVcbCKj1JszMp5408/gj9sQMAHBS8iF4odlDn5E8XzYaspUH7ketFj/oBa2srjeQOswoLVp67qXKWN+XzTwesPTlZd3DPL+SXwbTMLDfzOPHeL0KP2jpbahoxHXqm4DoBa3MrlnmdQMzSgvMKB239NxxcLVE2wa+KfTnzXyIeFx1U2qbbLn3pYex50RmHmM1Q2kricx8GiqIHvpZSyeHWrj+MmtEq4vdkheLVsb6Um1ox+8E3a5eGeu7rdmHECWvb+HBt/zAeX2WPzgdwwz6uJlP/bXXe9RZK1r1zBDLJ0R5fR29YZlR+q39dvQwhPBlkgkR/pzoGGbQM63cYwVrQqvIQFZg6aTloCMPD963FRhFIzJJ23xZ6VkrWkUGci2viQ5QNCJM5e/iwfv4wJfT1Ygqep239JxfE+Q1oVVkICuw9NwFXk7BiZtl3OglHrxp5vHNfq3d8x1qUQDTST/uBdaQVpGBrIIZ1HF1BtQElkqxueLBr/ZsvWD/3f7cc0OvaU/2epmcuMygx/y434rr9bxW0SrWKhQtO8h3cUVvmAfNfOpHLq57M98beNvSc0JXcDfEx5eKEvHhM5Wxvq1+3nctaBUZSOP2yKTwX7B0srnTJZnVTHEfT1rgiKWTuyw9J4qPcE2vaxUNsRpg6cvDAtHue7+ikRf9SoLgBTVTTEpmVD8XhHGANaBVZCAN4PljRUH9NhsbxTC0A0XLfgIifEomo7qlL5fiDoRe1yoykCaYefyIZGDWSLsfvJopblE0MuMQV7GSU5aeEy7JtkIvaxUZSBOYUTJl0+bzB/+LoBJEr0TNFO+FCOuSNcctM4+/EXSbelmryEAc4AmXZfcONioaOaNmioHUL4Eoud6eEEOEj8q6gjOD7mVGqS0BZb2qVWQgAsw8/qpEFr46/RDhQ/HxpV94yMnVEIiSUM0U96kZ+r/d1P9jBj3E89C2jV7UKlrmlaAFz9Nl13Jm0JcaZetwQtGyGyDC9hDhfg/3nTLz+IvMKAUVONaUXtMqMhBJeKoaXXKytxoGAJhhBl3O78WT112u54LiOWTtB3s9RPhmiLAmSszmwIyZx3e4/ZH5SS9pFRmIC/iDP9lioE+QdNw46vSKVtEcxAWWnnuD+wvJjrPbScHM41QYjAP0kFaRgbiEO9V92sWKTdDUa45/tRNzDid6QavIQDxgv3kqY31fZgYd7WCWR1BziyA3B11zvBW6XavIQFrAzKcmzTz+OADgaICphhph1Txk8ac7UVbZC92qVWQgLcKMklkZ67vPfjtxn6QgH/5lZlBi5vFHzHzqR2EbUonoRq2iVSyfUbTsIF+Tt7/PBh8uaT9YaunkKN8jCKSkWSfoBq0iAwkQRctuBAB8jpcru0ky66H9kM8DAM5YOqHMoK8HWSU2LIRVq8hA2ghEyX6IcJyn5bxuhZ+QPXl9FwBQaZYVfa0RFq16MrNiWOEZH893uh3dQFi0iibpEREORAYSEeFAZCAREQ5EBhIR4UBkIBERDkQGEhHhQLTM20bCsrbfDQwlkv1DCWetZgrRPkhX42V3WNHImtxJH0nXtNqaltdqa/qqVtMFQufK9PW5crSTHmoC9C86wgz6Si/5Yo2ks4NDCXzvcMJfraYL5Mhcmb4yV+4dX6ynAABOtSQuVsb6PtbGJrlG0bI3Khp5GACwK8Ce2WQGPWzp5ElmlDoZW9ESI+nsjVvTwWtVLdPDMwXy5FzZu1Yf8LdNnknw4PtmfIgZ9PuL89U/tbFNUkCUVAcPVJ6CCB/iQ4MgFz76YwNx3L9pdC9EeGFxvvLLMGrSjKFEUv3mZOWp4UR7tFKui+PEbaN7hxJ44d13Kr989x33WoXCQCDC9rBkh8Mh6xbnKyeYUfp9G5slRM0U71U0cgoAsLnNK4IwNhD/fP+m0S/Z429mlN5p4709sXuieO/WdGe0Uq6Lfz5xW02rubI7rcKyzCtTHGVLG9ohBUTJ/vj40ss8c59MWsuguEnRyFk1U9zXwTY4MpRI9j8ytfTycKLzWm1Nk7O7J9xpFQoDYQY9z/MhNYWvBHUcnhjtFwCAuzrdFk4MInywlmozGapVyaFE8vo9E+HSajiBDz4ytfTcUEJOq5AYyHI4pKg88XaIklJ5VoNC0bK38KyBogL0nSCtZujpTtbgWMlIOnvLnonwarVngp62ezfRgaFYxQK18XwWIkycjrF0ssPScy+1r1VXCThbYH1DrCcyK9rGsTXdmlbVMqVz5atazRRqWo2kr2o1lMA3Dyda0+rYfnzHXDnkmRXB1R+gqBfpyH5Ir+WbDRI+rPKk1XSBHJor05ecfrCNGElnN/D9FE9aHduPvzhXDnFu3jrx8aX/AwAYdDrG0slN7Ux1Yw9Z+JzDzVDBNoyHLT1X8uH+UNHIA7x3lZ7k8ozl32r1/m6whyx8zuFKq+kCeXim0LpWQ4kkHEmTB4YT7rSqlumh5/c31ipUBqJmit+DCH9HcJheGeu7rU1Nso32ZReTzAVm0DE3FV1lgSi5Xs3QH7pM67+rnSUQHplyp1W1TMee3++/VkOJ5Po9E+60qpbpruf3v1+rUEzS6zCD/lgiV5KmZopfaEd71EzxXhcP/IKlk81BGAeoLWRcrqXMXM5QKOVCARE+DFHSsUf2i90T7rSaLpDNQRiHzVy5dPn72/q+Wi3LazWcwIeHEu/XKlQ9CJB/Y18y8/iTQbpbQJRU1Qx9S7KrbuvEWM0Ut/CilDJtO1UZ6/tikO0ZSiTVPRPyWokmxn6ye6K4ZTghr9X3t12rVSh20ldxASK8V3DMh/o3jcaDXNEaPFB5iu/6imj7qtHC7KQ9V5uCCNtDiA8KDv/XfLf97aDa881Jea3aaRw2b56uaTWckNdqrnxVq1ANscDVssIy2cB3BbWDrGjZGyXHrxc6taRq68QMul0mfaeikfGg2jGSlteq3cZRZ6aQ+1W1LKfV1vS1WoWxB7GZhQhnRJ6esYG4BhH+zcLs5Ft+3lzN0Me5M50TC5ZObl+YnfwHP+/thoXZySpE+L3YQHyb4FAVAHCOGSUZlx5X7JmQ02q6QG5/83TntHrz9GR1KIHfU66T02quXNMqdD0IqL0dLzKDyrz1YhDhF9RM8W6/7s1LfO0SHccMOmbpuV/7dV+v8HT+VHQcd8X3lZG0nFbVMh2bKXReq+f3y2nFXfGXCaWBgNp+x2O2JUscWjeSr/lxX4jwvRIxCmeDWq3ygqWTvRLDhxEe4egbQwk5rYJarfLCdEFOKx7hGF4DYUZp0dKJPbaVGbPaRnJEzRSfatVfi0cCOmLp/r+NW8HSc7/l5QQcgQjv8fO+PBLQkelCuLSaKchpNZSoaRVaAwG1B/9rZlDRitYVIMIPqhn6c0XLbvJyP/6GFYV+nvVjh9xveI/r+GaECPvmVcvfsEKt/Ngh95vpglir4URNq1AbCKiNsY8xgz7q4pSbFI2cUTPFpyFKuvXL+ZzoAEsnh1xesy3Y8zYAgC447AZFy/pVdVao1XQhnFrNFOS0Gkln1dAbCKgZyXeZQY+4OMUecu1VM/R3aqb4Q9mxt0TMCWMG7Yg3sQyWToRDB78Cz3j2ESfYXDm8Wk0X5LTqCgMBtYf/DQDACy5PgxDhhxSNvBUfX5pWM8V9AmMRLVfOhKXMciOYQV8THQMRltnQk0GoVSf2PGSZK4u1GkrgzaGKQHPCnrRXxvr+Qs0UTftH7+ESIxBh+z+7p7hc212mF5lBTbuT4sc45mJiBhUuEQLuVTqUwEm+pm7OlWnJbQqaoURS5deAAIDZmUJOWCuD58865/TjhQi7WskaSWfXc11Wxnb8uUirallOq07B82c5ajWcwBu7xkDqmPnUt9VM8QLPIuK1/etrEYrY/sFIn8SDnRzhwUIvrnLbvzRdIDtmCrk3ZO6ze6J4gLtsX1mR25omp47tx38h8Va+IHi7S+Wf4v5VzwIARBtrDeHBTmFHqFXXDLFWYuZTz1j68hi43Wk6Hf2Z7B/V1jSZahDTMmj/3f5cdIPdE8U9wwk8vtI4ONv3TNCfiM63dHJBcIiwDTyuo+jVODiB+X75xXRBrFVXGgiordr8vZnHn+J1t9uFY1rLkTT5KwevUYV/7gjvOZqxfSSdFYWXil4aQq9W3s5WNxW7IV2qUKuuNRBQG3NbvO72iOSue0vUY8ibMZxwngCLPueZNkRDIE97PG4YTuCRVq9RjyHvdrraQOrw3uTTPJjoYgebIpofOH7O46JFbhA9k5u3G+gJAwF8lcvMpyYrY30fs3RyFwBgSsa92Q08+0hTqmU61crnHKfVHzZXpqKd6ZbT/lTLdKbVa/DsI2FHqFXPGMhKLD33SmWs7w5LJx9hBn2I75r68eZd7/ThTIH82P6n2cf8c0e471LDnqZapmSuXDKdzocIi0JsL4naMFMgP+IrPK3gqFUYGEqItepJA6lj6blLZj71ZGWs7zYzjwcsnWDuaHiU/5ArLg3neqcP7SHSsf34jmqZHlzxI1+w/58HCwl7tJlC7lfTheU5lb6iB7xYLdP08/tTPxCdL7HP4Whg/HssHNuPU7wX9oqjVmFgOCHWKnQx6Z0kPr70/5z2VphBD5r51Lfb2yp3xMeX/q9gKffFyljfTtnr8Y1CZeVwda5MrT0T9A9OWtkvhef3h1urR6bEWnXdRmHAnBfsQjuVaOg43I3GcZ9DZrNzJXw1qtGKlKNWPONhaOHeyI5aVcv0XE8PsTwgyux4g6Jl/aiEFAgQYWFkJTOo6DvKItRqJB1erYYSYq3myvRMZCArsHQi9B/iEYehhGc5cYIxg0q5u4iYLoi14hGHoYRnOXGCzZXpG5GBrIAZ9HWJoKP7O51lvhGKlr1VYvfbN2/kubJYq+EEvn8oET6tRtJyWs2VSwuRgayAe8OK3oyqopEH2tQkaRSNiFK22j2k23CBpnBvWKFWI+nwabU1LdZqulDTKjKQVVg6Efp2QYQJRMnQrPOrmeI9AIC2B3tNF8RaDScwGUqER6vdE3Ja1YO9IgNZBf8RifYKFJ5IuuPYhgoRflzi0ILfqVr5j0ioFU8k3XFsQx1OyGlVr4wbGcgqmFGy37SHJQ5N8+TWHUXNLMdsCBNUWzo56Pe958olVi3LacWTW3cUHt8i1Gq6cFWryEAaYOnkSfsf0XEQ4cNqptix4qJqpvg9AMB2iUNfCCrJ3UxBTqvhBD68e6JzWu2ekNdqZZK7sKYe7SiL81UGEV6IDcQ/Lzg0FhuIfwUAMNXuUsxqprgPIvwfJQ5llk52MqP0T0G04913qmwogReU68RaKdfVtHJbirlVdk8U9w0n5LSaLpCdc+WrWkU9SBMsnTwjGWOiKBqZUTPFZBuatQwvNCQ1ZGIGHecpgQJjpiCv1dY0mdk90T6t7J5jOCGnVbVMx3lKoCtEPUgTFuerfwIAnOE1AkUvkg/GBuJpiPB7C7OTvmzENcKekA8eqByPDcTvlzzl3OUTo1/l3yUw3n2nphWvESjUSrkunh5K4PfePB2cVvaE/JuTlePKdfJavfrE6Ff5d7lCZCAO2MMmyezpNuvs43hurTPMKP2jn21RM8V7FI38dwDAzZKnLJh5/Fm/29EMe9gkmT3dZp19HM+tdWau7G8bd08U79madqfVsf34s43aEXnzShAfX3rOTb07vsNcsHTyWKvDG0XL3so3AeXTrwCwyAx6l5lPvdrKvb3wyJQ3raYL5LHVwxu3jKSzt/JNQFdaVcv0ruf3N9YqMhAJIErG1Aw97VJ4wB++bumkwAz6Gt+pF6Jo2Y0Q4bu5b5Xr5AnMoA/xsghtZyiRjO2Z8K7VdIEU5sr0Nb5TL2Qknd04lMB3c98q11pVy/QhXhahIZGBSMLLQf/UfiYtXOYcL/Z5YVVGjX6I8CAPdtrsodb3FTppHHV42iBftOKpea7RaiiBB3mwU0taiYwDRAbiDm4kJ1rMFxUU9rDq4U4bRx1uJKHVqlqmD4uMA0STdHcszlf/yAx6PDYQ/3BsIP6ZTrdnBQvMoDvMfOq5TjekzrvvVP84V6bH/+V18Q8r14VLq2qZ7nh+v5xWUQ/iETVTvAcifFiyvHCQnDPzeEeQVWxbZfdE8Z7hRDi0OrYf71hZxVZEZCAtAFFyUM3QpyVdGPyG1TYByWPMECeD6DRDieTgnonOaVXbBCSPySTOWEk0xGqBxfnqe5ae+wnfULyhlQmjS16wdLLz8on7Xg56E9Av3n2n+t5MoabVcKK9Wk0XyM5Xn7jv5dWbgDJEPYiPKFr2Tl5NtuXUnQ1gfG/lYBiq67bKSDp7J68mG5hW0wVysNXqupGBBADfx9jDawKKkk07YT/oGUsnLzCDvuR3PEcY4PsYe3hNwJa1mi6QF+bK9KV6PEerRAYSMLwm4BaI8Ga+z7GBDy9WT1gv8eCjCjPoOWbQM8ygb4S5opXfjKRrWg0l8Ga+zyHUqlqm5+bK9Mxcmb4RREWr/x8AAP//mC6b1mgHT/IAAAAASUVORK5CYII=;" vertex="1" parent="qfl5n_piH4ilOluIckPt-1">
          <mxGeometry width="30" height="30" as="geometry" />
        </mxCell>
        <mxCell id="qfl5n_piH4ilOluIckPt-20" style="edgeStyle=none;rounded=0;orthogonalLoop=1;jettySize=auto;html=1;strokeColor=default;align=center;verticalAlign=middle;fontFamily=Helvetica;fontSize=11;fontColor=default;labelBackgroundColor=default;endArrow=classic;" edge="1" parent="1" source="qfl5n_piH4ilOluIckPt-4" target="qfl5n_piH4ilOluIckPt-2">
          <mxGeometry relative="1" as="geometry" />
        </mxCell>
        <mxCell id="qfl5n_piH4ilOluIckPt-4" value="" style="outlineConnect=0;dashed=0;verticalLabelPosition=bottom;verticalAlign=top;align=center;html=1;shape=mxgraph.aws3.internet_2;fillColor=#D2D3D3;gradientColor=none;fontFamily=Helvetica;fontSize=11;fontColor=default;" vertex="1" parent="1">
          <mxGeometry x="40" y="204.67000000000002" width="60" height="40" as="geometry" />
        </mxCell>
        <mxCell id="qfl5n_piH4ilOluIckPt-6" value="" style="group" vertex="1" connectable="0" parent="1">
          <mxGeometry x="310" y="295.3299999999999" width="60" height="69.33333333333331" as="geometry" />
        </mxCell>
        <mxCell id="qfl5n_piH4ilOluIckPt-7" value="Wetter-Durchschnitt" style="html=1;verticalLabelPosition=bottom;align=center;labelBackgroundColor=#ffffff;verticalAlign=top;strokeWidth=2;strokeColor=#0080F0;shadow=0;dashed=0;shape=mxgraph.ios7.icons.data;" vertex="1" parent="qfl5n_piH4ilOluIckPt-6">
          <mxGeometry width="60" height="69.33333333333334" as="geometry" />
        </mxCell>
        <mxCell id="qfl5n_piH4ilOluIckPt-8" value="" style="dashed=0;outlineConnect=0;html=1;align=center;labelPosition=center;verticalLabelPosition=bottom;verticalAlign=top;shape=mxgraph.weblogos.mongodb;fontFamily=Helvetica;fontSize=11;fontColor=default;" vertex="1" parent="qfl5n_piH4ilOluIckPt-6">
          <mxGeometry x="18" y="23.111111111111114" width="23.999999999999986" height="34.66666666666667" as="geometry" />
        </mxCell>
        <mxCell id="qfl5n_piH4ilOluIckPt-26" style="edgeStyle=none;rounded=0;orthogonalLoop=1;jettySize=auto;html=1;strokeColor=default;align=center;verticalAlign=middle;fontFamily=Helvetica;fontSize=11;fontColor=default;labelBackgroundColor=default;endArrow=classic;" edge="1" parent="1" source="qfl5n_piH4ilOluIckPt-10" target="qfl5n_piH4ilOluIckPt-23">
          <mxGeometry relative="1" as="geometry" />
        </mxCell>
        <mxCell id="qfl5n_piH4ilOluIckPt-32" style="edgeStyle=none;rounded=0;orthogonalLoop=1;jettySize=auto;html=1;strokeColor=default;align=center;verticalAlign=middle;fontFamily=Helvetica;fontSize=11;fontColor=default;labelBackgroundColor=default;endArrow=classic;" edge="1" parent="1" source="qfl5n_piH4ilOluIckPt-10" target="t2k2UjqAHbA6nQ_ANtjL-25">
          <mxGeometry relative="1" as="geometry" />
        </mxCell>
        <mxCell id="qfl5n_piH4ilOluIckPt-10" value="&lt;font style=&quot;font-size: 10px;&quot;&gt;db_wetter2&lt;/font&gt;" style="rounded=0;whiteSpace=wrap;html=1;fontFamily=Helvetica;fontSize=11;fontColor=default;" vertex="1" parent="1">
          <mxGeometry x="420" y="290" width="120" height="80" as="geometry" />
        </mxCell>
        <mxCell id="qfl5n_piH4ilOluIckPt-11" value="Tr" style="group" vertex="1" connectable="0" parent="1">
          <mxGeometry x="138.51" y="290" width="120" height="80" as="geometry" />
        </mxCell>
        <mxCell id="qfl5n_piH4ilOluIckPt-12" value="&lt;font style=&quot;font-size: 10px;&quot;&gt;Wetter-Transform&lt;/font&gt;" style="rounded=0;whiteSpace=wrap;html=1;" vertex="1" parent="qfl5n_piH4ilOluIckPt-11">
          <mxGeometry width="120" height="80" as="geometry" />
        </mxCell>
        <mxCell id="qfl5n_piH4ilOluIckPt-13" value="" style="shape=image;verticalLabelPosition=bottom;labelBackgroundColor=default;verticalAlign=top;aspect=fixed;imageAspect=0;image=data:image/png,iVBORw0KGgoAAAANSUhEUgAAAMgAAADICAYAAACtWK6eAAAnO0lEQVR4nOyde2wb173nj1yie/4QuqPCuBnsFST21N24aMqk67QxYHl52ExSp3WbtLERX5tFlNuUcXtTOMXm2srednmIJltVm6DOxt04vO7GQug0XicbZ6+zVeoJeLjSRR3UQl3GbVysMyW1vthJ63s1CYSLg65QLUY8tGWFnHNmOEMOqfkAgRFxHoff4W/O6/eIgQ4DUbIfInwjAOAmRSMbAQBx/l8//3c1lwEAFgDgEgDgoqWTiwCA8wCANyw9d7kDXyGih+nrxE0VLbsFIrwNIqwBAG4GAPhlqBUAALV0MsUM+iozSgs+XTdijdI2A1G07CaIcBoivAMAMNiGWzIAwJSlkwIz6CvMKC224Z4RPUagBgJRMgYRvkfRyEO8p+gUJjPoYUsnzzCjZHawHRFdRiAGYhuGopE9EOHvAAA2BHEPjzBuKD+IDCVCBt8NRNGyn1M0chAAsNHva/uIxQz6uKWTJ5hRYp1uTER48c1AIEqqaoY+BQDY4dc128AFSyd7LT1X6nRDIsLJB/y4iJop3q1o5GcAgH/jx/XayHqI8ChEeP3ifKW4OF+NJvIR19BSDwJREioa+SFEeK9P7bHstzp/s1f4nsfKpdoYAGBQ0YjK90hu8HFF7JyZxzuYUXrbp+tF9ACeDYQPqf6uxdUp+8d/ytLJFN/ou+D2AoqWXQ8A2AIR1iDC21pcFLDnJrvMfOq1Fq4R0UN4MhCIkterGap7fHvbw5iTfH/iNb8nyYqWvZHvt4zaQygv7WMGfdDMp57xs10R3YlrA1EzRfttfdLDj295iZUZ9AlLz11ye1+38OHfHojwmJdehRn0ITOfejKY1kV0C64MhBvHFPeTkmWR7z081om9B74ncy9E+FH7K7g5NzKSCGkD4cOqGZc9xxlLJ/dbeu7X3prnHxAlFUUj34MIP+jmvMhI1jZSy7x8Qj7j4g1s9xr//vKJ0a8vzE6+01oT/WFxvsoWZid/CgCg3EnyQzLnxQbi2yDC5xdmJ98KvpURYUNoIPZYXs3Q0y52xk1LJ7dfPnHf8cX56p9ab6K/MKNUZQZ9rn/TaEJ2bhIbiH8eAPA/mVEKhbFHtA+hgazfefSp2ED8S5LXO2fm8daF2cnftt604Ficr/4zM+jx2ED8w7GB+GckTvkgRHgbM+ik3RO1oYkRIcFxDqJmindDhF+UvNaMmcd3dFsMhpop/juI8OOSh79YGevbGXCTIkLEumYfQJQchAgfkbxOVxqHjZlPPWFPxCUP36FminsCblJEiGg6xBo8UPmxpG+VPay6tRuNo87C7OQbEGEYG4iPiI6NDcT/LTPos/YwrT2ti+gkDYdY3GV9SuJ808zjT7nd34AoqSoa+RpEeDuf/Cv2tfiy8Iv2/KATEYDx8aWfAAB2SRx6pDLW9/U2NCmiw7yvB4EoGVu/8+j/kNjvWLR0crvbCbmaKe5TNHIyNhDfxl1VIP+o3zYWiPBX+jeN7gYA/IYZpd+5+jYtwgz6Wv+m0S8BAP5McKjds56MVrV6n/fNQRSN7JFZ0mUG/Y6l595wczM1U/whRPigxE78BkUjenx86VmIkl78qTxhDxMtnezi8eyOKBqRndhHdDHX9CDcLeO/AQA+LDjvzOUTo193s8/BV4v+g8v23dS/afQvIcK/X5id/JXLcz3BjNIfIMIsNhC/XXAoAgBMMaP0D+1oV0RnuKYHgQjfI7F5Zg+t7nczR7DnHNwXygvrIcJH4+NLRUXLtiW+3dLJkzzXliOKRsba0Z6IznFND6Jm6H8FAPwrpxOYQf/L5RP3Tbq5yfqdRw/EBuKf9dpIThwinIEIg8X5ys+D3KXn1/4Nd5l3wjbY55hRsoJqS0RnudKDKFp2k0TwE7N08pjbm/DVKj+Adk+kZuibipa9xadrNoTHqZ8SHBaDCD8QZDsiOssVA4EIp0UH1+I5PLms3+DhHCc2Kho5o2aKT0OUVHy+9hUsnRDRMTK6RXQvKw1ElI1kkRn0CY/3EaUWPcsjDV0BEd6rZuhbaqZ4t8d2OWLpuVkAwIzgsEFFy24J4v4RnWfZQPgDFoXPngwqEtDSySFLJ/bw7oyH01WI8Ivx8aW/gyjZKNl1y20THSPxconoUpYNhCc7cMTSSSHIhlh67ldmHm/lflFe3Fa223MTNVPcB1HSt6z1zKCviNrj4xwrImTUDUQTHLfADBp4pg9mlBbNfOpJM48/bvdYHi7RDxE+qGboz/migx9tYhJt2aBoWd97r4jOsw6iZL/E6tWpdqboZEbpUmWs78vMoDt4HRC33Mwn8f+Jf7+WsHQiY6zRPKQHWceL1zgOSXjeqrZj5lMvmXn8SWbQQx4m8TGI8MN82PWFVtrBDPq66BiIcCez10cEhD3EukniOFc+V37CjJJl5lPfsnQyIrO73YA4RPhUfHzpBERJV1lNVrYBAHDO6RiIsIyOEV3GOl72zAnLS8ZDv7H03Bs113o6JuNM2IAdvDfxOhQ6K/g8zNnsIzyyrkkdwJV03Djq8En8D/gkXvdwifUQ4SlFy37C7YmWTkS9l+rHfCciXHSVgdRhRqlSGeu7jRk0zRNcu6Ff0chRD0vBF0UHQIQ9DeEiwss6UWwGz7IeSsx86piZxx8DABx1eerNEOE7XZ5TlTimHbUXI9qITA8S6tLK9gS6MtZ3n6UT7Ka3UzQiE1q7EpnNy3/h8poRIadpVpMVdEUyBkvPlfgk/lHJJWFhgoaVMIPK7MdEQ6weQ8ZAugZmlJiZT33X0skNEkvCLhNZR2Wk1yI9ZSCgFr3YzwOdRMuu0Q8+QojMSo5vjn9Bo2aKX4AIH5KYVwG3q3OKlpXpcbpiOBohT4xPwp0yh4R+ZQai5CCvsHuX7DnMoG73UWT2OP7R5TUjQs46XjizKbxgZiiBKBlTM8V9aoa+5cY4ePCXbFrVOjIviig2vceIcW9Zp2whoXTjVrTsLYq2HMzk2kmwVvHKdVGfj0ocE3hpuYj2EuM7xNjhGL/jyVtiRaWovR7nRzOWTv7a/X2xaNK/YOm5UO8ZRbhnnaUTkQvFIC+13HHUTPEeezjFy6h5MY4jPAu9a2dHCW9doStKRPcRk3Qh3wIAeKUN7WkIRMm4mqFPAwCEocFNuGjpZK+l54RxHU3ub+u0WXCYF1f8iJCzTibWQyIkNxD4JPxv+CTci3EwZtBHzTz+pFfjqLUD3yLhsyZyh4/oQtbxcbOjQ6JMUge/UbTsFjVD3+QpS6GHS1BLJzeZ+dR3Ww0Xlvz+pVbuERFO6jvpoj2BDYqWvbEN7bF7jfXx8aVnFY3MeAxCuswMmq6M9aUsPedLrUSIsMix0bL0nGPEYUR3smwglk6Em2btyCCoZor38uGUKCduM+xJ+MfMfOqYX23iKU5FSbM7ErMfETzLBsIM+qoojBUiPApR0stQRwhEeGN8fGkaInxUonBPI85bOhmpjPV93e9E0opG9oqOsXQiyuEb0aVwA1muLyh6C67nxXV8ByI85tb9nGNPwsfMPP6Upef+3v92LSd5EA2vGE8uF9GDXPHmlcmcaP+QPWYtDGKHecrM44+b+dQPgnJFVzRyQGKB4GQ3FzCNcOaKgfC3oChz+wZFI/d6uA/1cE4zLjGD7qiM9d3BjFJg4cC86I/M8MqtT1dEF3GlgM7ifPVPEOH+2EDcye0ExAbin2EG/fHifNXN0uk/+zDJX2QG/c+XT4zeY+m5X7Z4LSGDBypPSfh5nTfzKdduKxHdwzUBU5ZOnpHIOaUqGvmem5tYeu41j2l66py1dLLZzKe+3Y5qToqWTcqspDGDRoU8e5xrSrAtzlcXIMLrYwNxR7cKuxexh03MKMlk+liGGfR0/6bRtGRcRR3LnoRfPjH6wMLsZFuKZUKU7F+/8+jPeO12Jy7a7QqyFFxE5+lb/Qd77M33IkQ/kEu1JAklaQ9W7lP1smS60xfNPLZ7jLa6kMfHl56V7D1GzXzKVa3GiO7jA6v/wHuRmETRzQ/1bxpNMIMel32LLs5X7R7hx7GB+D/FBuI32NdocNiMpZOMmU99f3G++p70N/EBNVP8WmwgLlOq+uylH3zkr9rQpIgO874eBNTe9FDN0F/KuHowgx4y86lvebm5omXtnuR6vpRq90Szlp7zUgOxZdRMMQkR1mXc6O35kKXnOpbQO6J9NDQQwCeqikaklmeZQR828ymv9Qs7jqJlN/HvKpwftfJCiOg+3jfEqmNPwPmE/TOii8QG4rdDhK2F2cmue6ty4zgFAPiwxOH2xHzn4nz1j21oWkQIaGogYHnOUCn2bxrdLpNkLTYQ3wYRhguzk57jLtqNPazq3zT6M0njWLR0sm1hdlJ65S6i+2k6xKoDUfKjaoaelVjVqvOCmcdfD7v7hT0hhwgflg3dZQZ90MynfhR8yyLChGMPAmorT/MQ4XOxgfguyUyMN/RvGv0SAOB/MaP0B3+a6R8QJfsHD1Se4atVUpklmUGPmPnUd4NvXUTYEBqIzcLs5NsQ4d/HBuKy5Y7/DCL8lxBhtjhf+UVYNtMULZvkm4CO7jSrmLp8YnRPWL5DRHuRMhBQM5JZeyJuzzUkT4nZk/f+TaNfAQD8xs2uu99AlFQHD1SegggfdDFUtJkx8/jOdlb4jQgXwjnIamqF+pd/aG45aenkUUvPzXo41xO2YSgaOcC9ct0Ge83wFEGhnktFBItrAwGtGQngO+WHmEFfCerNzLMu7uXBTl6iIKfMPN4ZGUeEJwMBNSO5m4fIei1cucB7lZPMoK+34qULUTIGEb4FIryNJ1gQxZA3xZ6QWzr5RlQPJAK0YiCg9qa+UdHISZ/y957jbu3neZZCe86ywAx6qf5j5SUI+nki6Y9ChDfyjIebWzDUOovMoA9FS7kRK2nJQADPlatm6N8CAHb406SOcNHSya4g5kfcqLdAhDfz/L4beGKK1ckpLvGIzovMoOeZQc8wg76xloZ5YdSqZQOpo2aKe/i8JBR5fGVhBj1k6eQRP8VVtKzds9l63NVi8m/G52wvMIO+1I5gsXYTdq18MxDAk76pGfp9AMD9fl43IOzh3IN+euUqWvZORSMPe8zQIsL+ARQsnRz0ULohdHSLVr4aSB0+N3kcANCRnL4CLtby9foX7KRo2c8pGhmXDATzA/vh5yw913UZ5btNq0AMpA5fbh0DAGwPQa1De6z6uKWTY36tUPHSb0/z79dulhNzWzoJLO2Rn3SrVoEaSB1Fy8Yhwg/wzCbtrHnI+FLykVayuzdCzRTv4c6Obnbmg+Ccmcc7mFF6u8PtaEo3a9UWA1mJomW3QIR3QIS3t7Jf4YA9OZuydHKKb0b6urIBUTKmaOSHvIhPWFhgBt1l5lOvdrohK+kFrdpuICuxexYAwBY+WfMyJl3geybneX2OUpBZ1iFK9qsZeqKFQj5BssgjO5/sdENAD2nVUQOpI5NJhBmUMIOe56WW7V7iUjtrAvIH/tMWV11s471g6eTCqpos/RDhQb72v1kmQK0ZfLOzo0bSS1p1jYHwEmrPtK9VV6lVuqKnXbrJ29gTQt3SSYEZ9DXZFEl8b+BuPmdzXSOlk0bSa1p1jYHYk+3KWN+X29Ska4iPLz0HAHCTOnWRLy8+1upSrKJlb1U08h2XPzh7CHFXJ+YkvaaVVERdSNgGUbLtqyBqprjP5QOnlk5uqIz13efHPoWl516vjPWl7Imliyz5MYjwCxAlZWq7+0YvatVNBgI9Zpb3jKJlb4QIy+bfXXZ29LP020rMfOq4mcefAgDIFuux5wEveixX4Zpe1aqbDKRenySQKlfvv9fyEuVRyQ3OBWZQLehxvz0ur4z1fZEZ9FHJU25SNPI3QbYJ9LhWXWUgPLN8W1J+Khp5QHLp2bJ0MmLmU22rclur3EsfkjnWfqkoWjaI/aYr9LJW3WYg9pf4DkTJQHfj7bkOLz8tgjGDbrf03K+CbE8j7Dew5NsRui1X4YZe16rrDMR+YakZ+myQY2tFI/tk3CKYQfea+ZTvtRFl4amIZMbZuxQt+4kg2tDrWnWjgdhoikayQVzYnuPIlF4DABTCUP7AzOP7ZFZsFI1IDTPcsBa06lYDWR5q8WVFv697p8TurGXm8bf9vrcX7MkoM+jDEoem/V4mXwtada2BgNoDOui3kSgaEQZ71dxe5AsHuaW2G13cFx9f+ml8fOmt+PjSCUXLbml2vJlPHZcolGq/7e/2s51rQauuNhBw1Uj+1o85CUTJ9RK7sCav5RgI3I/pNA9f3sbdJ3YoGqFqpvhAs/MsnQgnoYpGRDXf3bRzTWjV9QYCakZyv5qhv1C07I0tXudW0Vo+M+iRoPJ5rXDya/TDi9k/BEXLNlzB4/EuFwS3GLHv4U9b14ZWPWEgnJsUjZxVM8WnIUp68vBUNCL04WEGDWSyKekBCwEATYdJzKAF0W0gwrd4b+VV1opWvWQggL859qoZ+rv4+NJzvJyzGxyr+9biTvyPA3fpHt50os0M+pL4Xlj0HWVZE1p1Ok48KOy3R1rRiP3fZe5GfYZ3q29zD9JGOKadYQZtpdZ744a6j51oOjSw9NwFRSOm08oST7TnB2tCq24xEMoMeg4i7GUtf31t86f1CSozlgsJOaJo2Rv4Pc+LAro8PPBLzKCvCI6xXwR3OXy+Iz6+tCR5P8/0iFbxbjEQYOZT31YzRQsiTDrYjKaepzyDy5GVb1ZFI02rbXl44AuWTnaIJr3MoBcgchurFAi9oJXaVXMQM5/KMYNu5yG3naDhW07RshsUjegNhh277Ae7euXIywNnBt0mk+SOGVQ2DiJoekGrwa4yEFAzklfNPP6kC19/37D0XKXR37mbdLPl05GVD97rA3fhxxSKXL69olXXGQiouQxc4r7+biLHgkS0orP84BUtqwb8wLuBrtKqKw2kDo8c+xj39w/cUBQt2ywxt0y2vhFFI7/r9ANvF72iVVcbCKj1JszMp5408/gj9sQMAHBS8iF4odlDn5E8XzYaspUH7ketFj/oBa2srjeQOswoLVp67qXKWN+XzTwesPTlZd3DPL+SXwbTMLDfzOPHeL0KP2jpbahoxHXqm4DoBa3MrlnmdQMzSgvMKB239NxxcLVE2wa+KfTnzXyIeFx1U2qbbLn3pYex50RmHmM1Q2kricx8GiqIHvpZSyeHWrj+MmtEq4vdkheLVsb6Um1ox+8E3a5eGeu7rdmHECWvb+HBt/zAeX2WPzgdwwz6uJlP/bXXe9RZK1r1zBDLJ0R5fR29YZlR+q39dvQwhPBlkgkR/pzoGGbQM63cYwVrQqvIQFZg6aTloCMPD963FRhFIzJJ23xZ6VkrWkUGci2viQ5QNCJM5e/iwfv4wJfT1Ygqep239JxfE+Q1oVVkICuw9NwFXk7BiZtl3OglHrxp5vHNfq3d8x1qUQDTST/uBdaQVpGBrIIZ1HF1BtQElkqxueLBr/ZsvWD/3f7cc0OvaU/2epmcuMygx/y434rr9bxW0SrWKhQtO8h3cUVvmAfNfOpHLq57M98beNvSc0JXcDfEx5eKEvHhM5Wxvq1+3nctaBUZSOP2yKTwX7B0srnTJZnVTHEfT1rgiKWTuyw9J4qPcE2vaxUNsRpg6cvDAtHue7+ikRf9SoLgBTVTTEpmVD8XhHGANaBVZCAN4PljRUH9NhsbxTC0A0XLfgIifEomo7qlL5fiDoRe1yoykCaYefyIZGDWSLsfvJopblE0MuMQV7GSU5aeEy7JtkIvaxUZSBOYUTJl0+bzB/+LoBJEr0TNFO+FCOuSNcctM4+/EXSbelmryEAc4AmXZfcONioaOaNmioHUL4Eoud6eEEOEj8q6gjOD7mVGqS0BZb2qVWQgAsw8/qpEFr46/RDhQ/HxpV94yMnVEIiSUM0U96kZ+r/d1P9jBj3E89C2jV7UKlrmlaAFz9Nl13Jm0JcaZetwQtGyGyDC9hDhfg/3nTLz+IvMKAUVONaUXtMqMhBJeKoaXXKytxoGAJhhBl3O78WT112u54LiOWTtB3s9RPhmiLAmSszmwIyZx3e4/ZH5SS9pFRmIC/iDP9lioE+QdNw46vSKVtEcxAWWnnuD+wvJjrPbScHM41QYjAP0kFaRgbiEO9V92sWKTdDUa45/tRNzDid6QavIQDxgv3kqY31fZgYd7WCWR1BziyA3B11zvBW6XavIQFrAzKcmzTz+OADgaICphhph1Txk8ac7UVbZC92qVWQgLcKMklkZ67vPfjtxn6QgH/5lZlBi5vFHzHzqR2EbUonoRq2iVSyfUbTsIF+Tt7/PBh8uaT9YaunkKN8jCKSkWSfoBq0iAwkQRctuBAB8jpcru0ky66H9kM8DAM5YOqHMoK8HWSU2LIRVq8hA2ghEyX6IcJyn5bxuhZ+QPXl9FwBQaZYVfa0RFq16MrNiWOEZH893uh3dQFi0iibpEREORAYSEeFAZCAREQ5EBhIR4UBkIBERDkQGEhHhQLTM20bCsrbfDQwlkv1DCWetZgrRPkhX42V3WNHImtxJH0nXtNqaltdqa/qqVtMFQufK9PW5crSTHmoC9C86wgz6Si/5Yo2ks4NDCXzvcMJfraYL5Mhcmb4yV+4dX6ynAABOtSQuVsb6PtbGJrlG0bI3Khp5GACwK8Ce2WQGPWzp5ElmlDoZW9ESI+nsjVvTwWtVLdPDMwXy5FzZu1Yf8LdNnknw4PtmfIgZ9PuL89U/tbFNUkCUVAcPVJ6CCB/iQ4MgFz76YwNx3L9pdC9EeGFxvvLLMGrSjKFEUv3mZOWp4UR7tFKui+PEbaN7hxJ44d13Kr989x33WoXCQCDC9rBkh8Mh6xbnKyeYUfp9G5slRM0U71U0cgoAsLnNK4IwNhD/fP+m0S/Z429mlN5p4709sXuieO/WdGe0Uq6Lfz5xW02rubI7rcKyzCtTHGVLG9ohBUTJ/vj40ss8c59MWsuguEnRyFk1U9zXwTY4MpRI9j8ytfTycKLzWm1Nk7O7J9xpFQoDYQY9z/MhNYWvBHUcnhjtFwCAuzrdFk4MInywlmozGapVyaFE8vo9E+HSajiBDz4ytfTcUEJOq5AYyHI4pKg88XaIklJ5VoNC0bK38KyBogL0nSCtZujpTtbgWMlIOnvLnonwarVngp62ezfRgaFYxQK18XwWIkycjrF0ssPScy+1r1VXCThbYH1DrCcyK9rGsTXdmlbVMqVz5atazRRqWo2kr2o1lMA3Dyda0+rYfnzHXDnkmRXB1R+gqBfpyH5Ir+WbDRI+rPKk1XSBHJor05ecfrCNGElnN/D9FE9aHduPvzhXDnFu3jrx8aX/AwAYdDrG0slN7Ux1Yw9Z+JzDzVDBNoyHLT1X8uH+UNHIA7x3lZ7k8ozl32r1/m6whyx8zuFKq+kCeXim0LpWQ4kkHEmTB4YT7rSqlumh5/c31ipUBqJmit+DCH9HcJheGeu7rU1Nso32ZReTzAVm0DE3FV1lgSi5Xs3QH7pM67+rnSUQHplyp1W1TMee3++/VkOJ5Po9E+60qpbpruf3v1+rUEzS6zCD/lgiV5KmZopfaEd71EzxXhcP/IKlk81BGAeoLWRcrqXMXM5QKOVCARE+DFHSsUf2i90T7rSaLpDNQRiHzVy5dPn72/q+Wi3LazWcwIeHEu/XKlQ9CJB/Y18y8/iTQbpbQJRU1Qx9S7KrbuvEWM0Ut/CilDJtO1UZ6/tikO0ZSiTVPRPyWokmxn6ye6K4ZTghr9X3t12rVSh20ldxASK8V3DMh/o3jcaDXNEaPFB5iu/6imj7qtHC7KQ9V5uCCNtDiA8KDv/XfLf97aDa881Jea3aaRw2b56uaTWckNdqrnxVq1ANscDVssIy2cB3BbWDrGjZGyXHrxc6taRq68QMul0mfaeikfGg2jGSlteq3cZRZ6aQ+1W1LKfV1vS1WoWxB7GZhQhnRJ6esYG4BhH+zcLs5Ft+3lzN0Me5M50TC5ZObl+YnfwHP+/thoXZySpE+L3YQHyb4FAVAHCOGSUZlx5X7JmQ02q6QG5/83TntHrz9GR1KIHfU66T02quXNMqdD0IqL0dLzKDyrz1YhDhF9RM8W6/7s1LfO0SHccMOmbpuV/7dV+v8HT+VHQcd8X3lZG0nFbVMh2bKXReq+f3y2nFXfGXCaWBgNp+x2O2JUscWjeSr/lxX4jwvRIxCmeDWq3ygqWTvRLDhxEe4egbQwk5rYJarfLCdEFOKx7hGF4DYUZp0dKJPbaVGbPaRnJEzRSfatVfi0cCOmLp/r+NW8HSc7/l5QQcgQjv8fO+PBLQkelCuLSaKchpNZSoaRVaAwG1B/9rZlDRitYVIMIPqhn6c0XLbvJyP/6GFYV+nvVjh9xveI/r+GaECPvmVcvfsEKt/Ngh95vpglir4URNq1AbCKiNsY8xgz7q4pSbFI2cUTPFpyFKuvXL+ZzoAEsnh1xesy3Y8zYAgC447AZFy/pVdVao1XQhnFrNFOS0Gkln1dAbCKgZyXeZQY+4OMUecu1VM/R3aqb4Q9mxt0TMCWMG7Yg3sQyWToRDB78Cz3j2ESfYXDm8Wk0X5LTqCgMBtYf/DQDACy5PgxDhhxSNvBUfX5pWM8V9AmMRLVfOhKXMciOYQV8THQMRltnQk0GoVSf2PGSZK4u1GkrgzaGKQHPCnrRXxvr+Qs0UTftH7+ESIxBh+z+7p7hc212mF5lBTbuT4sc45mJiBhUuEQLuVTqUwEm+pm7OlWnJbQqaoURS5deAAIDZmUJOWCuD58865/TjhQi7WskaSWfXc11Wxnb8uUirallOq07B82c5ajWcwBu7xkDqmPnUt9VM8QLPIuK1/etrEYrY/sFIn8SDnRzhwUIvrnLbvzRdIDtmCrk3ZO6ze6J4gLtsX1mR25omp47tx38h8Va+IHi7S+Wf4v5VzwIARBtrDeHBTmFHqFXXDLFWYuZTz1j68hi43Wk6Hf2Z7B/V1jSZahDTMmj/3f5cdIPdE8U9wwk8vtI4ONv3TNCfiM63dHJBcIiwDTyuo+jVODiB+X75xXRBrFVXGgiordr8vZnHn+J1t9uFY1rLkTT5KwevUYV/7gjvOZqxfSSdFYWXil4aQq9W3s5WNxW7IV2qUKuuNRBQG3NbvO72iOSue0vUY8ibMZxwngCLPueZNkRDIE97PG4YTuCRVq9RjyHvdrraQOrw3uTTPJjoYgebIpofOH7O46JFbhA9k5u3G+gJAwF8lcvMpyYrY30fs3RyFwBgSsa92Q08+0hTqmU61crnHKfVHzZXpqKd6ZbT/lTLdKbVa/DsI2FHqFXPGMhKLD33SmWs7w5LJx9hBn2I75r68eZd7/ThTIH82P6n2cf8c0e471LDnqZapmSuXDKdzocIi0JsL4naMFMgP+IrPK3gqFUYGEqItepJA6lj6blLZj71ZGWs7zYzjwcsnWDuaHiU/5ArLg3neqcP7SHSsf34jmqZHlzxI1+w/58HCwl7tJlC7lfTheU5lb6iB7xYLdP08/tTPxCdL7HP4Whg/HssHNuPU7wX9oqjVmFgOCHWKnQx6Z0kPr70/5z2VphBD5r51Lfb2yp3xMeX/q9gKffFyljfTtnr8Y1CZeVwda5MrT0T9A9OWtkvhef3h1urR6bEWnXdRmHAnBfsQjuVaOg43I3GcZ9DZrNzJXw1qtGKlKNWPONhaOHeyI5aVcv0XE8PsTwgyux4g6Jl/aiEFAgQYWFkJTOo6DvKItRqJB1erYYSYq3myvRMZCArsHQi9B/iEYehhGc5cYIxg0q5u4iYLoi14hGHoYRnOXGCzZXpG5GBrIAZ9HWJoKP7O51lvhGKlr1VYvfbN2/kubJYq+EEvn8oET6tRtJyWs2VSwuRgayAe8OK3oyqopEH2tQkaRSNiFK22j2k23CBpnBvWKFWI+nwabU1LdZqulDTKjKQVVg6Efp2QYQJRMnQrPOrmeI9AIC2B3tNF8RaDScwGUqER6vdE3Ja1YO9IgNZBf8RifYKFJ5IuuPYhgoRflzi0ILfqVr5j0ioFU8k3XFsQx1OyGlVr4wbGcgqmFGy37SHJQ5N8+TWHUXNLMdsCBNUWzo56Pe958olVi3LacWTW3cUHt8i1Gq6cFWryEAaYOnkSfsf0XEQ4cNqptix4qJqpvg9AMB2iUNfCCrJ3UxBTqvhBD68e6JzWu2ekNdqZZK7sKYe7SiL81UGEV6IDcQ/Lzg0FhuIfwUAMNXuUsxqprgPIvwfJQ5llk52MqP0T0G04913qmwogReU68RaKdfVtHJbirlVdk8U9w0n5LSaLpCdc+WrWkU9SBMsnTwjGWOiKBqZUTPFZBuatQwvNCQ1ZGIGHecpgQJjpiCv1dY0mdk90T6t7J5jOCGnVbVMx3lKoCtEPUgTFuerfwIAnOE1AkUvkg/GBuJpiPB7C7OTvmzENcKekA8eqByPDcTvlzzl3OUTo1/l3yUw3n2nphWvESjUSrkunh5K4PfePB2cVvaE/JuTlePKdfJavfrE6Ff5d7lCZCAO2MMmyezpNuvs43hurTPMKP2jn21RM8V7FI38dwDAzZKnLJh5/Fm/29EMe9gkmT3dZp19HM+tdWau7G8bd08U79madqfVsf34s43aEXnzShAfX3rOTb07vsNcsHTyWKvDG0XL3so3AeXTrwCwyAx6l5lPvdrKvb3wyJQ3raYL5LHVwxu3jKSzt/JNQFdaVcv0ruf3N9YqMhAJIErG1Aw97VJ4wB++bumkwAz6Gt+pF6Jo2Y0Q4bu5b5Xr5AnMoA/xsghtZyiRjO2Z8K7VdIEU5sr0Nb5TL2Qknd04lMB3c98q11pVy/QhXhahIZGBSMLLQf/UfiYtXOYcL/Z5YVVGjX6I8CAPdtrsodb3FTppHHV42iBftOKpea7RaiiBB3mwU0taiYwDRAbiDm4kJ1rMFxUU9rDq4U4bRx1uJKHVqlqmD4uMA0STdHcszlf/yAx6PDYQ/3BsIP6ZTrdnBQvMoDvMfOq5TjekzrvvVP84V6bH/+V18Q8r14VLq2qZ7nh+v5xWUQ/iETVTvAcifFiyvHCQnDPzeEeQVWxbZfdE8Z7hRDi0OrYf71hZxVZEZCAtAFFyUM3QpyVdGPyG1TYByWPMECeD6DRDieTgnonOaVXbBCSPySTOWEk0xGqBxfnqe5ae+wnfULyhlQmjS16wdLLz8on7Xg56E9Av3n2n+t5MoabVcKK9Wk0XyM5Xn7jv5dWbgDJEPYiPKFr2Tl5NtuXUnQ1gfG/lYBiq67bKSDp7J68mG5hW0wVysNXqupGBBADfx9jDawKKkk07YT/oGUsnLzCDvuR3PEcY4PsYe3hNwJa1mi6QF+bK9KV6PEerRAYSMLwm4BaI8Ga+z7GBDy9WT1gv8eCjCjPoOWbQM8ygb4S5opXfjKRrWg0l8Ga+zyHUqlqm5+bK9Mxcmb4RREWr/x8AAP//mC6b1mgHT/IAAAAASUVORK5CYII=;" vertex="1" parent="qfl5n_piH4ilOluIckPt-11">
          <mxGeometry width="30" height="30" as="geometry" />
        </mxCell>
        <mxCell id="qfl5n_piH4ilOluIckPt-14" value="" style="group" vertex="1" connectable="0" parent="1">
          <mxGeometry x="310" y="189.99999999999994" width="60" height="69.33333333333331" as="geometry" />
        </mxCell>
        <mxCell id="qfl5n_piH4ilOluIckPt-15" value="Wetter" style="html=1;verticalLabelPosition=bottom;align=center;labelBackgroundColor=#ffffff;verticalAlign=top;strokeWidth=2;strokeColor=#0080F0;shadow=0;dashed=0;shape=mxgraph.ios7.icons.data;" vertex="1" parent="qfl5n_piH4ilOluIckPt-14">
          <mxGeometry width="60" height="69.33333333333334" as="geometry" />
        </mxCell>
        <mxCell id="qfl5n_piH4ilOluIckPt-16" value="" style="dashed=0;outlineConnect=0;html=1;align=center;labelPosition=center;verticalLabelPosition=bottom;verticalAlign=top;shape=mxgraph.weblogos.mongodb;fontFamily=Helvetica;fontSize=11;fontColor=default;" vertex="1" parent="qfl5n_piH4ilOluIckPt-14">
          <mxGeometry x="18" y="23.111111111111114" width="23.999999999999986" height="34.66666666666667" as="geometry" />
        </mxCell>
        <mxCell id="qfl5n_piH4ilOluIckPt-22" value="" style="group" vertex="1" connectable="0" parent="1">
          <mxGeometry x="740" y="290" width="120" height="80" as="geometry" />
        </mxCell>
        <mxCell id="qfl5n_piH4ilOluIckPt-23" value="&lt;font style=&quot;font-size: 10px;&quot;&gt;plot_historic&lt;/font&gt;" style="rounded=0;whiteSpace=wrap;html=1;" vertex="1" parent="qfl5n_piH4ilOluIckPt-22">
          <mxGeometry width="120" height="80" as="geometry" />
        </mxCell>
        <mxCell id="qfl5n_piH4ilOluIckPt-24" value="" style="shape=image;verticalLabelPosition=bottom;labelBackgroundColor=default;verticalAlign=top;aspect=fixed;imageAspect=0;image=data:image/png,iVBORw0KGgoAAAANSUhEUgAAAMgAAADHCAYAAABcDhxLAAAKrWlDQ1BJQ0MgUHJvZmlsZQAASImVlwdUU9kWhs+96SGhJYQiJfQmvQWQEkILRZAOohKSAIEQYiCg2JXBERxRVERAUVQUUXAsgIwFEcXCoFgQ64AMAso4WBAVy7vAIszMW++99fZaZ+3v7uzzn33OuidrXwDIihyxWAgrApAuypKE+XnRY2Lj6LhBgAY0QAQQcOVwM8XM0NAggNiM/7t96EbyELtrMan177//V1Pi8TO5AEChCCfyMrnpCJ9GxkuuWJIFAGofEtfPyRJPchvCVAlSIMI9k5w8zSOTnDjFaDCVExHGQpgKAJ7E4UiSASDRkTg9m5uM6JA8EbYW8QQihMUIu6enZ/AQPoGwCZKDxEiT+ozEv+gk/00zUabJ4STLeHovU4b3FmSKhZzl/+dx/G9LF0pn1jBCBilF4h+GeGXkzHrSMgJlLEqcHzLDAt5U/hSnSP0jZ5ibyYqbYR7HO1A2Vzg/aIaTBL5smU4WO2KG+Zk+4TMsyQiTrZUkYTFnmCOZXVeaFimLp/DZMv3clIjoGc4WRM2f4cy08MDZHJYsLpGGyerni/y8Ztf1le09PfMv+xWwZXOzUiL8ZXvnzNbPFzFnNTNjZLXx+N4+szmRsnxxlpdsLbEwVJbPF/rJ4pnZ4bK5WcgLOTs3VHaGqZyA0BkGLJABhMiQADoIQp68AcjiL8ua3AgrQ7xcIkhOyaIzkRvGp7NFXMu5dFtrWzsAJu/r9OvwjjZ1DyHajdmYsBIAJ0QJnjsb4+4CoKkIAMWB2ZjRPuTZAoAWTa5Ukj0dm7pLGORfQAFQgTrQBvrABFgAW+AIXIEn8AEBIAREgFiwGHBBCkhHKs8BK8E6kA8KwVawE5SBSnAAHAHHwUnQCM6BS+AquAlug/vgMegFA+AVGAUfwAQEQTiIDFEgdUgHMoTMIVuIAblDPlAQFAbFQglQMiSCpNBKaANUCBVDZdB+qAb6GToLXYKuQ13QQ6gPGobeQp9hFEyCqbAWbARbwQyYCQfCEfAiOBleCufCefAWuBSugo/BDfAl+CZ8H+6FX8FjKICSQ9FQuigLFAPFQoWg4lBJKAlqNaoAVYKqQtWhmlHtqLuoXtQI6hMai6ag6WgLtCvaHx2J5qKXolejN6PL0EfQDeg29F10H3oU/Q1DxmhizDEuGDYmBpOMycHkY0ow1ZgzmCuY+5gBzAcsFkvDGmOdsP7YWGwqdgV2M3YPth7bgu3C9mPHcDicOs4c54YLwXFwWbh83G7cMdxF3B3cAO4jXg6vg7fF++Lj8CL8enwJ/ij+Av4OfhA/QVAkGBJcCCEEHmE5oYhwkNBMuEUYIEwQlYjGRDdiBDGVuI5YSqwjXiE+Ib6Tk5PTk3OWWyAnkFsrVyp3Qu6aXJ/cJ5IyyYzEIsWTpKQtpMOkFtJD0jsymWxE9iTHkbPIW8g15MvkZ+SP8hR5S3m2PE9+jXy5fIP8HfnXCgQFQwWmwmKFXIUShVMKtxRGFAmKRoosRY7iasVyxbOKDxTHlChKNkohSulKm5WOKl1XGlLGKRsp+yjzlPOUDyhfVu6noCj6FBaFS9lAOUi5QhmgYqnGVDY1lVpIPU7tpI6qKKvYq0SpLFMpVzmv0ktD0YxobJqQVkQ7SeumfVbVUmWq8lU3qdap3lEdV5uj5qnGVytQq1e7r/ZZna7uo56mvk29Uf2pBlrDTGOBRo7GXo0rGiNzqHNc53DnFMw5OeeRJqxpphmmuULzgGaH5piWtpafllhrt9ZlrRFtmrandqr2Du0L2sM6FB13HYHODp2LOi/pKnQmXUgvpbfRR3U1df11pbr7dTt1J/SM9SL11uvV6z3VJ+oz9JP0d+i36o8a6BgEG6w0qDV4ZEgwZBimGO4ybDccNzI2ijbaaNRoNGSsZsw2zjWuNX5iQjbxMFlqUmVyzxRryjBNM91jetsMNnMwSzErN7tlDps7mgvM95h3zcXMdZ4rmls194EFyYJpkW1Ra9FnSbMMslxv2Wj52srAKs5qm1W71TdrB2uh9UHrxzbKNgE2622abd7amtlybctt79mR7Xzt1tg12b2xN7fn2++173GgOAQ7bHRodfjq6OQocaxzHHYycEpwqnB6wKAyQhmbGdecMc5ezmuczzl/cnF0yXI56fKnq4VrmutR16F5xvP48w7O63fTc+O47Xfrdae7J7jvc+/10PXgeFR5PPfU9+R5VnsOMk2ZqcxjzNde1l4SrzNe4ywX1ipWizfK28+7wLvTR9kn0qfM55mvnm+yb63vqJ+D3wq/Fn+Mf6D/Nv8HbC02l13DHg1wClgV0BZICgwPLAt8HmQWJAlqDoaDA4K3Bz+ZbzhfNL8xBISwQ7aHPA01Dl0a+ssC7ILQBeULXoTZhK0Maw+nhC8JPxr+IcIroijicaRJpDSyNUohKj6qJmo82ju6OLo3xipmVczNWI1YQWxTHC4uKq46bmyhz8KdCwfiHeLz47sXGS9atuj6Yo3FwsXnlygs4Sw5lYBJiE44mvCFE8Kp4owlshMrEke5LO4u7iueJ28Hb5jvxi/mDya5JRUnDSW7JW9PHk7xSClJGRGwBGWCN6n+qZWp42khaYfTvgujhfXp+PSE9LMiZVGaqC1DO2NZRpfYXJwv7l3qsnTn0lFJoKQ6E8pclNmURUUaow6pifQHaV+2e3Z59secqJxTy5SWiZZ1LDdbvmn5YK5v7qEV6BXcFa0rdVeuW9m3irlq/2podeLq1jX6a/LWDKz1W3tkHXFd2rpf11uvL17/fkP0huY8rby1ef0/+P1Qmy+fL8l/sNF1Y+WP6B8FP3Zustu0e9O3Al7BjULrwpLCL5u5m2/8ZPNT6U/ftyRt6SxyLNq7FbtVtLV7m8e2I8VKxbnF/duDtzfsoO8o2PF+55Kd10vsSyp3EXdJd/WWBpU27TbYvXX3l7KUsvvlXuX1FZoVmyrG9/D23NnrubeuUquysPLzPsG+nv1++xuqjKpKDmAPZB94cTDqYPshxqGaao3qwuqvh0WHe4+EHWmrcaqpOap5tKgWrpXWDh+LP3b7uPfxpjqLuv31tPrCE+CE9MTLnxN+7j4ZeLL1FONU3WnD0xVnKGcKGqCG5Q2jjSmNvU2xTV1nA862Nrs2n/nF8pfD53TPlZ9XOV90gXgh78L3i7kXx1rELSOXki/1ty5pfXw55vK9tgVtnVcCr1y76nv1cjuz/eI1t2vnrrtcP3uDcaPxpuPNhg6HjjO/Ovx6ptOxs+GW062m2863m7vmdV2443Hn0l3vu1fvse/dvD//fld3ZHfPg/gHvT28nqGHwodvHmU/mni89gnmScFTxaclzzSfVf1m+lt9r2Pv+T7vvo7n4c8f93P7X/2e+fuXgbwX5BclgzqDNUO2Q+eGfYdvv1z4cuCV+NXESP4fSn9UvDZ5ffpPzz87RmNGB95I3nx/u/md+rvD7+3ft46Fjj37kP5hYrzgo/rHI58Yn9o/R38enMj5gvtS+tX0a/O3wG9Pvqd//y7mSDhTrQAKGXBSEgBvDwNAjgWAchsA4sLpfnrKoOlvgCkC/4mne+4pcwTgUAsAkZ4AhKwFoBLxRohXQPxkSxThCWA7O9mY6X2n+vRJwyJfLPsm+0nQXb1pLfiHTffwf6n7nx5MqtqDf/p/AdpSA1ZTFoxgAAAAlmVYSWZNTQAqAAAACAAFARIAAwAAAAEAAQAAARoABQAAAAEAAABKARsABQAAAAEAAABSASgAAwAAAAEAAgAAh2kABAAAAAEAAABaAAAAAAAAAJAAAAABAAAAkAAAAAEAA5KGAAcAAAASAAAAhKACAAQAAAABAAAAyKADAAQAAAABAAAAxwAAAABBU0NJSQAAAFNjcmVlbnNob3QvIi3/AAAACXBIWXMAABYlAAAWJQFJUiTwAAAC3WlUWHRYTUw6Y29tLmFkb2JlLnhtcAAAAAAAPHg6eG1wbWV0YSB4bWxuczp4PSJhZG9iZTpuczptZXRhLyIgeDp4bXB0az0iWE1QIENvcmUgNi4wLjAiPgogICA8cmRmOlJERiB4bWxuczpyZGY9Imh0dHA6Ly93d3cudzMub3JnLzE5OTkvMDIvMjItcmRmLXN5bnRheC1ucyMiPgogICAgICA8cmRmOkRlc2NyaXB0aW9uIHJkZjphYm91dD0iIgogICAgICAgICAgICB4bWxuczpleGlmPSJodHRwOi8vbnMuYWRvYmUuY29tL2V4aWYvMS4wLyIKICAgICAgICAgICAgeG1sbnM6dGlmZj0iaHR0cDovL25zLmFkb2JlLmNvbS90aWZmLzEuMC8iPgogICAgICAgICA8ZXhpZjpVc2VyQ29tbWVudD5TY3JlZW5zaG90PC9leGlmOlVzZXJDb21tZW50PgogICAgICAgICA8ZXhpZjpQaXhlbFhEaW1lbnNpb24+Mjg4MDwvZXhpZjpQaXhlbFhEaW1lbnNpb24+CiAgICAgICAgIDxleGlmOlBpeGVsWURpbWVuc2lvbj4xODAwPC9leGlmOlBpeGVsWURpbWVuc2lvbj4KICAgICAgICAgPHRpZmY6UmVzb2x1dGlvblVuaXQ+MjwvdGlmZjpSZXNvbHV0aW9uVW5pdD4KICAgICAgICAgPHRpZmY6WFJlc29sdXRpb24+MTQ0LzE8L3RpZmY6WFJlc29sdXRpb24+CiAgICAgICAgIDx0aWZmOllSZXNvbHV0aW9uPjE0NC8xPC90aWZmOllSZXNvbHV0aW9uPgogICAgICAgICA8dGlmZjpPcmllbnRhdGlvbj4xPC90aWZmOk9yaWVudGF0aW9uPgogICAgICA8L3JkZjpEZXNjcmlwdGlvbj4KICAgPC9yZGY6UkRGPgo8L3g6eG1wbWV0YT4Ki8YBaQAAQABJREFUeAHtnQdgZUd19897eurSrrb34sW94F5wATsBQgs1CQnFlNAMJHQCfKEmGDBgB0OooRgwECAESAIJHWzAGPdet3m9vWi1q6733vf7n7nz9KTV7mql+6SnXY307p07d+7MOWfOmXOmZwqFQtGmXUUoAG0tk8mYKJzJFC1DLvliuNfU5Py5v7/XOvo7bUf/Xtu4Z4MNEFnxdMlksrageb4taphlzbkmq8/VW4H0BvIDluOutD2i4k+7ilAgV5FUpxN1CsDfhjxYkT/Y2QrcBwr9tql7hz3YvsZuaH/Q7uf+UOcWe7C3wwb4KosgqcbKE7+G+wAJHFfXbMc1L7ZTZx9jj59zoh0/+2hrq2slBhlMu4pSIDOtQSpH3yLMXUQspAkKxYLdsf0++69Hf2/X7bjHVve22458j95aHZqggbsERE5sn0/u0hF9pJMnJdVmc9Ak57etsucuPs+evvwJnrbyCdqECNMuVQpMC0hK5CzApFm4WSaUzJ6MRAN/LabUhj0b7fP3/4d9fcvNtnOg15qzORcAj+P6IgAhYdDX5S6kNmhI5RC2Hky3OmI+ue0Ye9+pr7DlM5agmfKYXTUIitIokHcWQeNrmWL8TbuxUWBaQMZGt32+kjBINjKZAu/E+kXb3rPL/mv9b+wza/7Pbu3bbS3ZWmvhrUyt8bjI8F2FATujaa696Zjn2JOXnI8wSmykgXSVUATByHpbZTw5HrnfTgtISmUfzKnQfjDMqRu23mafeehH9vPdD6NVqN1h1gEYN81Ww0AiiG01tXbpovPtFUf/uS2iUR+chCO0fabNr7EX8rSAjJ12Q77MIxRix3yhz6554Id2+eofWb9aFVTme4mZw6P3oY4f8umYHyRs/aQpBdGH2fWMtqPsQ6e91pa0LESbhbaPtMi0BhkziW1aQMZOu+TLYFph9dumzq129b3ftn/fcpP1IA60CKyPWLX4u/FLRBrHnV9IIOgHsy4eZbb10TbJYHKd17LErjj11XZ020qJjuXUMCoZXdH0CmlMXw9OgWkBOTiN9onh7XBndxSE2h4Ix3Wb/mhXPvgDu37PI9TYoYEMy7pYiEXVMonmldg0Dad0o4vdwtIcS+pn2odOfKH9yeJzXXuoF41gNI1gBQ5vk5R/HVOZvg+nwLSADKfIKJ7zGswTf8FwEobvPPy/9s/3f9e253tdY8iuUpdsFAwlKX9agqH0hrvA7ph4vJB/UW2rffKUl9lFi8+2fjRLjYQEEdVojGJMm13DKTjy87SAjEyXA4a6zoDbO/v22JfQGh9Z87/Wi8Q0wngar5ATG0pIdJ9Ipzw7EIQGVMbcXKP9y0mX2sVLzrWarIYdg5hKv7mA+/NEQjf18poWkEMsM5lU4qttXTvsqnu/Zdds+oOLROy6lamjulrtj2DQHGIG44gu0ZQISIuo16wLCOZnau3yE//Gnr38YssiJDL6FEdm17Q7OAWmqXRwGhEjsLpf4a5eBvvee+tn7NMbb/BR8NAgV0JBOMSCcVR8VMmnFEmMLychlbA0c2+ni/kDD3yPbuc7MLNqvHcriFG5yRe0nn88fRlCgWkNMoQc+z74AKAHa1JIxrYzj+q9t33Ort12jzXUBD2ha7D9q4/RJDTC4aj6NvvX0y6z0+edQAiYyMYCXEGsn9okUcB4nHYJBaY1yEFYQUyj+lgMtA3h+Kc7v2Lf3XEfo9Y1tC9Cs7efO3XzQVKanNcOFebUncz9esWtn7Ibt97ugqCZxnLeCyezsTrBnxyileU6LSBlxNi/V7VrjX30rq/Zf8BgtV75akxD4hPNr/1/PdlvJAotCMm2gS57NzhoBnE2q5ZSEHzBFxrtkw1p9eU/LSCjKJMeZt1efuvn7Kubb7JuOEmdpXX8evlWplU9/n7u1WiixO5moTlAz9YtXdvsg3d/zXYwT0yml7qqa+CCIOaKNe3KKVDlAhL1vu7Rr/owPlOsKuQR3fA4MW6MH96XTAylSloxPd01Rb2PqSPffPhH9olHr8dQzzEt3RglD2aXzCoJiLp2axGPmDJBVeMkuKKXYBR8NQj4/+16kE6Gz9vOnp3gC9yBFCFmQgPFrkZ8HMgJvFS1gHjB+UiCGDcwcIEC1ZTywMz7Mw1i0cZ7YIIwSKYwGIY0BtdSihmC4OkehETmR9Zu2naXfYrZuOqVEpNp6ojmU0UxreN50NDiocqcYNMISC0/+WVYNYLXF7bdYZ+47zvWM9AdNIkEnApBplaYmayZY5F+fHiEuqoWEBWW13AqWpUuBaYwecMy1jj6MHLphW/F/BIGFTbswU0CIEPJnRLTTzUpHv/Gp2TQY4U58oG7r7UH+7uIXcCUkjnFqkDi6RO5IG7BX63X4TBqfKSGGcCfo5v622t/4rgUXPwDXQenokQsqxWzysNV1QLiPE1heo2uUpZ0+I0mM5PwikXqRoUPdzGM6GJlFbimWqjWd2mI6eiRTGI+Skxxld+u3l321tu/gM2+mQaudE9YMiuTRZMPp7KTRmlifEQm4icf/rHPIxN9onNSx4cj/K42XJU5MaxYWdytKRGwOCXWn+9m1VwvmqDfevp3WHffXjYv4D7QsS/84ngGxTRDr652pjXkZhEnb011C3huhTFAm7Rrsw0IRM5NKc+OWOr+lID8cN2v7OcsjS3yvg9GkomiRnkdmqYHgGRaTUUxURUjM1FO5tZ9bBjx5ju/aNc0tNlJrHnXe2nS4S5WIsI5+ofESSodhbmoqdyGRNCDvt43dJ9oVRQwSQISWMvNJJEsoZkIL+u+UOyzvnyndXSts53dD1lH93rb3fOIdfZv4bfLSaxv1B7Zl9yDheA+jyChi3GLVl8zw3I19dZSt9DqcjOtqXaWNSI8rfULbH7r6ZhQObt+1/2IFHOaEr2jaeVZpYFwhAZ5wKGKynJUoAhqrX9Xe0qkmQUh12NC/tM937Crz3i9zW2Y6ziqUFxzEy/PRzVEFg217kVOJqs2lJBTOkFLO7G9QPna220uLETzis4j86DPPL0gTP6YPHtiflE8lRn3yCD6foLdJAmIiC2yBFrJKwL35vfYlj232sbdf7QdXfdZd387gqLlRoobtEmOZavR+VKH+HCwe1J2itZf6PJfVz+9OPypEHTNoHVOX/RSWzr36dZJiNIfCGB6+0OqbBDqg2VYve8lHGE1ovgUbUjv3G0d6+x2BkCftOwiyqZg7d099HL12tbeXtvQ3287uruZYjNg7b19vjVRD/6dAyzXgiASmbbanDXltCyMmcSNjdZYX2vz6hpsIeGz6+utrb7O2hrqwwArkcT6LkTeUxJMWxWRl4MqSd5mYQwfjD3SBERE9J8IJQpDjA3tN9qdm6+1DjRFvtjr5OMF7yXDobbTc/gy+MZ6HVyCqkKSC+2UAaar9xe0tCn0+nQBWhN+9WAJysPBCTfh04hHGqCXimd7vt/OZKHVqhnLrAjjf+Suu+07W7fbVgSjf6CP94iAV2jSB8MpEZ+VMn42i3CpUXwYW0IzM1drzbU1dhyCcmpTs50xu81OnjvbVuCvr8VY5dO8m7b+Cekk5UJ4LCECJ8VNigYJpAyN3iK1+X1bvmd3bfk25KUmSf5Uy8mplklI7/d0qBTSDrWVUiRnlSe+lvrFevJu4JkE7CVcjdrDxQlzFXo3Hs34rQPxl89/rL3vpJdaC6bmW2651a5eux6FDaNLHpwqEELEcV3hnjI5SZ5VyyvxrC74k1q/i03uutA0NNzsoY4O+x/bZrZWUTJ2TnOzXbJgvj2J30mzZ9mcBkaZYvuTNKSZDslKIH7abkIERAxXXhOE8QeWofZtsDs2fsUe6bjJ8VIcxU1I7GHyy6kYysM9cJwX5RZS1hVTo6aJCYhq0PNEAXbjExMFiMaZ2SR/HuknMDS5cguMeFpdi71q+RPtxUc/jU6QGnvPnXfa1Y9sIEJSJUTilwRDqYzgPHFF5ke7IZRUQlv/JPlOHSfRJuN+Y1en3fjww/bRdevscS0t9pT5C+wpixfayQhLnU8ETb/MR4D+gEEVFxDVzKGRF+xKVdUycfb2Pmo3rPsoYw0PA6AmbwQXyJoQl6BIbr2NcULMNK6DIiI4a2saUfmzPZ+Yl7p1K06kNFA5QBqiZnQa/9F2QReznekHTnm5nbvgFMthFr351tvsExKOpOaP8b0OEUUiQUovhnn0XsJRiocnZlwKSwL0HPPRpE+I/9s9e+y3HXvs4+vX22sWLrQ3nnCczWttQaEkA7eKz+cZ797XgKart2FApP9Y8VxU++aoLUqGEv6egR32x0c+5cKhAgv2rYinWJGq4XkwLD6nRwSVkwigu8o2hwZpzM3wDFSH1pHlgYciPWpVX4SbpsNoekw/2IqKz2X70m+c/4924cIzaXgX7R/+eIt9Ys063ujtMKcE9BuNGx5v+HNM4wDh7f199mE0ykW/+KX9YPVa2oR5N3dVyRbhnTzCPXqAYoZjv1dcQCT4KiA50aWf7tubH/m0bd57p4e46DjB9kc1fVkZJ3YosQQmR12u2RpqqbWS8D5Akok11Z30cw+19DzaFW8/6sn2QdaFLGhaaDt7u+3dt99lH5PmyFWcFUZHRhEfpnmQDoKX3Xa7feC2O+nql3iLU2R9CJtSqY0uzXHEqrz1EPuyQarA6O09m75lj+z+PUhSRzsxhPZE1glDqSXTSkIswjfVzvG7RNrHWHinUfMo4EO/nBpPwquXWvjchjn2vhNfYOctOA37nrnImC4fuONuu3rDCGbVZKOmOgm+2U2l9eG16+zm9t32b+ecZYtamikNdQlLmCeGayag2ohSb7a542Z7cMePQE1yObmCIR5QOaiXJJh/dEnWzk8EZJD81S4cwmEk57iBYQHheMKM5fa5s95klyw5j9kDtdbbn7c3YVZdvXZtQHSkBCYzLBkbcRkAjp+277KX/uFG9jjWmFgAOZSZP1b0UnEBkZxLc2hk/KHtP8QvSziwnbb6lwuFHPweMEEX5RhzVQ+apqSI8M5cXAJxAnQTBNIhZSNYwxyxQYFWAgUgVw9ca7bOXr/sYvv0mW+wY9hILo+w7Onrt3ffwUzeDY+E3ipXoUSOhFACk+lE7qDSAxRO/oz9cneHvfP2OxgnY+IPsKrxrm5gLUnQoHMceE4b9MqbWFBeE+Ee2X2jbdnL3CYwUMGG5mLa6Bx6eoInCkJLvbbsHEwjeMsCBl9VhU+8I+gkJLLLhYemx/RxPTrXYu867nn2DI5IyEpjg5g6Hv75jrvsqvLeqij/8U6cSXcRlnhPAPr3rVut9pbb7AvnnGE5Bh810q7Gu+RJ61wq4SquQVR0UvP3b/s+yPR4UVaLcIikUThkq9dx9kYRbTdVnCZ2xK1N62EQ33II+E+sn2dfZF7V82iQ55hGIhz7GLB784232lUyq1ysqlfw96W/pIBQyujrj26wrz60Ggz4g6/EX8JvimoQdAWIbWi/gblVD9Puils4B3z3JcTEhkQW0YyfJiYw1tZol9vK1ESVwCxMvZfWAGZq09ms8XjO/DPtjcf/pc1rmudnhkjwO/p67MN33WP/8sg6agTpEbmpg6fDqsKSSY7m+MS69XbRogV2bFsbQTKv9C6YxsIsTVcBDSJo9fMy893O17f/xtshykwCE956lEm/iE1kntTVNPNrHYSnmoBMoBJIYu/hrL0TrdGKpnj30c+1d53yEhcOUVm9PTm454MIx0cfoc2h6SMuTEmCU+3mZVK0e7q6OHdlg68JculwnqpMgVVEQIK68yaUdfVvt03M0M3SYHS1CB7DC3hyywkTEJgkINIglamHxo+haKa2W5g4GaDsE7QIwPmN8+w/zn6bveCYP7dGBjvlVKv2M/Hw72+82a5cszYE6IVq4eoqAEF1YCd4408xQe7aDRttYAAeoxKQmxJtkNCbEIZxgpBkbWfnQ4yGylKWwEQ8q6eEYBe0Ghok1xo0iFScXPWA6OAIThmomucslpCgaF39Cxacbl85+8124twTfLGXpvGoh6e9t9/exSDbJ6U5tG3JYeUydgfT73/KGImmnnhhiUAVcKlSzgsHIFW/qbaTULSz4KlYVHEGV2V850BJmJtq56Llon0eoa2eu+jWCU3b8GhN+VxMqiuOeba9mzMKVzJNXZrESU489Rp+kCnrVz2yPjGrqgePVCBRJUYD/cubtqBNkrlawr8CLvVuXhcAauQMI6EDTGXf3bPeyy2CLz2iOB6vAgiNJUlNlmuuWwSxBVUCaQR4LAlW4BtVODOAbT0wPq5uhl3B0QYXLD7HxzYEqnZvl0bRWMebbrrFPrU+aXNUE6FTowsYUwncs7sdC6XbZjU3uX2Sam2fwJqygKioKBFuam9o8dGe3k0Arz56tIrw4nUwwlKj1rgTEjzNdfPc1MIb3KQyVtDBERTd1TWu8Y4XzDrG3nr8X9ljZx9reRY6aRWkqK0Bs92s9lOD3IXDp6zzpT6eVFwCOVO/Ylrd3dll62iwtzU3On+lngcJpiwgpKhGIJKgMd7egR5m7rKG3AuJsCosKIEmrSYBEdSBo7hNolPlojUbqljE3Wp7NNBF/vqVT7IXP+ZpNrthZqhsmKbuG1xAWAnQ5XfKrNqAOglC4yhUIc3HTVonC4jRCfFAV7edWiq39JFNVUC0qD8wGKyGjdzVu9G7eatRMGIhibFq+NOmDUM0mwph0lygo/SIujdmM3/qQye+yJ6x4mKEJrG5VWciB0WWw9ImtzdjVn2StRRDhGPS4J+gjOl82LGX+VlUyKrktLFE2i5VAVFvkLcxXFB0AtMm7GIPAe5J5bj90k21tbRHLsuWcCUBJ3oFiL1fIIa9UNYSDrmnzlxlb2Lg7/R5JwWtUQIMWjPPor1vgL1276G3SsIhK7w66ezIpHVx0oAn7ZBHu7uohJn+WgnpAN5UBUT4h1pYQpGl/bGRQmWct0pViOgsAW6rX0Tto80DIPoE8JfyVTbxjrfkFKbz1Ou5/+2yi+1vH/MM1m5g/qkBxxel1klC0w/RW/UvMqvUA+eNvFJSh7+Hgc+OPmaeUYY12kRQxEvZpSogbsMDrHpTNIK7p+8RGo86QHJwq56U4R9XcmI56bzmBrpJM9IgoRUyrkQP8LHKTz9fxkvm3Tw086zZX6r7NWBZUBi20wePea696NhnESYdRxsD4VVNmdWmCETSWMdbMas07WKIWSWklMnh7ISjHA31DWhQLQarq1AlnKqAiN1CYWqdcYEGum+3FpCpwqubMRBXG8aJ8SQgkfaVAFd6VfTRqFABhlf+CtOzBESFcS5jGm8+9rl2/oIz6AVk4joFL60s4ZCGKORZSEStKbPqE97mKDOrDnfBgD7uhKcXFPsnMwkzbmCXvE31lq6AYMN7GVH43X0d1jewp2rNK1FRsEq7aQwksGElxUP5hZ4pnSci8dBqRU0XCcJRtBctPMteR3tjcctC1xy+T7BzAl8CrKArIiiXIxxX+ThHWW+VEDrinIYS2ASPiiSY9s59qVIhVQFRIaqic0ZgDCTvU0xShTfVxNSNmqtpYIrJjNC5QOolESl50slSRdePBhjAo71+NW9YplWdlykj30c/y15y/POgmZY7QUd+6sKVP4spUYCwGnx9+803IxzrCIxtDk+AWEeQK5VNxjrRIN1091qmsSIESFVAAtzh2j2w1zeclrBUr9Ms3hbfozcYKoI1oX4KYJel5qnq6DZneHLR/o11iMGxjQvsH455ll2y+DyEA5Ehe+3J5VOMiC2jT43Q3awEvFzTR2KbQ2CqRjoSnROWS2IShw4MJ0jq1EhVQEJxCXBpEjQIm1BXaw9WpGStNourZRIHTCjdl6aThtBajXCmyGDq2j2yEeH4y/mn2xsYFV/euoRYhIrhRT5gcU2sZ6eluXBcKbMqDgKmC2qaaE9MWupxhFiVJkOqAlJOGQccCa84BuWZHqJf4DUwzT1MUtRmp+mSoweTaAYFKdHTGnEd+tkMYbayFec/r3qaXXbCX2LisXSUvyEVCd+5wAKgzKt3scHCla45pH+m3SAFonjoHv2Db9PwpcsRwyGqDMzDcxnjc+g6bfQ5WByuAxfLrFG9lJZrRTj6SbAfTaDt6HRc9JK6NvvYyc+zZy69AObXclg1wIcRikdVkO2YVR+mQf7xaFalCl1aWE5mOmmW1sh4VFZARs6zakI1hbIxNxd4xKQQW3yaIs3VfSve13kivQyYPmfuSfZ3bKRwEhMOZT8PtntC1pEwAkEn0n7o7nvtyjh9pMq1cYR9Qu9JxTKsekkVhMoKiEq6ktCPgxQBrAxzsBCQRDbSADWmEVAPnY95Dsp8zdLH29tZDtvChtFuORMx7MihnqpB00nfqfP2HTfflphVSW/VOHA9bD+FWDJf1Rspugeap4ttBQQEMIFWwHr1GXzpQp1KatIaWcZApEEEr4ydsTsVlHAWc6u45Fcf1Kr6NnvDCS+wv2KHkYzWhGusKKGPxELCot05QhFnmDrR6xssfCyaVeWdB05UPoouckX5c/QfzvdIBwjYkstx9kitH+pTG7r+UsU8VQHx7jbnMh2aWeeDcAPJVj+pQp1CYuo+rWWQUGvR6UglRbF2mYjEQjiEvDRFXSlJWJhma3864yj7++P/ws6cdzJ5kDpmUmxvSDCChaBGvCRGg14Fu/Ke++yK2Fsls0rvBJbDkzzzGBzPUdoUMPx1EutwvjVQydUxJpTNiOoqw3RdqgKiwtfcIZVnrW+j02gD/fTfBE5IF/Jxp0afVbZ8o4Zh3CUkDsEpulS9jjarQThevvA8e/+pf2sNdU1hfIOCHJZDSJ1AzauqocHe3rnbvsk6a2OHc81U9Z/UjFx5D4ISkkMblZy8MbwUeJh6SmgXfJqOT90B90pM6E1VQHyyXyIMOXYxqfHj06qzkFQ517OTuwYK4cTkNx5YmWOFObSKNsYrWdh06dFPpwu5HuHAeBOz7y8Hspapp3PK5zS32CfOPtNW795t67t6bBtTuR9gleAWRoq7GTHemc9zjiM1pYCPAqHOBTnNcpRfQqN3pQjyH6YOnI+qq+U4OfVIOtKpI5qqgEiDxOl+9ZyzkZP5Io1SGdjHSYwwiq6tfgKLyegpcwnfKSR6xeby61ful2nVh9Y4v3W5vYOBv7PnneibRLs2TRL125AMSGSIQ/NgIfzZ0iVmSxa7YPXRNulEu2gp7V4O09QBmjvRLqvZ0WMLK+l28Hukp8fuoN2yA+HhI4ADOt3lRHj/+YMHhUvEqCxoqnldexZsJkTLCc2hpZcaNqkKiKAKmwkXEI46a6xtsx2wk9vbvCsvltCMTQ2PQ05IglzH/rVhN0UJMSHDTRZSDYSnfYA/TDLUl/EYZaaLwIC7YM6XzD/VPnDaq2xWvTbAVkskiwY9oEQkMFP7lTUuSxYV9kKOBVCaYTSPwy+zGUZSkvRU6YRp8KJ3yG37nk5bxyYG6/Z22f17Oux6BGcXv42cVLuN8RTr1ynvOEmh8lOHgdIrFQoe+QVyKUwfxED59+PiN7qPJv5+kjmkYGlL6oFmdloUnTWJsxI2VqoCElgHNEV4fs0cJyDzIgpDpHuwxg+JHClHBj4Yqzk3z+EMM568dIfkoxAtXhKRxLhieznFl+D0kcYMlsO+76g/tVce+5ykC1dUGMQ5cFz4bjRXh0L0ww2HyDtByFMuCpKi6pCfpTNabNnMVrsgEhkoetA4u9E8O7hvYPvRdRxEs4ONDjaz0cFDmHBrEJpOtE0HAr5b88DEZJ6+7p4NQCgnHgRMDCt/KA/XewHk9+T7St6AdW5dLlREgqMCLlUBiQSM6m5GvRYiKQtEHQSiuVwBPA45SbFxa/1iZ3bXHAIuFq5S41HlLOglGJomosagpqeLIbtlUjUvsjeyduPiRWfS4Nfkdf0J1Vha8U5gCs5TS4RHyUlbh7z0Bq0iBtfdQ1mVyFnl87HR56N8juONZgNT1TKJlLU63Dto2+xlbYmOFNjFfRMCs0EChCBtw4x7FMG6oZfTnTTNQD8JTyKgTiuHhTQdMOWdOH+OD5W6kwkwNdVJu1IFl9ElzRxTFZBAItU4NDmhZ1vz0a5BwryiQMdBJkoTjUNPS3A0cKKUdIGzlMq+PJmkkBWmX2eI5ay3c6DX/mrOsfaBx77CVsxYCs/oY5lpiW7Us773sMpxi+8BANMrV8mGzwYgY6+SCBdu6v4UOHGUR4xUx9iBZhbrDPOaRkS/jbdJ7aW4Sosztvzeg3bZ1N5h6zhk82F+D9LuuaWn27ow3dYgVHv45TkuLZhu4KydJNx8wy9HWslFnnSc0nT6FmxOI4uT8VeKyuMUEMe+hLQrYyAtsh2NrPTZjats+cxzbX377yB3Ele1mBeGUIrfR/TicynJFD0xv8G8WhtoEDsTBzPCYyQguEJJIBSR1H2rZcTzcvV26bLH26uYMjKD7XdUgw/qDWoFnlW7hmZFzCtFNMqTYh22cpcTBso7CLyucsk9ASN2weulSihM0gxVlgQjuDAFRqP7OjSzjkG4WfPn2on8YhSN5+zGRNuNdtmMgDzIfSeC8yjaZwfa535pHyZk7hnIWzu1vBY0uQaKWXhKZbQpeaMn5lT6YF+PoiLJbZytnoenKtHFq0zHJyDCA1XtpSHGx0UU2dWM9Q61dtqiV3qUtbt/A9943cY3xEoixqIsfeeppH9xUMk05lObbeREKRg8BvBGmkCbTCiulsRG5yzD2vqVnPP3Trb7fOrSC6mF2eQBp89dcxBdd+E2mKZHqdhF+USMIkkFj0xG1wgOSEBQVwmFO4+Ej7u+dxEvwe2BHi2WjdMlfJmEm81ks7YZTQ22lJAz+UlACwiCuqG7aM/sRqt0ICztCNB2TDUXIjoNtiJIW7mvp210nzSPCw/EEx8l9YsTMCBHqgmwjqDiESSne23OliDAGefBUEX4uxQv4xMQQamVbfTRq8pUT4IKpti93Yp3fNKsd4c1nPpmO2/FWyy7PmsP7/pVqLW8uoq1XSDBIOYpYleWVOQJBcnka21YyuCc9g7Rm8R5pMBGuupRnQy72MHw6a1L7WNnvM6WsWaccdvkbfyQVDwZMeZg2ET6yrMtwZIAEN8NgS0GepyR4S5F4cOSvwypwVkBBFKmWUyrBn71UGgWbQNraXHBCVlgUyAMvj0qcTVmJAHaRK/bGky3dexvdTPjPqsJ24nwPErPW68EiIrWecx73oBC5pscrDejrs7aqKiUb5AueDFlNw4BkQjzUw0AATUa7Pcdd1v+9iutsOMuXqPGc5+2zJnvsTOXvY7YeVuLuaWaSQT3AiOJkYifMp6CNHESzIK1+FY/EhC9CRDoqif91EPVB4CNCMjrlpxr7z35hTTqZ4IuFQARJwJmwJgQN0ibcWTnhRnoIuUbJhBKI4eKUCESKBmFtUQoYIa3trbakhmtdpYt9IxVbw7QcbAbE01CspHfw4zxbOnotG20ezYTfqe0Ehqqo3/Anj5rls1tlCaPHDUO+Pfz6TgEBBZJOEXC4RPuHvkfy9/7b2w/vh1KIc1EKWy6wXIPft1yJ73eTl2MuQUga9uv41qjSscZTWFBZOSrnItMrd4f78GS9nOIQp4BngIFWGPHNM611TXr7E3HPNOeTpujpTYMeirmyPVpSGMqXiNd0oI9LBkuT1UMnNT83CQ0OpY9mLTKNZS7OgdydBzMRWjmZ1rteML/hC8LtGW0nl8dBl38dqFd1H29oqnJmmiDyLRTmhriSdtxXLbAGo0jWimmkFftQID6zxlGK9z7Zcvf9zVC1ckY4kp+nJ0E/LnvtcyKpyBIdB2uu9LW7voN76hPVN0ooscVIYNTVtGfBI3zph1FAnMPFHrswpVvtVVzgAccoqmgDNSQldvTt5cC6bF5jXP8WUIh6CJMSYXp76bqRah29+Vt2x5tcBpq+wTZQZScHhHrWCrxHqMNf/bU4kunWex6VgkEmoeyINeEqsHnPXJ8Ka4M00cCn8UyknlcRKvLyFU6DQyjz5/ZQGJhP2PPLAHHoR5nQY1Og4hIBdoZaoSGXAPy8uc7rHj3v1p+9f+IxAK79E6vFabekPydn7Da5sWWmf1YO2f5GzzO+vbfg6TYttyFFAKOSVrlr8foV0pA79Dl2CSuMdc2YkpxTs/M+labaa1DBMhRH/GrqRXoxakLvx/fvd2+8sctZbuWUl6y93mtuitcJhu/wEkBiuCXwIl5s6iipx8325516jyb2SCrRD1aMuGozBAOlfl43OgERFLoDSERDgLS05ORedKx2vJ3fNTym28BBgAS0QV/mRORpSCse6cN3PMZy53zYcvVz7DTFr+CwKKt2XkdNYXACDWJysTLhXslnAS2Psd5hLmgGQ6Ux3DtcqC4U+md8FI5wkG2oBUbHi7q9jCCKauMr+QCoyTa5OMmjogu+AVnlsq1QDv+23dts7s377UXnrnQTl7SQktXggE/OS/6JX58yPdRC5g3ttycgoA1bMjfsdYGbvx/lt9yc0LV/eQdgQSjwpZbrXjfv1EI7KZeO9vOXfYmO2rW413gomS5LJLU+NDaF5ZBvaTzCLFdGSQ8mItq/WDxptp7KYhMcizbuatm2otOmUdnUTCNs4nFrYpNZVD6Heh5+Dt9N1JYeXqH6h+WXs5NLTX6VeWZ3b6t2z7yy/V23YO7aIvInE6Hg0YpIJJGgUF0Se3O+yz/h3+wwq6HeCRMsEBY1xR4R3QOL917D/y7FR7+DlFIk27Wc5a/0VbOunBQFSobf+sVWHhI5RqKWn3mmqBYxxiIzLvDVQgORDIZtUW0RBatIZPyL86cb5esbHOlUuBZlFIxeLzEr7JVWOlX/lzuj3FGCovvxnIfll4ejhH8kmf91D7f1TtgV13/qH335i3WS9sqDTeygEjdysFA+gXtK5sO/+ZfW/53b7RC+1qeaSohOF47g8D+XHileMSkAAp3f8aKW2/ywsllG+z0pa+yZW3ngWhYehoLoaz+8qSVwvicIKXrFuGQxRjqnvGlOBW/VqXgCoS7tIkeXnj2Qjt6TqMzWqS/XlXvL3QHRfgkzPL3IS1fummzfeGGjZwdon1kKGcJkipwHvR8KG5kAVEKMqcgoMY5VOtKGApbb7aBW66wQveu8I5oAkouAhqehl8jWIHFiz17rEh7xHp2kG7Bza1zlr8Zc+sJICELcjDdyMbjV5lOKvLL+BysUE8Oh/PIePYygw46IVb0kBZZNqvBLsWGl8SIKaaCZo28F0stlukAOPzk/p32+d9ttP7+wDkSEg1Sejs5fjCK+/4FBKLp9KIwSxLpk3Dc+O5EOCLDjyKHkaKAQH77PVZASDR+IrHWATZnY26taLuAR2mm+GHJEwPGdJdoav8QEbFJ09zdl07aYwKoij4SrbUm5ZyVM+ylp813Rjr0unZyERIju1EFLjXw7QAmws9Xt9vHf77O9nQHcysjLXKIYO5HQGRakZS3OxCSTb+2gT+804o9QXP4tOlDzqoMMk87a/k1P7LCA9eSF+0aGFZTP2RurWg7F8UlTRIYWAUon5tyZckcqlc9GxrAbKqf7/Z1SPVQUzlc48tkMXvO6fPtacfOxr6fongCd+im1p4DGfvZ2t32yes3cBrugFcCh8q2+xEQsSN1LhsJmDTHrZhVPe3U6kTnVegmVJyxudDDIZsQSb/vy/Ru/c7rdiWuKehnL38TDfeLaJMw9oJzeeI+HjMrlHcwH5rqZpGoTEhPfvoCBaKppVmxf33WQjt2XtgtfaqQSMIt2L2cYRj1bgl2zdP69dp2+8LvdV6meDpGGl2xw/ESOZLnY7U3So1yatriznsxq/7Ril07yUxZkwGZK2MN/o3L+edcWOlWuOdzZnvXe94ygmppuJ+3/C3euyUuDjnjwzMoJIJC73Q/uAux2OqHWby1rJXXQJInfPBPj4gYqoREEPHP/JZae/HpC5heoynvgcqxDDxatVEEoGRlaPgm1vjiE8FaI57G/zPMrS/Qw9VDmwSbyN9pcq3PITwAPlCAZJQS3OfdtE4p/Dvvsn6ZVd3tIffyRJxo5QGH6Od78bVuEvvCzocsf/dnLcM0lNiIyrJC7/Qlr7Ll9G55d2zygX+DXyAH1JXIwZ2+E1m0Dr0uyyxTKDoVGqIHxyzlGNBFLHDqslZ7OY12bYjg3JfcAv1TznO8yYXCdX4SXySc5T7vtiawDj77j/t22Hdu2WI9fVrQBzcQHuJ71BEvoTUs8cN5PpK47q2MkH/MCnsetSJdgGKsVF1MTndBScb59T9hPtfn8QelJmltqJ1rZy17gx1Fwz3v5laA0wE9RIA8K/Dw/boQkiBih5jIYRw9dIVCfgilBrt+f3byXHvW8XOcmXLikVBUU4YKKnOZWmqii83UJvkBU2tupF3i7VGeXUgUcT/O47mJRUzV1MxCZkbuZ62w7W6oRS2rFMbCkfvJUMHKw9OE5ioQZ1ZMuvz9X7f8hv/z56Q8fOfDc1a+jS7gCxwKFxH/Rur0AJgpi30c00wYRdeZIN6e2uf9kRsgesMvoYFLJSm/yuUvz1hoZy1qcbNEtD9Uik8mRWUlxK6eaG209+ftmj9utm0dTLBVswIshfv+nEx+XIihWqT4wDfoXfoxQXoVyBHNnv0lcqjhYfOAhNQl4OhFQWsU7v0i01hWk6RaFwGCLFuEnrbk1Zhb5yLEqg9CuGKMVGAjhXk24KfDcmqYrOi0OVTAD+P4opn/IIzMEtFYDDazscZecMYCm9OQcxt/SpGA8o5tEt3VRtF6lA17++zjv1pvuzqZyAWqzi9+SWiQ+IWrRuvdaQpxccvvLX8XA3i4IaxXYmJ/lcKFTIelGTVJsX2Nm3fqN9B+g4JDyDUl5tYKerdkbkXhETCDDXXFDoU7EpBqnDXVLvAYEhDvjRsp4hEYFttk0hzyBzKKymYnLm6xv6Vnq4aXXhMTqPZqML3LuKnK6CbI9BMOcrrrWXjcvLnTvv7HTdY/QIWgSkHY8NIrTnkSwQgCJu7s3sZEwi8RLbb/BxNW4pV23nfthMfUevQmK951NdDSzQtoGR9MDA3s81a8HXPrQi+ouD4mCHMoPKJDCF2HOoUI52YERHefInMg3Tr08yPiKSiOYHKImSQMXonw8CcnzLG/pk2iedfikKxecg8iJP/UcMJL7J6j+/cXtEV+v4ZOKJx4QiPt0WwPA+Rudqrdwbnm2P75Xfc7QxJ3wp3MOAHpALAYv//B71hh/f/wiEmFxHubgfe6n7ZYg4kceik1QxH5j1viUyL7OL1T2jpRyiNymdYg+5BpSIDTLKlEtJ782ay5OGdpK2RUQQQyakvgqeRUeUbB7x0o2Ldv3Wab23vFDYEt4jUwIwIj06pzi+Uf+jYilNTYkyEhzvyiNh7XcxwQzyrF4u6HKQ8UnQuD3mbZLGwOvVt/Zyvp3YqDifoslFVQ/MMLTehrMuTMxiW8kn1NyLQGGU6mIc+ip0ikyku9Wq2NObsUU2t+E5vkRR4peYZ8WrUP5WIg7fdQe7d9g8mNLjVA7StKQbqkQYRpcc33YMRHqKlDr++kYEdB+P6qZB4Lpbh3EysRrwLqHvE/ESgoXmpOVX1Nqz3uqHd4F7C/0mt5XEy8aP0pXPTMLnysItScL6UfXCzl+Dx9L6eAqCNzSv+SA5Ft1fwmu+xxi8MDzyVSln9Yxf5Y4tIiMqe0r++PH2q361bvdmQcHyrjiFe2SNujsOb7tFyS/YUiJSYByUHGTTJHYAubb7bCbVeg3boDAuqClCiowGgpnk7v1rK2x1GA0dzi2/A6SUTKUwVctJn1bNnDgfOyQT0wiTF9G5kCKA1orXqTtRcUjp5FuAuObmMQcQGzEgggXMGivly1k9ZRAE61X6MYaHHsf965zXbuDVObnNGEDI5Nn+6y4t5t+AIjlVWvIcYEXgV8REDZevcyhTOw9n+tsPaHNNYJlCBQCjGuzhg8e9nraZM8jt6I0Lull3rvZpUS4kk7mbQ0zAc9VkMmYVHd+uP0ZUQKlCotJ3iw1LX68GknzbULl3O+fCiOZAdCma2B9iMmVkWBgQeCQNcC9IM7e+y2DeyvoBfgENun2cKOO3203JkvvKkiNASroGX+zP3XMCUFYVaIF5akhPqNAspxmtUFR/0jc7fOd+YXjo6nF5a+UAdAwWbUr6CLL6x/V7JKZtqNngJOVzhIdGusr7HnMz6ylDXtqre87iWC0330SVZFTI2PqKv3pw/sYmdI8Qq8kdQM2WLnempmWEhY88bvVQF2BCIUSKFrB+2Rj1mxbyfyoiIB4NjD5UVWZKr8ZT6YqPAgWIolxIJQtTQswg+OStqrCvfpadqNggKiZBgXCPeVcxrsdecvthlMalS4L8ASD40irWqKIrw0DnLf9m5bzfiIhMPZg/Cs9XU4tjJnJDRun1cT9A6LRJr2yPZ7k/YIh8FIRrxYQnF47xZT5c9a+nqE5HxMqoGkoFRgmsXbxBjI4EYNoYYQaabdoVIg1q4qgtNXzrSXMB1FZoo6H525DjXBSY4fhD7DURB5+29WIkoOophni/17A3iRV+J9koEenr3MJPWy5df93Aqrv0VJqHgkHLEBKcAzbOnTZhcd9W7aJOf7+2BgaTantvqZTZhiSYHE7z1o+jJKCriWoL2qbl+NSKsMnnTiHLuY3VFCCQT6jjK5qoimnRBkOWk9yZ2b9trmXYyLSEpwVMua2zQ1nDfa2Zqy8OC3WAJ8AyWBgDijB/gjUhIbN7dm0nBPzK069sJqyM3yxrreB+0TiOCP05cxUUAmbB2Hjag9cszsBj+vfKpRVbMOxUqa7fsou0yu3sWhQWIt55JEUsZEnUn4SOuKtboxf+fVLOTa7nZvQCUA40JCCTWgLc6kd0uDif2FXmq7ejRIY2JberMdfxCVSUDjsMlS7KMm4ZK2evu7C5fYzDpmZThrTR0Uw2yAwAvaA3j1ti7pFGcrhhSmDpO4uaTqCX1Y2MEiq5veb0Wdwz4cBd7r2IJ6tve5cNV77MR5z0BQLuRDDYQqMr1i/s1Uq+uqgOmG0VrsI9NE9Dx2UbNddt5iDjZVnTyFHLBLEwqXRpBZu73HVx4Kg6zVcYBd4njvLt6Tx6q5qd73qfIweZGtvAtb/0j375fptJKQUG8JQxd47l5CYfzj9KWvtWMX/EWChytUH0GdYspzksoBWkPT+AunGPOMRAQNrM6dsM+WNMkFx8yypx/Ppg/QPwpJvE8SAgfNVgPP4nn9algguK27301FhWYzdUw+AzHVzkIkzkE5aKqTFQHhEJwOK/KdZ5fG4ubfEUBI0p4K76VFwq+GwUEOZU6epUX0U6xpd0AKIBh5JvQVGBsQve756X1241dvsAF2MNScpbAZm9gq8I8a7vWs0f1Ltg46fm4jh+SEisrXl4RoB8xu8l7C+7CDOEI8s6uHeYDBxOC5SfNqAtMJQO/urWpkBskojWIcU5C/42r26+qgPcKcAY2NDHMq3GmBGEaUUTyqpy9Dz6H28e3jTI6bvvIH+9U//cJ+ffUv6ERUx3pgKmcuhEHWq+g8d0adve7CpYyPsOA10TTUSVXrvD8T2MX2EhINHEaJyGbaTuRJURKnl1OoclUxFfeypcsNb2HfLg7ucRQjMtP38VBAi+iiK7BUtZeZr7UcLX3rNbfaLz76U+va3e0WrZtakhJpFfhHv6PmNdnfX7CEg4p0jrm/iklV3b2c3eUXKtFlM3NOoX+r3qVHgWG9eHxd/XdpERVkftttHODDcl16rNxmrH7Qqx5C5xOYHa6gM6RoHev2OPfUQO87v32n/f6z19sA5ogsKbfi4Sy1PdymR0ouOHqm/flxsxLTpbrRLZMJ1yCOFCBnM42LLLvgbCwTNvoFQSmT8sjVjRYFE0uRQius5RCfjb9FyJlv5Y12Na7081KudlSqED4ZGmqoZqz90d1M82EyqGsJNAVb59z69VvtN5/+daBvYkrlNZfJGUvMZfbMU+bbiXObfFNpIaji8vEsPVSLA6fwh3mFbzbzzMIgqIQ9xzT3ZU/F1hRTATxadUqxUwKsCF/s72FN/VVW5FgGd+pW0Xu9nHZjoADikdBu4z0bQwXKcySnBOfWr9xsP8Pc6sb8KtCgV2Wk+ohX/LI2qyVnr8XUWtYSJjUKiAJtmpjGGIBK/RPBKjaRQdmHgM9lYZj20RKMPg6SWfwEy7YdFSQbHKeSC4QOyKjKKuxlT68/votVkhspIL1NsFepTbtDooDaFqKsKNe+ia1n/WtCFBAefJeQu751u/3uc5hbaBiXDtcmxEmEZdXcBns9QjKLQUQvEr3Xa0+vCi4AFTpy0CBM5V/a1kBvnMQFk1FgZuqarWbV8+gE5hEmcwJUAdyjAUE1nMMLtUMvCu2RnQ+GTejYqTFMxNbL0aQ2HaecAurBcjaG0XevYRY1NNSWs2JspznPqk+LfUW77Wu32HWf+Q1Hmusb/wpeUmtEZkvGzmBS41+cMtctXnUHB+HzqJN+EYxB7UlAinb0giY3K8Uzkgi67LAtFz7OMq0rQHyKMRPgFrUVuQRAfm4yF/MbfsmmDz/mIVn/oRf+Vnc5Dwje6euIFFBXrpyOweh8lEmtPGqgVqH6ab5oFJQsG//d+uWb7edX/MS6O0LvlphO4qK2iJYoPJGdUc5b3uq1tMwzuXB176RcPH9Hk03mEI4VnJh7HD1wcnoH/LzlP9O0xGpW/jk4aSZNIILH0sUTKD1Vn8fhExIBcgl5cYD2CJtiF3dqh0ga8EJDwu+N9mhHVjtik0zqoAxs745O69nDDFdxOs6vXEQ9p6DIybPWd9/5rTvst5hbfV3ss4yAaZBRcaQ1ZjXl7FWsZz8aE8YH4kJyMRXuE+8iB4jj5b+QM1IWzqxLnlxACPVYaJKjnmO5OSe6RnFjkXAfWU+kfeLBP3iOonGJzkl076oG9gKTGQdueDMbcO9khzxK0QVESDnCB0/8CI8hBaJKZe+2PdbX2Yv5JEoTGAnO3VmDe2AvTBR2T7/9a7fabz/762CyS8WQhgYMld5iTrJ6yyXLbQY7NSpAKxHVZHdNNAn0dlS4DKAZ5zXW2nOZBSCVFzWc1xG+aRt1bCaH7XXGOyzTyMIiMRHYe208CYCPJ0vJghei9vvas42Zv1diJ+8tFQKYBfzGk8kR8K3XIxCrmwHBAeYnBWkYGXFZuRIAMZz3bn35Fvv5R35ivR1MHdcLvRMjYq4tZyXiC9hjSw1hbYotmyXPu7iP7sg5VCYUsJwvJPta0zK7mS2NBG/iEBChJPnnDmdlZp1s2RNehjqt9SjSIMMMrvht1d5VEO6EJ7u15B/5lRXW/SdtFTBRbeY4J3Gmb/ulgDemqWx6WIraxz623is4yDul79R4V52UWGQertnUd3zzNjTJ9daPcPlnXCQ8stSewq7xj6fh3kfXsDhM3+ZQIyMkX8qnUh7BrrX1T9IkS4AT+0Q4gAsAsRMzNKJ8f948tuPKZ1p24TkereoGdYDqYE7qWkhKsF246c0auPsLnBPMzpGar0V4aD4q1rTbLwWoSbPU8l17ghbYXweOU5GLBMU5C/qLwhp9V+/W9Z+/znI5bRtNGAKitkoLYw2vYGr8yjYmNZKPGNI3bdsvMJV5IZD72J/3+Y+dZyuYYCnnxpOrTxd6ZKQGe5Dp4769Jz1AGY4HyJ74ahruoVsusJuQdlL4vejU8PSq7xLALIOLgIFeG/gd7ZG96wKeqvNEhNJPz6pLpl2kgJhWs3n3bmEiKH9llkeM4nfFK7UhIHXpGb/21FLv1k8/8n+Yaj1UxnmfBawDbGZizvzDxUttMbW3tAr/SsmvlboItqjplJNK/HknzqaHjeXYeonTYLnbg9xoHyWQ6e7hkEJBbcdb9sz3Waahle8cZX9fqiZC9BBW5VfXIurJYhCxoJ0aezl+2oUBvFSyCWGqHI2JBw+rQoN/e7YyB8sb6IAwAq2cFcr4IbJUAFgmFebWN2RuXWe9XZhqSaWk6fKPWdhkf03DuI7xk9AwHiGDlDGPOQjks9m5/sXnLPJ6UrIpM9LfJ5GiMO0Dgo4eyS4612qkSXwfOgQHxKQ41BeeJLPPd9Ua4PCi5vOP3mCFh75D1aCp8dIaQkj1iMil37SLFPBjARCQ7h1d9AKKTvHNwe/ir6BV8MmEwoy5nblbv//cdZZlc3Lvcic9MeCTjpttl6xssy7i7JchD57lQWMIJhnYWmJbROBnNdTYy89d5HsOZ3iW3IpPQp2p2IPaxh/KL0VSyTCBMbviqVaz6ql8xl9swJBCNLfKv6l2f6i5OJ/u4W9bfuPvkA2KwzWJiiUQpNpxmEj41P2aZ1Ji1zZWbDpnOQeNCgTJkyjqzCbB0qcE3oK59TMGE/v2Mq6iCpdXGnx/6XkL7Qz2/dUiK0WvhBMs6hJQj1srvPzGi5b5XsMOo+AjU8Hj5l5iUR1YYBkdzXCeX/bEy1ybMNToCSipfTSIUq5iJ/BUQ6iRWOhlkdUtH6DRfg+oQAK9mHZDKKAaPsuGcD2Mf/RxItOhkkhMJ6db9IsDNX3ljmsZJ2EwsbeTqUDSLiQ+k0b7G56w1JbNGFx64QmM9zKsaCWSM5mt+wbmhp3NoKC0pMOVSOXw8+FHFhCYJkOj3ZlHWqNxvuXO/qBlZx8PssigZ4qISMrkj+p3GDDjxS3N7x1/FRAAC2zt1Dhw+8cRFu3UmKxCLJVkmjlP3bTEzHt37KGblp5N0HAajhad+EFyd9ZwXoFFE3Prt/Ru1ah3i3BN81jOFI+Xnb2IMyRDV7B465DyHAE2ja+EGWFoKtKVInwRWxRddOxsZ13xg7p2vftZqiOoj1JKIwtI6bU8fCShqGuxmvM+ZJm5LLAqd+I2MHQClIdXoR9ISwWthmNxx71WfPBaiALZvD1ShUBPMkidTDPp72GQkBJWPThWJzaRcz4R4/OLc7d60CQ1BOQH8nbWilYWWc12gfFxq/DZmK7KUsdYR6NNA4AvPm2BPZH0feNARZAFcQB34LfJh2o6abJZtpn5Wmf+P8vMOT7UusIW9RgUCLkpwynjAB7NkX/w21bkdK3B9siUQaCygEIeFW9few+j6NrGdfyFq/TchPGkqLX5u/3rt9nvPnMdA5F9/q6eWv6vOVrhccsS82ccWLpdoGImvwbSfRXa6bmn02PG2I7wkdno7dID5DEqAQnST1RSzM5YZTUXfQpz6zgSZ3BRJhh6LOiQ8RPxALCm/kqwW77X+m/8JyvseiAISeq5TNEEIY1Ks50jAXxXExeXceAi6SBBv+kiH/ykRVa3qU3y+d8y6SEcTTGTOVFvvmSZHcXmD+NxYu6oIF7GyVjPVHcyKsWNHr1T4n6RZ2Q3KgERMhlEv0ij3RtvbBWUO+8jlllwhqtKKgJcFJLBjEQHp8VgUPX4ACz0okCwYh+bYl/ui6yCqVUGdZm3eoCvPCRQxTSYt3vjbjfL1ZY9GDMdECoYUWaVknFTLaFrYqGzMvEm+9nHf+q9WwWslVa6YC89e6E3qKN5Jl4+CD8PAUFZNNCOesWZC+0p7B8sDtX30VT0tBI4hnxY9jBKASEp9WhJW7i9zmPLUssxkJhd/qeenDKXcxBipsldAO3z87j7CR8W39MdFjY8vfI4+/hHymsI5gwi7rzfCg98FYDUU6fxkeSX4KU0jygHvfNs9dPx6K5Q7iAvkozLkWZkdnGq2IObO83iuP2aW+y3mFu9dAFLa521YoY964S5Yb5WWfyRwJDwySk98YYmQM5GyN7AdqjPOW2e1WJWeV5cNNXF2+LOzx7q3450GcImI0UYMSxi2bSQ3q0PWM1JfwtQaBdA8FpZqQpg7spewO/zU/hI70YII2jf74elWR5nH7++HyENwRgEG4/U/eofWn7tf4MLNirPhOLC1b1H2CXvo+gslKK8xXSx2NMig6cXyQu9tZ2IDyZ+/nrLsTyXXmZ7/lkL7IIlrV7w88EAACOaSURBVC4kylfztWqIqvIsd6G3SoLBO97PZbuhtz5+mT3hWO2qwh8q0Dewi1+OEpmxCYggIwMHEmbKHvdSqz3znVbTOCtArspXIiqqEkuCU5W/BMYwYxlw1Wi//UqzLTeDHqRRoR3BrpedznsYJBQpKlFPiLr6iaEjqeW/mcHEX175M+tXw50Yb/nT5eyv3OT8Jr4qEEnflTvF87UlsNxCNoh468XLXQMhc859zopuJ5Z/dXD/2AUEjHwchDwyMr+WP81y53/csksuYnCRxpUwFhYAJen1H2HSMEN+eqew0cYpjxu/GcddQCpvwesi38vO3pt+5uCrsETew86Bq695cPz2j922NTuSnUrK4hzkm7KYB/WKsmJcJemMiAfQfEzi5i/d4r1b3cwkbuXY6ZfQyJ7FIiuVSVI1D0lf3fZK46xFLfaeJ6+0M+gudm1CmOIrLwlRyI3bKJ0WbI/NRQ0ChuoG9lpm1olWg8mV3XKTWdcGzHnHNuExJ0egiLzuBHDpIfErDCdKOcrcpQ4xgFWre/ug9E1ZHP/o0C5ONuVTAgGP8Fr8hJAnDTyn6aElW4WxwVGkUiPCC4qb7BTfplUsoJfUzFQUvgaER5Fk55ptVB7Br2cvkhKtCBinU67q9o1CEtMPQoC5xQRHzUP507c9yU5nLftzTp5rn7hho7XQnojO0wCmXsZQnnRUm72SLU/ntOgcd/ELbQ0iFNTWEEZJWPx2NPexC0hMHYKLf0su22DZpRezDegey3RwnFU9c+wbWhixQavIpFEB+QdlH4kyTh2hi9MrUa0sioePeBlVpBG/PHjgaGE4eEqTGqOctr2sjbnlLut+7zes9omnWP0bn+8a38eBBKSXBXfKqn3DLophX3MmLVxUcirm6JwtxAL+gndUsLfQu6Ue1PNfeZE955R59hAm36/W7fYR8bBc16yeiuzZJ822S3X0ghoujm+SMHiUxCmpHGJ+o7mPX0DKcwE5ny7czRrmb3yUTRNuoberzTIz5zJ9nsbSLFZszVnIneOY2zhQs6kFAWoAQ84uZ+VfqMgChXy9CQTKqJYT5YTvcMFS3mNAuhzkkf3KLyHwyBGmTqjICcPIgNSamL5rfmS9X/wJEzZ3WXYxO/t3MxGRzd0kIMI4yFIog/bVuwgJdFD4RJFEGkSDe8oZ450R91uswOKrCy67yF5zwWLrYHf5WzhsU8BqLcnfML7xRLpxHXa+kcUs5Z8oRjxjd+kKiOCQGu/ca/2/ZHS6n31yB9Y5ZdUrFJZsitLEo0CycxCeufOtZsFS7kspsBUIE4I0d5FlZs+3LAu2UD2Op38D5hrR93Qi9iQ3pOQmqhTJdko4aQDRqH0HWuOL1vcdzBbNv4CDQhsydKA42ZyWxKVs+phe0rWlq1T/qMgiyeWtlHONAhzR9IKb3C9zK4Np9UTMrZcwPrLp5+utmec3MKC4ipWAUR68KgA39XbJYBmvS1dARGXGSYq7twAXqAk7cbb/65L8BDlEKGyjhtrCziO330kXH3tzKbyF3opGVjQ2U7tJ+8ydYzULlwXNs/RoNNI8KzY0oHnqOZkTzdPQ7Hl6SSp954ZY0vshD9EcqP28PmyCRQtwLdx+n3Vf/lUb+M0aVolin1MbM/3B0XRKuXRAOtFFr/huDzuZ9DCL1233hCCjtnrHQUBpD8EkJ79AciFhguMtX8LcYtrc415+oV3+9FU2A1yamZmrytdn5bpEeOE6DrF30hMb4yVdAQFQAVXcg+3K1PiE2gnGAK4Ck2NniyAs+DWbkykG2Fl6g8YhjQ6mo+/meOrCBpg/YwPSl/6DOhzimW3jRNXWVsu20q3chqaR1pmH1pmBCTeX805aGTWto83TgLCpDRQ3jwuSGuDxBir5Jczheeu9YIxhXlqB4IO1p3BQWHKP8T1IF3DzV8l3Ma2QQbpXtGlgggCP157KT+Ugbu7utL7//pX1Xv1jK9AjJdoVWd/hzuGS4SVgE4zwuolMWBeTFAe6BvfCctIlKPsHlboAtsgeiyJmKTylJW794s0u4I97zYXWyECgRt19JaLjE7Dxq/glwW08oKYqIEJGJlaRxnlgtHIY/e0grFFYFBz98a3XBAgD/+703rtiaZahaQqb2URg8xbfiXsfZhSv1HEmBZonM2+h1cxbYpn5K83mL0SwCKMNlJ2zGJlpCuRTfDkxm5tv8ms0XSVF/RlLSwUg89FZyoHGH3CKUbxUS5ykdzFxvJVwohMwS3sOTtkXnPx37LbeK79mvV/+PTQjc8EvGsqV8U5kPOEbhUU1smbx9rEbiaMdvqo4OjGbEtkAmf+EzAF2Xe/67l227JwVduzFxwaoCRRKunh8D1VAeJJvrC5VAfG2Aa2r4t72UHAqEKdwQG7UQA4XGP+QNEZKRjTwH5doA/Qy4PfIZiuu3cAJt39AK7HjkjZOxnTLtNAx0DzTbMYsdm5ZQPsHAULrZBY+xjsUinX1xE3MN0y4IUR2EEIN7LgqX5cZvVD+YlYB65eyu8Iq4CI9oJfvo6v88Rce3Wrd7/6C9f/0XtfQrrFj3JHAiGXkYBORcuvbGWbx5jglap8KbKQ0KhkGXKqERGoJwgADiJ1b9gTt6ZUW79AYLiQpw5GqgAStgYDs0T6uYCSCH6hg0kJGebgw4nHLjju1qx/pYPSO0VHmtSpTJ4o7Ed5taDh72PJ311h/mfmWUfunRaabBGgud3rf5s2x7Cz1ws2j942et+YZtHs4TlqClFPCKj3nrHD3Gl3Gjh4Jd6FN3hOWqpNgoD2c1uBfVBfuj6637k98zwprwDO+G02mAhWgI6R7d3aWTJ0JKcMDwCha6icBcD+4bn2AMRqesci9Ma52U6kcCE/LpSsggkqmSg+9V2JYZ560QN1fOirZsndJth4mCjrDcle4m266y3ZTzZiEKw7touKudhegQmbD4Ds38ygamF0L+62ZcZ75HDo0ZwH3ZWif5ZadJwEK5lsGwcowFuRO+YsGSr8EkIIIS6NAvVolbYRcsxl6Pv0t6/3cr6C/RgjIw987EDyP7PytC5rMScgAHbRwaY+2+oFe5bsMjpxC5UMFoyvomBXl1uFbEYGiyhT4Q1ssRkjvnrKAADmbRrNPjJdPAFNcWElH+l7KSR4lP+HKOj7rLqaMTtygCMktBof4SbhXWUTwRgaFoM753TRemfnLIA+4woj8Mq1oniZ61FrRLk10IMxB+yygrUP7J7vwKO4rrCjzToOl0YTj2LtB7aL8pAkkSInTc7lz2ImnuwuYXgIPnQ0FzMnud/+b9f8fG3UnByGV8HYilCc01E9qJBdaH0paApHvy3sj3ZlvaPRJeXIY/ZJkD9pd2xkHwalovB1FWCVcygKi8oORxDjV7pzhAFKE35/zdyoB/WIkaRKYV796GF5O5g2bGxRVMdhms4cQIJluWtcvbSX7WD1vmG/SNFl62WzOPMJmM+5Dz9sihGjZCcTHHHRhPFBpSyiUqeLkrf8XN1jPx39g+dseQfj4XtN75ErwhscDXWPUkGsiINswsVxw4tsDpVDZdw5XAK6UUc/2rpJfryTYlRDolAUEUNkqiA70ALwYaxhiJaymrAecIs9EIRMuUvVuwiEY8b1MKzc1uW1FeLZugx6rAxNLwEQbBCg7d7Y1voWJnisf6xWMt12G0QcR9Oi6qr4vshKy70vfw6z6iRW3Y9LSCeEG+bDvRvOo9Bh+dbDV2JcG6WknTUD0lvFoEpngOAOdA5iDdL7IDCRvgVoJl7KAACrao9iF+pMZIAYoZ6JKYFAtaTqeIKzSEt7R4zRIHp3hiKCRbAlOYlZl5jL9pm0BYWje4aaVksJ5kvqGfAobN1nPVd+03mv/EMZ79NIXRPC+zErzD0dzESiegWrhrHVyAI42nHYURvP9RMcB1gGOpd6+bqfNP0rb4wqBygCRroCISQSozAv5+Q+Ul+dwd7GEHOlBZCPq4sBIHy9Qnvv72bnyBGt4GUdOMOApgkk/DHExOe6aODjwhzus96rvss/wmtAdLYlQHM3NkNPnidefR3Mp+0ZHqGmQsJ8DcKraQcs8QiIXhLsy0KYrIM4EABp7jpzwh1palUG04ql6a5FchvF3Kd8oHCKHesPoKZJwNL71arqPGf0PtUlIQHFdiLgrvvwMkPZ983+s5/If0NZJmDc26hUn5iv/ITj/TN/IPFS54fe9sJgQqPZktTqHrCQZPO1H844X/nQFRAXZzy58ezVNBNAcgeol8niJN+T7IWgmD7qJA104Eg6mqSDa1Bx/ojW88eNhbKX8vSdKXHqnxKDaA6C4a7f1fPLfGRX/FW9JIEnKhSfmG+/+/egvEcTyL3q3dlm+h72ZJchV6SYOrlQFRH3VYgbvxSrh4IFVSeaKAxUbuaWKAlpIcxyPWfXq9zGWskTGNG2SpDcsAcg3NZNw8Bu4/S7r+ci3bOD6h6nlEY6onccoECPi7GUVRIXRINu9qSPY9epIcCkc8asjIjBVAYlWRmlAzmmeZklOsTKRRo3VvUwYbGY3q978L0FzCB0xfbmTYEig+PX/50+t+2PfZ+oIGlkmhE/yJHJMVlo6BUeWDqb3jiGA7Y+2U4SSmmotu4mDK1UB2aesVPYpFeI+aVddQGSoeAdAecVkYjbak7kT0BxvvIqBxERzSDg0fzs6OFV/trcTc+q71vPRnwQelWqWsEWNpE9S5JEIZpHOFe3D27EZDUKgh0fYqvE+AQCmKiBuYomQsfCOGOGI3EOJRdxj4blwFKwG4ah/1fvYj4YGuZYCMOKtqKwE929Ui8ukKtx5H2Mb/2n9/3sXQoFESC0rLf0iPUPnDQFpOXQH6UtzaafDTgYJ1RFZzU6w1kgrQx7RTmapTrNK26UqICrDoo5y0zJad0B+xDlwTgrOmVptjhOOt8Y3XRk0h+ghoeHnU+nRDD6PiOf+X/+OVX/ftMIaLRdIhEPxo2DIXxEnvaXSYwkJUzj6dvRg+aWsptKEGxLXsJpw1jJtQh14LJiEaWYS0kpVQDzJXC3zkdikwQl+hAiI8xa4Cl0xv6sD3dVbpa5ctTnQHAwEsu0ZzQlqbHqpMghBXNjU++UfWtcV32ehH0Xi6YQCqjQdg1golzACs2n1drIHAF/zGmGovnuWafh1rPspUAGFmQcRk3RhTVlAEuZQ/7yYxGtSlfZh7kooqpB4kJBgqsisanj1exkE5Aw8X1KMcJQqjmAOFNett55Pfc/6vstmdYWkOMrLWnRUZZ66WRXKRKArO5+wgZ3VvprpMFPANc7XWh05MNA/dPI5ciEwtWu6AiJKc2KurxMXiKL+4eiilhgRNwlH3nLHH0eD/GOsJ1kGHcKeXt4TpcoDs0pT5/t/+Qfrfs/XrbBa61PKnNMtIZ5o6lt8iAvK4lTEW7TtG9q92VP5vMaHQPN8WSlyQbwrNE7IliFpOhVgLX36LTMC3J62EKh4yaaJxcHTUo+ShERONbycHqUU4P+a44+3hrd9MhkEZGSBmtkLUHH13z9g/d/5iXX/43eYt5aohiQZJTXEefj+Xg6JOaaHgEUoI7VDOh9iPwGlRJDADe/HlHRFP2qdD49FJ1gpj0rAmq6ACEgGvTJNbQF0UVq9MIebU0lEtIY0yDGrNAj4KplVC4iiObKQQAXotOC+YZP1fur71vv9G2gRIxyKUPFG+P4LwMESfADS3dHDPCz24nXhF8NFJPf//eS84YTaZbMcukBWrt4NXuW9WE4s+vYzs2fjheoq/BJ3TA4pK5Kr8PLqVZxF4QhHHyE/zhrf+FFWGWJWsfFDWPJLkzeJk7/pVut+/7csf+uG0D6TcKlgJ9EJFXeAsXf7XuvTJEXMP7fp47squ+tw0Zna9C5xoqD25q2ES1mDACK1YXY2U7fphvP1CXFqRCWgn6w0y3laTI4iqDmOrty3f4oFUOCuLYVoi7nwEDfDCHjfL35r3e/6qhW1I0sUDAlWYpZNFiqeLwIsE6WLdej9rNsPeywCPi9LAjSpAJZlDpx17N7eOJf90KBr0HaCVGo4fSFJV0CcoihrttbxKRRZ1jcoTL8p68pZpAwRBevXn/RWveo9tDnAW3OrfM4UcSnMAtsT9X7pvxgZ/w0LybTeg4+i1pBmmWQnCASShLlbAsKOIb4yj2cFV4NLwPPBTI131DXXWcMMbdvk0HMlhuCtAMApC0go8OzCVZZtbLRCxx4Ad/Sqgc5jg0FMHCk/yE0hjBHxmuPorfr7j7AGfSWMrxY6I+TqtUJI8g88aD3v/Zr1//5hBClJR2noVyUuMp9Q7GWAMI8Q1zbWVXQR0qGi7uQCPoeVS/O8Zmudz/EGLC/OsvhM78u2qD7U5A8YP0WdBJhxqL+52bJHrXK7/IC5T4WXJeEQfl5EQM2dx5pjaHO849MIx1HMYMasUjjaIUPB9f/yeut8/ocYHX+gUto/PeqBi+qBDhZKhf21hGt6yY83JaAJlQr0L7BOZdbRsxFihhMw47XlaDzfZbz5jPR9imQQ0zgqjIO0cH7hJTANDb7IYCPlPiXCwEl4STiiNkFT1ByL5njtB9judB62MDsQMjVcr4u7Wbtx9bes67LPW2EL7Q22Vh3SSxVIVDWYCxw1yHUW+p7NHNgpPARdFcEZZ4mrX22ATQEXnbLYcvVsUCFTVfzlv8qQNEUBAUABCrFF29zpj2fTaZaR0psz5YUkwQtEXCvmjj3GGv7uQ2EnEg38aasdelEKa9dY19s+Zb3/ys72e9XegBDe3oAiIop+VegkINqoobud3dwFsyS9ypwa49oatn5Wnc0/fr6TUmGBxN4KqQjE6QqICJs0ULWVZ+708wODiN5O+IrgkF6izh0Aug+8BOgdt5rjjrWGd36WrXoeExhJcXkx8IebrPPFH7a+H96N5lSPSuL0Xo9Vir/AEl5qe+zdiIlVhasIw/7I0BjtsfCkRTb/ODbtE+D8VCw5PXjZCZl0XboCIth8WgUAc6998l+z+yAmCI/eWNe9ml2sOUVs5/EEYH/GrFKD/DX/RFcumlFT1tEaxa5u336n67WfZQO3vZiXMqngOH0j4dBPTk2UKnQCT8eu6TyQfo47qEbnEzoBrAbaHv/sk6y2FvMK5xpEdNavQi5lARGgwcQSY2SXHW+1T3jaIOjeozX4WHW+SGcJSiS67uqtOgaz6vUf5lz4ExnmgNuZDp5ft8G63/kZ67qcVX8cNuOVgJtUYKa0YnpVh+hQgDLMjO3cxSItFktFgY5yPTTmJD1BRxXJbBrnJz/1ZOquynTpjoRdugLijBWHmcCKeVm1T73UalZhjqgLNLqqon4EirvgEg6uv7mjDLRTYc0xR1vj//s8ZtUq3scu3Ies81Ufs95v3xwGRD0Zfas0wD0KiodX70UoawNsDRLme/t9GYroUFUzhCgTDZSf8IyTrbZFW7ZSCU9QZZuugHhqIrmorjvCgjnS8Np/tpoVy0thg7Wzx5y8S0lLDAPBUYDJGQT0WbmXfZDzFDkDT+eGsBy279r/tr1/c4UV7trixyr4jIEE7dK4jwvZsHSr8BEs3XXv6GJbZToWtHWpAuOL5P1k3iTAc4+fZ8c++TjWfwCj3ATBl66AONQkqfEQiXwyLpJh39n6V7+H8QJsd/X6OHJcVAtEZpwojAN5w7WUN4+RwaPQ+CDg0Vb/2ssts4J9c0Wpjnbr+fBXmKL+71bcyCCocIzfKUUpSWkOhYnRqtkJVnCVwpTr3MZWP3761ARxXsh2n6uDwyVST6P6eWh66l+dZm2L2N9YlS5wTxSUKvZ0nTNYGfh4MwhF9vhzmch3BVvdMAtT5lbMeTJr2lgKCbO45Cag1xyLWfWuL3Cw6DHAzwDVhvXW+TcfYsrIbzmHwz8Ipag0DvRLl7qppVbU9qdROpDs3exkElCPREktq0NKyMc8kjKQcAwwMLjqkqPspGef7BWu1u0LbJ8Aekgpjy1yZNOxfT2qr8AWTSLEskefzoS+f7HaU07lyyTrUnmUPKNKNZVIKghR24Vad569zUFX7mX/zHEG7Puqc/5++DMfFR+45RH6FJNJiKkAMHmJZKXpEkbsZR9ebfWjmnnSHSCUoKAsFp25xJ74vqcyg0c9VywggG30fqJ0yAQISCLtLvk0to46ld6gj1j9817sZ2r4GRsJyhNeOFE44l1T1o95jLeZsstP5kgDRsWv+gZnb7CRwjr2puJEVRXSYAlOOMQpZRhY0BdygU+eWrqTqe7VgBfUBSIMKTytK9vsCW+52FrnavVg6LlSUUUrNiViHDCZdCcr7icrn9+DWeXFolpq9iKre/5bLXfWJdbzxQ/awN33MK8G5tMgoxhQVJgI5wCRl8w8aquchOPdX6JBPguT6hHrfMMn2NFwHYLMKknF1ViG7rKwprKDvgVwrnX8uTCw2bU1nAcymWip1AWSm+D1WbvkHX9iy85ckZhTai9RRsAtAZooZTcBAuKlEJi/RAHsSHb4yK463Zre8xUb+ONPYcQf28CD99BLRE3mOwjynTfy+UgMKV3nZkGSHo+SpUDR5O7CFf3c40uP56Qvf6kIRCHcG+TH0ZHwfs4zbLWBn1xnPVf8h+XvpZeqAeHQTFylIRfv4WlKXtU34ra806vIcWbt1r+nnxkzYR6WKFURl9Au5E8OSUYKlleLnjQTes5x8+zx/3CxrTpvlQtLnB/mHaOUV8XgGwHpygtIOTbRT00QagBIU99suQueZTWnXWx1jz7EwZq/R6PciknzsBV2bfeu1qI2gvBNm2WAjsCh0VB0ygvLhOR+I9Ph70vxiKojCDS3ytscC5hoeC0j47/mrEImGmpv2onU5yMUUCWCVAxS0vqJ2zbeD531nGTmwcm7SuRfyihJXCyv7Ars/PKYJx1t57/2Ipt/zAJIT2jCM36bKLVRhnTlBaQss5JXJo2XkO7YLZhWOpo5QyM+e8I5Vvc8iLUFYXlkrRXu+6Pl77+FUes1VminHeAU4zt1sUJWTXn2XT9EYTG0SC0B0F0EFYPj914P5wge1QXr+z6hsk8/g32r/pXFEJx796Z/tb4f3R7O3VAS+lXpFBEgG7MTWZwU0EnU2fnQFq9EYrjQVrjulXBK1xdlcS9iLeicj9yMWjvndU+w8y49m7yDqR3yrxQUo8NscgRE1Hfyi1Fjw5fCEtPrhCpKL7OAyY78TNPme6nN+zkDsGOHFbes4cixjVbYvpVanudOTLL+bit0c++Fy4fUMqRfy3HNOkBT9+ZZrPprY8Uj5wMuWG4ZRsYztIcyDU02cN3N1v/bB/BrpBabTuUiOCVzU73NAQrlzsmvTiFwVO2dpw0igfHJDrES8Q88gkccQtayxDwtPcsTo5e991ceSReZ1kQTTUmwtrnW2lbOtuXnLbeTnnWyzT1qnq/vEDAF3svgY440kcUjk+MmR0DKcVWBOPW5qztYlBYtvb0hD1Svg8HrOUW2ZZbZYoRGYdH1dTN7FsHo6WQ7HZaLJiUZyzmj7kG+1REDmUYW+pdekIBrF90Zp1kynx6sBZa/41HiqKSVt36HiRNTyrmwg59m40si4NhzXng23ag527t5j/Vs77Hu3T3Ws6eHOokJjCzB1e6FfXtZSizmZrZvHKiL1FEnjMiuo9BkFsXS0bPi5JpzLHCqtca2RmumR2rmihk299gFtvCEhTZ75SxWB86gnlT7I0kxEY5QlBFwh37CL9AocsmE551OhpGoFIVrnlKqSTHF0lKxJcJTisK34SwOvWJQ6jc32N4XX8lrtIi4QRu2TXHyOK6upIU/T6GlyyzkPjolnmCN738FFRNtvGytKOh1Qm9vH0LCLGVO7u3c2e29XL27qIighc4O2cu0FPX8KTnRr4MxlL6ufpuxpM3qmSsls0m0nrVwhrWwPDY3o94a2hqsZQ5LZefOQBgBSKR1lUU6SVoOa5Vdpr6AjIegFK4LlQRHgkAt1vul/7TuD3yXZxIeSGq05DaerCb121gJ6y5cwDV70gJruebtTMBc5GHOrNKc0gDM7t1HEyefCg9XsPLglJwWW+n7Wk7aFbOLdOoli+vEXZAUpuQRHl8mK6HQT4FV7CbfxJpM4lC6KiAVZSy8+pf8OVvz7LKez/3cazkHb6oLSORQCYg2XcHEafroKxCOxXCs2BlUvUudiBBCFPGxCB4LaFF/9ljhIlqJbq5c8ddgduW0zRF+BfoXTjPppEA8vXLBUvpMc9GzE133KnaxbqliECsMmoRExagajxpNpVh/2XOt9s+YoKgerMOBQuJG4VGghq/L0KX9NMudejK4JpJPqzkwPXGo4cXiwaED9B2PobYXT/NAoHYU8a9dSohDPLfWeScyhnhBEEppSzj4Km4cLy1T7e5wKP6x07hUcmKAhBNUujNmWMPbX2g1p7AJnMys5JXzDa9L/DP2nCv3ZYQv3pWTlISq73yf1T7/XKt91iUuCEEqhBw4QgtnV7SBC44zsz6GqUUnsbbTC58qE+J5LxN0C7ST3BAPgVE6iuqCwsXP7nDBITCmQRzPj3s1uyO7DRJLxks0PHhPipsdmBD3sSjqdZ+0wr0cCaB5GeVjItVYuoDowhzxSe4K1rZEuWecZE0fvIytUef6LiwR/en7/ikwLSBltHHhoLp1Q0C2NLXdwE13WNcrP2WFnfTcyJxIakmvlcu+rRqv2wSIhOwY1dYSEsY5cucut+Zr30NXd6NrAi1CmnYHp8A0lcpopJpWjC8FIptbAlNz5knW8P7nM2FRXZNeF5d9UYVemVI5pCLpohbENactscYrXs08M4SD59AyqELYqxCkaQEZVihuIjNW4O1HFwj2gn3qRUFI2hh0lJklLqtaB3DeuaA72nDpTGt834ss+xhmDgBzaE9ULfBVB9i0iTW8SJz5gwToqqarujxlkvR9/6fW9dZrzLQ7jgbcvE0C28mc8Ybw8MQq/BzNPVVzAlbPkmw3rZgdcOwca/7yW9kPYGXQHEk4EYXYtBsFBaY1yHAiiXGCGgm1rbpA2eJHW/3UPQVN8vonM5AmshFRy1bFeur5kXfCHXlrTpWcj5ZLOPhHYHPnrrTmz73JalaudBBLmkNtj0mB1aGccpcje6BwVMUlcwvG06zhbJ3Vv+K57u+56sdBk0hW1Hjnf8Kd8pTmEsPr7nKLcDzlJJY2v9jNKgYnCJf0TLuxUGDaxDoo1cT8MJkzGj3/6t0iqPer37OeD/3Aij08uKmleAdNLN0I0lzBeArCIS33mout6W0vY4InqsW1xbS6GA/RpwXkYNRDe3gbRLVzMshQZBQ5wx5Zvd/6kfWwq6Ix41VhJVfmLYWl4YnyoLTk5xd72zJzmBD4+qdb3Qufzmh5A6AChAREwj2tQcZM/WkBORjpvDurLBJM6eOIuvT12cDPOFqNfbIKG1nMpQVbCeN6xU6U1FxMV2lGf9Lozp2zkpH/57HGn91iaqQ5klzjvRSQGjRHTELTAjKWopa55VqCO1Mo8rfdbV1v+JzlH2Tpah1Coukpeu9xxpLBCN9Ig0kgPFHu0mx9/Vb/YvYbe8uLLLOQaTEeR5dplxYFpgVkLJR0rZJwvzRJJsdxa6s5wfbffBcU33RCXa4yu9ISEmd+Acswn/zzWjmj5ElW96Jn8KxdV5QXeSrfaY0hQqXipgVkLGRU7Y1gDB2RZu7Wju3Wd82PrPeaX1tRi4pU48skSsOJ72mEW0ut1T3zLKu79EmWO+0kh0PJ+3gNKsRnJE8LSBoU9zSmBWQspCy1S8rUg3uZKs7odf4Pt1vXe6/hPPRNLBWmdo8DeGXRR5WthELMTpr0Clju8Y+x+tc902rPPt2KHEGmY99cQ8nk81m4/kEQzFFlMB3pYBSYFpCDUWik92J08WK8yxOZXyYXvUbF9l3W9/UfW++117MJXXvoCtY3MoX0sX+v78r8CozC5yYVOqq1zrLHLbL6Sy9mjcoFnB7c7F3N3t7wdMq+8TYKyU+71CgwLSBpkbK8XSKzSutL2Ocp//A6G/jdndb/i9uYPr/Finv2IjxhfbcvSU0Ey7uSm7X9UQMHgzazV9cCJkqys8sZx1nNqccSNjMITyJfLlfeGEkLgel0RqLAtICMRJWxhElAxLyq+TWyroqdPx1R7Dzd1cOU+Z2W37DRig/tYgujLpb2IjDaF4ydV7IL6IVa2MJu8jOtZtlCy86cw94RbKSANhqUg0RbuMmmvHh2VcRt2lWEAv8fKawOSjil53MAAAAASUVORK5CYII=;" vertex="1" parent="qfl5n_piH4ilOluIckPt-22">
          <mxGeometry x="2" y="2" width="20.1" height="20" as="geometry" />
        </mxCell>
        <mxCell id="qfl5n_piH4ilOluIckPt-25" style="edgeStyle=none;rounded=0;orthogonalLoop=1;jettySize=auto;html=1;strokeColor=default;align=center;verticalAlign=middle;fontFamily=Helvetica;fontSize=11;fontColor=default;labelBackgroundColor=default;endArrow=classic;" edge="1" parent="1" source="qfl5n_piH4ilOluIckPt-23" target="t2k2UjqAHbA6nQ_ANtjL-64">
          <mxGeometry relative="1" as="geometry" />
        </mxCell>
        <mxCell id="qfl5n_piH4ilOluIckPt-28" style="edgeStyle=none;rounded=0;orthogonalLoop=1;jettySize=auto;html=1;strokeColor=default;align=center;verticalAlign=middle;fontFamily=Helvetica;fontSize=11;fontColor=default;labelBackgroundColor=default;endArrow=classic;" edge="1" parent="1" source="qfl5n_piH4ilOluIckPt-7" target="qfl5n_piH4ilOluIckPt-10">
          <mxGeometry relative="1" as="geometry" />
        </mxCell>
        <mxCell id="qfl5n_piH4ilOluIckPt-29" style="edgeStyle=none;rounded=0;orthogonalLoop=1;jettySize=auto;html=1;strokeColor=default;align=center;verticalAlign=middle;fontFamily=Helvetica;fontSize=11;fontColor=default;labelBackgroundColor=default;endArrow=classic;" edge="1" parent="1" source="qfl5n_piH4ilOluIckPt-15" target="qfl5n_piH4ilOluIckPt-12">
          <mxGeometry relative="1" as="geometry" />
        </mxCell>
        <mxCell id="qfl5n_piH4ilOluIckPt-30" style="edgeStyle=none;rounded=0;orthogonalLoop=1;jettySize=auto;html=1;strokeColor=default;align=center;verticalAlign=middle;fontFamily=Helvetica;fontSize=11;fontColor=default;labelBackgroundColor=default;endArrow=classic;" edge="1" parent="1" source="qfl5n_piH4ilOluIckPt-12" target="qfl5n_piH4ilOluIckPt-7">
          <mxGeometry relative="1" as="geometry" />
        </mxCell>
        <mxCell id="qfl5n_piH4ilOluIckPt-31" style="edgeStyle=none;rounded=0;orthogonalLoop=1;jettySize=auto;html=1;strokeColor=default;align=center;verticalAlign=middle;fontFamily=Helvetica;fontSize=11;fontColor=default;labelBackgroundColor=default;endArrow=classic;" edge="1" parent="1" source="qfl5n_piH4ilOluIckPt-2" target="qfl5n_piH4ilOluIckPt-15">
          <mxGeometry relative="1" as="geometry" />
        </mxCell>
      </root>
    </mxGraphModel>
  </diagram>
</mxfile>
